<svg width="246" height="306" viewBox="0 0 246 306" fill="none" xmlns="http://www.w3.org/2000/svg">
<path opacity="0.2" d="M195.224 27.7739H11.4685C9.93811 27.7735 8.43684 28.1914 7.12734 28.9825C5.81785 29.7736 4.7501 30.9077 4.0398 32.2617C3.32951 33.6158 3.00378 35.1382 3.09791 36.664C3.19204 38.1898 3.70245 39.6608 4.57381 40.9175L25.0915 70.5054C25.8637 71.6181 26.8943 72.5273 28.095 73.1554C29.2957 73.7834 30.6308 74.1116 31.9862 74.1117H174.706C176.061 74.1122 177.395 73.7842 178.595 73.1561C179.795 72.528 180.824 71.6184 181.594 70.5054L202.112 40.9175C202.983 39.6612 203.493 38.1909 203.588 36.6657C203.682 35.1404 203.357 33.6185 202.647 32.2647C201.938 30.9108 200.871 29.7767 199.563 28.9851C198.254 28.1935 196.754 27.7747 195.224 27.7739Z" fill="#51668F"/>
<path d="M196.254 64.1426H10.458L70.8809 194.157H135.832L196.254 64.1426Z" fill="#51668F"/>
<path d="M31.3183 114.886L30.4258 115.3L36.5787 128.541L37.4712 128.127L31.3183 114.886Z" fill="#51668F"/>
<path d="M39.291 132.051L38.3984 132.465L41.2761 138.658L42.1687 138.244L39.291 132.051Z" fill="#51668F"/>
<path opacity="0.3" d="M196.254 64.1426H10.458L70.8809 194.157H135.832L196.254 64.1426Z" fill="#0E0F11"/>
<path opacity="0.2" d="M64.6981 64.1426H29.54L82.7758 194.157H94.1516L64.6981 64.1426Z" fill="#0E0F11"/>
<path d="M203.542 39.1309H3.17141C1.41989 39.1309 0 40.5492 0 42.2989V60.9748C0 62.7244 1.41989 64.1428 3.17141 64.1428H203.542C205.293 64.1428 206.713 62.7244 206.713 60.9748V42.2989C206.713 40.5492 205.293 39.1309 203.542 39.1309Z" fill="#51668F"/>
<path d="M126.291 291.305H80.4158C78.7706 291.306 77.186 290.685 75.9808 289.566C74.7757 288.447 74.0394 286.914 73.9201 285.275L70.875 194.157H135.819L132.774 285.275C132.653 286.911 131.918 288.442 130.716 289.56C129.514 290.678 127.934 291.301 126.291 291.305Z" fill="#51668F"/>
<path opacity="0.2" d="M126.291 291.305H80.4158C78.7706 291.306 77.186 290.685 75.9808 289.566C74.7757 288.447 74.0394 286.914 73.9201 285.275L70.875 194.157H135.819L132.774 285.275C132.653 286.911 131.918 288.442 130.716 289.56C129.514 290.678 127.934 291.301 126.291 291.305Z" fill="#0E0F11"/>
<path d="M174.796 284.369H166.731L166.192 265.706H174.257L174.796 284.369Z" fill="#FBC1B4"/>
<path opacity="0.2" d="M166.192 265.712L166.472 275.329H174.536L174.264 265.712H166.192Z" fill="#0E0F11"/>
<path d="M237.159 255.086L230.092 258.965L218.822 243.862L225.89 239.983L237.159 255.086Z" fill="#FBC1B4"/>
<path opacity="0.2" d="M225.896 239.983L218.822 243.869L224.633 251.653L231.707 247.767L225.896 239.983Z" fill="#0E0F11"/>
<path d="M206.456 55.8808C199.249 50.9262 195.984 45.9185 195.359 39.7818C196.569 46.2506 200.445 51.3911 209.095 55.7214C209.163 55.7554 209.238 55.7736 209.315 55.7745C209.427 55.777 209.538 55.7406 209.627 55.6716C209.716 55.6025 209.779 55.5049 209.804 55.3952C209.83 55.2854 209.817 55.1702 209.768 55.0687C209.719 54.9673 209.636 54.8859 209.534 54.8381C197.367 48.7345 195.007 41.2695 196.13 30.1449C196.45 28.6838 196.842 27.1695 197.307 25.5822C201.243 12.1332 179.296 9.43671 172.435 12.2394C155.554 19.1267 160.74 38.2609 165.507 45.4802C170.274 52.6995 154.251 57.5412 163.213 78.1763C172.175 98.8115 202.014 98.3001 210.551 87.5741C219.088 76.848 218.543 64.196 206.456 55.8808Z" fill="#263239"/>
<path d="M162.422 64.1957C162.329 65.524 162.209 66.7128 162.043 67.9415C161.877 69.1702 161.704 70.3656 161.505 71.5678C161.112 73.9786 160.567 76.3563 159.995 78.734C158.839 83.5231 157.235 88.1928 155.202 92.6811L154.816 93.5246C154.67 93.8235 154.61 94.0028 154.297 94.5806C153.718 95.6355 152.881 96.5266 151.864 97.1708C150.931 97.7557 149.88 98.1276 148.786 98.26C147.916 98.3729 147.036 98.3729 146.166 98.26C143.455 97.823 140.842 96.9125 138.447 95.5702C134.147 93.2139 130.131 90.3727 126.479 87.1023L128.92 83.828C130.874 84.9438 132.909 86.0728 134.957 87.0956C136.945 88.1321 138.992 89.0523 141.087 89.8518C142.898 90.6274 144.821 91.1116 146.784 91.2864C147.562 91.3196 148.021 91.0739 147.888 91.0739C147.755 91.0739 147.775 91.1403 147.788 91.0739L148.294 89.7456C149.866 85.5498 151.132 81.2459 152.083 76.8677C152.569 74.6627 152.961 72.4378 153.34 70.2262C153.719 68.0146 154.005 65.6967 154.231 63.6245L162.422 64.1957Z" fill="#FBC1B4"/>
<path d="M156.811 54.3399C153.486 55.1834 151.159 68.8516 151.159 68.8516L160.321 75.0747C160.321 75.0747 169.104 61.287 166.551 57.6341C163.885 53.8352 161.664 53.1046 156.811 54.3399Z" fill="#51668F"/>
<path d="M156.811 54.3399C153.486 55.1834 151.159 68.8516 151.159 68.8516L160.321 75.0747C160.321 75.0747 169.104 61.287 166.551 57.6341C163.885 53.8352 161.664 53.1046 156.811 54.3399Z" fill="#61A73A"/>
<path opacity="0.2" d="M157.11 57.395L154.557 71.1695L159.703 74.6563L157.11 57.395Z" fill="#0E0F11"/>
<path d="M130.243 84.3729L125.309 76.6621L122.523 84.3663C122.523 84.3663 125.947 88.2515 129.212 87.4878L130.243 84.3729Z" fill="#FBC1B4"/>
<path d="M120.05 73.7729L116.766 79.8101L122.523 84.3728L125.309 76.662L120.05 73.7729Z" fill="#FBC1B4"/>
<path d="M228.569 258.015L235.776 252.529C235.901 252.436 236.055 252.389 236.21 252.398C236.366 252.406 236.513 252.469 236.627 252.575L241.793 257.649C241.913 257.784 242.005 257.941 242.062 258.112C242.119 258.283 242.141 258.464 242.126 258.643C242.111 258.823 242.06 258.998 241.975 259.157C241.89 259.316 241.774 259.456 241.634 259.569C239.087 261.442 237.764 262.225 234.593 264.63C232.645 266.111 229.939 268.482 227.279 270.534C224.62 272.586 222.419 270.029 223.357 268.94C227.559 264.032 227.213 261.933 227.825 259.223C227.926 258.747 228.189 258.32 228.569 258.015Z" fill="#263239"/>
<path d="M166.458 283.432H175.52C175.678 283.429 175.832 283.484 175.954 283.585C176.076 283.686 176.158 283.827 176.185 283.983L177.215 291.143C177.23 291.323 177.207 291.504 177.149 291.676C177.091 291.847 176.998 292.005 176.877 292.139C176.755 292.274 176.608 292.382 176.443 292.457C176.278 292.532 176.1 292.573 175.919 292.577C172.761 292.524 171.265 292.338 167.276 292.338C164.822 292.338 157.781 292.59 154.397 292.59C151.013 292.59 150.827 289.27 152.236 288.944C158.559 287.616 163.02 285.716 165.148 283.93C165.514 283.618 165.977 283.443 166.458 283.432Z" fill="#263239"/>
<path d="M156.811 54.34C156.811 54.34 152.968 55.6683 160.667 102.969H193.425C192.88 89.6529 192.86 81.4374 199.236 54.1076C194.648 53.16 189.997 52.5474 185.32 52.2745C179.808 52.0089 175.294 51.8295 170.447 52.2745C164.058 52.859 156.811 54.34 156.811 54.34Z" fill="#51668F"/>
<path d="M156.811 54.34C156.811 54.34 152.968 55.6683 160.667 102.969H193.425C192.88 89.6529 192.86 81.4374 199.236 54.1076C194.648 53.16 189.997 52.5474 185.32 52.2745C179.808 52.0089 175.294 51.8295 170.447 52.2745C164.058 52.859 156.811 54.34 156.811 54.34Z" fill="#71BF45"/>
<path d="M185.326 52.2742C179.808 52.0085 175.293 51.8359 170.447 52.2742C168.665 52.4336 166.81 52.6727 165.068 52.9384C164.31 55.8141 164.456 59.8455 167.395 65.0857L169.084 68.1076L172.295 66.8191C174.682 65.8494 186.749 60.762 190.632 54.4858L191.636 52.8587C189.688 52.593 187.52 52.3871 185.326 52.2742Z" fill="white"/>
<path d="M185.32 52.281C181.996 49.0865 182.913 40.3263 183.851 35.5444L174.716 43.3349C175.646 47.0542 175.786 51.0059 170.447 52.281L169.483 52.374C168.293 54.6189 167.994 58.0791 170.813 63.1466C170.813 63.1466 183.864 57.8998 187.262 52.4006C186.637 52.3475 185.978 52.3076 185.32 52.281Z" fill="#FBC1B4"/>
<path opacity="0.2" d="M180.127 38.7188L174.722 43.328C174.952 44.1983 175.106 45.0873 175.18 45.9846C177.222 45.6857 180.021 43.4541 180.233 41.3355C180.361 40.4642 180.325 39.5768 180.127 38.7188Z" fill="#0E0F11"/>
<path d="M189.881 27.9066C187.487 35.5377 186.643 38.8186 181.743 41.8537C174.37 46.3899 165.507 41.7873 165.567 33.5983C165.62 26.2196 169.516 15.0021 177.867 13.7668C179.706 13.4899 181.585 13.687 183.326 14.3392C185.068 14.9914 186.613 16.0772 187.817 17.4936C189.02 18.9099 189.842 20.6099 190.203 22.4323C190.564 24.2546 190.453 26.139 189.881 27.9066Z" fill="#FBC1B4"/>
<path d="M191.41 16.7957C188.785 14.3872 185.385 12.9951 181.823 12.8705C181.333 12.4306 180.721 12.1483 180.068 12.0603C176.358 11.3098 172.143 12.306 170.281 14.6637C168.579 16.8089 174.383 18.0708 178.552 16.3573C179.15 22.939 184.709 36.4545 190.007 35.2391C196.955 33.6385 196.989 21.9495 191.41 16.7957Z" fill="#263239"/>
<path d="M160.667 102.969C160.667 102.969 154.304 165.04 154.83 189.614C155.381 215.177 164.756 273.47 164.756 273.47H175.68C175.68 273.47 173.951 216.665 174.915 191.566C175.966 164.203 184.669 102.969 184.669 102.969H160.667Z" fill="#263239"/>
<path d="M176.61 273.862H163.811L162.874 269.784L177.202 269.286L176.61 273.862Z" fill="#51668F"/>
<path opacity="0.2" d="M174.795 118.417C166.75 134.583 173.18 164.084 176.025 175.056C177.488 158.572 179.948 138.428 181.863 123.631C180.646 115.263 178.512 110.959 174.795 118.417Z" fill="#0E0F11"/>
<path d="M169.316 102.969C169.316 102.969 176.736 167.505 182.328 188.22C188.976 212.793 222.02 250.955 222.02 250.955L231.661 245.642C231.661 245.642 208.743 202.824 203.657 189.853C192.799 162.198 202.094 120.988 193.411 102.936L169.316 102.969Z" fill="#263239"/>
<path d="M233.057 245.556L221.096 252.124L217.759 249.069L231.482 240.708L233.057 245.556Z" fill="#51668F"/>
<path d="M177.009 26.9168C176.856 27.581 176.391 27.9795 175.979 27.8799C175.567 27.7802 175.36 27.1825 175.513 26.5516C175.666 25.9206 176.132 25.4889 176.544 25.5952C176.956 25.7015 177.156 26.2859 177.009 26.9168Z" fill="#263239"/>
<path d="M169.855 25.1637C169.702 25.7947 169.237 26.2197 168.824 26.1201C168.412 26.0205 168.206 25.4227 168.359 24.7918C168.512 24.1609 168.977 23.7292 169.39 23.8354C169.802 23.9417 170.015 24.5461 169.855 25.1637Z" fill="#263239"/>
<path d="M169.563 23.9152L168.153 23.105C168.153 23.105 168.639 24.4798 169.563 23.9152Z" fill="#263239"/>
<path d="M171.777 26.8374C170.861 28.139 169.769 29.3079 168.532 30.3109C169.197 31.2938 170.68 31.2872 170.68 31.2872L171.777 26.8374Z" fill="#F56C4C"/>
<path d="M173.513 34.6077C173.194 34.5783 172.879 34.525 172.569 34.4483C172.544 34.4429 172.52 34.4325 172.5 34.4177C172.479 34.4029 172.461 34.384 172.448 34.3622C172.435 34.3404 172.427 34.3162 172.423 34.291C172.42 34.2658 172.422 34.2402 172.429 34.2158C172.443 34.1675 172.475 34.1263 172.518 34.1004C172.561 34.0746 172.612 34.066 172.662 34.0763C173.443 34.2897 174.264 34.3149 175.057 34.1498C175.849 33.9847 176.592 33.634 177.223 33.1266C177.24 33.1089 177.261 33.0949 177.284 33.0853C177.306 33.0757 177.331 33.0708 177.356 33.0708C177.38 33.0708 177.405 33.0757 177.428 33.0853C177.451 33.0949 177.471 33.1089 177.489 33.1266C177.507 33.1434 177.522 33.1639 177.532 33.1868C177.542 33.2097 177.547 33.2344 177.547 33.2594C177.547 33.2845 177.542 33.3092 177.532 33.3321C177.522 33.355 177.507 33.3755 177.489 33.3923C176.942 33.8512 176.308 34.1953 175.624 34.4041C174.941 34.6129 174.223 34.6822 173.513 34.6077Z" fill="#263239"/>
<path d="M190.226 35.5311C189.351 36.8068 188.005 37.6834 186.483 37.9685C184.489 38.3338 183.651 36.4809 184.369 34.681C185.034 33.0605 186.856 30.9153 188.804 31.3603C190.752 31.8052 191.284 33.9571 190.226 35.5311Z" fill="#FBC1B4"/>
<path d="M180.22 26.1731C180.139 26.1653 180.063 26.1322 180.002 26.0785C179.941 26.0249 179.899 25.9534 179.881 25.8742C179.489 24.1541 177.388 23.2774 177.361 23.2708C177.314 23.2503 177.272 23.2207 177.236 23.1837C177.2 23.1468 177.172 23.1032 177.153 23.0554C177.134 23.0076 177.125 22.9565 177.126 22.9052C177.127 22.8538 177.138 22.8031 177.159 22.756C177.179 22.709 177.209 22.6664 177.246 22.6307C177.283 22.595 177.326 22.567 177.374 22.5482C177.422 22.5294 177.473 22.5201 177.524 22.5211C177.576 22.522 177.627 22.533 177.674 22.5535C177.774 22.5933 180.16 23.5896 180.646 25.6949C180.668 25.7935 180.65 25.8967 180.597 25.9825C180.543 26.0682 180.458 26.1295 180.36 26.1532L180.22 26.1731Z" fill="#263239"/>
<path d="M168.526 21.338C168.46 21.3318 168.397 21.309 168.342 21.2719C168.288 21.2347 168.243 21.1844 168.213 21.1255C168.191 21.0803 168.178 21.031 168.175 20.9806C168.171 20.9302 168.178 20.8797 168.195 20.832C168.212 20.7844 168.238 20.7406 168.272 20.7031C168.306 20.6657 168.347 20.6354 168.393 20.6141C168.931 20.3342 169.528 20.188 170.135 20.188C170.741 20.188 171.339 20.3342 171.877 20.6141C171.92 20.6399 171.959 20.6739 171.989 20.7144C172.019 20.7548 172.042 20.8009 172.054 20.8499C172.067 20.899 172.07 20.95 172.063 21.0001C172.056 21.0503 172.039 21.0985 172.013 21.1421C171.987 21.1857 171.953 21.2238 171.913 21.2543C171.872 21.2847 171.826 21.3069 171.777 21.3196C171.728 21.3322 171.677 21.3351 171.627 21.328C171.576 21.3209 171.528 21.304 171.484 21.2783C171.057 21.0618 170.584 20.949 170.105 20.949C169.625 20.949 169.153 21.0618 168.725 21.2783C168.666 21.3174 168.597 21.3382 168.526 21.338Z" fill="#263239"/>
<path d="M203.006 63.4849C204.003 68.3664 204.715 73.1748 205.28 78.0962C205.579 80.5403 205.792 82.9976 205.945 85.4749C206.038 86.7102 206.091 87.9588 206.138 89.2008L206.177 91.0803V91.5519V91.8441C206.177 92.0765 206.177 92.3157 206.177 92.5481C206.059 93.6433 205.593 94.672 204.848 95.4836C204.263 96.0887 203.553 96.558 202.767 96.8584C202.249 97.0531 201.712 97.1933 201.164 97.2769C200.341 97.3984 199.509 97.4384 198.678 97.3964C197.305 97.3252 195.938 97.1565 194.589 96.8916C192.089 96.3835 189.621 95.7338 187.196 94.9457C184.822 94.1886 182.495 93.365 180.195 92.5082C177.894 91.6515 175.634 90.7018 173.373 89.6591L174.743 85.8203C177.056 86.3781 179.397 86.9759 181.73 87.4939C184.064 88.012 186.384 88.5698 188.711 89.0082C191.038 89.4465 193.365 89.8649 195.566 90.0907C196.607 90.214 197.656 90.2651 198.704 90.2435C199.085 90.2358 199.464 90.1868 199.835 90.0974C199.974 90.0974 200.007 90.031 199.981 90.0443C199.758 90.1172 199.56 90.2506 199.409 90.4295C199.065 90.7945 198.846 91.2599 198.784 91.7578C198.775 91.8416 198.775 91.9263 198.784 92.0101C198.788 91.9571 198.788 91.9038 198.784 91.8507L198.744 91.4124L198.591 89.6723L198.199 86.1656C197.92 83.8212 197.587 81.4767 197.255 79.119C196.923 76.7612 196.524 74.4168 196.131 72.0657C195.739 69.7146 195.327 67.3436 194.941 65.0522L203.006 63.4849Z" fill="#FBC1B4"/>
<path d="M199.236 54.1075C202.521 55.0971 206.463 66.3877 206.463 66.3877L193.725 75.4865C193.725 75.4865 189.071 66.0622 190.46 61.825C191.896 57.4083 195.493 52.9652 199.236 54.1075Z" fill="#51668F"/>
<path d="M199.236 54.1075C202.521 55.0971 206.463 66.3877 206.463 66.3877L193.725 75.4865C193.725 75.4865 189.071 66.0622 190.46 61.825C191.896 57.4083 195.493 52.9652 199.236 54.1075Z" fill="#61A73A"/>
<path d="M225.85 261.409H225.75C225.565 261.389 225.388 261.322 225.237 261.214C225.085 261.106 224.964 260.96 224.886 260.791C224.828 260.69 224.797 260.576 224.797 260.459C224.797 260.342 224.828 260.228 224.886 260.127C225.378 259.217 228.283 258.991 228.616 258.971C228.653 258.965 228.69 258.972 228.723 258.99C228.755 259.008 228.781 259.037 228.795 259.071C228.815 259.102 228.825 259.137 228.825 259.174C228.825 259.21 228.815 259.246 228.795 259.277C228.091 260.087 226.874 261.409 225.85 261.409ZM228.15 259.416C226.994 259.543 225.491 259.855 225.198 260.333C225.171 260.376 225.157 260.425 225.157 260.476C225.157 260.526 225.171 260.576 225.198 260.618C225.247 260.732 225.325 260.832 225.424 260.906C225.524 260.981 225.64 261.028 225.764 261.044C226.329 261.07 227.206 260.472 228.15 259.396V259.416Z" fill="#51668F"/>
<path d="M228.33 259.37C227.326 259.37 225.484 258.898 225.119 258.148C225.052 258.01 225.034 257.854 225.07 257.705C225.105 257.556 225.19 257.424 225.311 257.331C225.416 257.228 225.541 257.149 225.679 257.1C225.817 257.05 225.963 257.032 226.109 257.045C227.273 257.132 228.689 258.971 228.769 259.038C228.787 259.065 228.796 259.098 228.796 259.131C228.796 259.164 228.787 259.196 228.769 259.224C228.756 259.255 228.735 259.283 228.708 259.304C228.682 259.325 228.65 259.339 228.616 259.343L228.33 259.37ZM226.023 257.424C225.94 257.423 225.857 257.438 225.781 257.47C225.704 257.502 225.635 257.55 225.577 257.61C225.398 257.776 225.424 257.895 225.464 257.982C225.71 258.486 227.233 258.971 228.21 258.991C227.712 258.407 226.774 257.477 226.076 257.424H226.023Z" fill="#51668F"/>
<path d="M163.426 284.84C162.737 284.903 162.048 284.73 161.471 284.348C161.342 284.233 161.243 284.089 161.182 283.927C161.122 283.764 161.103 283.59 161.126 283.419C161.131 283.312 161.163 283.209 161.221 283.12C161.278 283.03 161.357 282.957 161.451 282.907C162.435 282.369 165.653 284.01 166.019 284.196C166.054 284.214 166.083 284.244 166.101 284.279C166.119 284.315 166.125 284.355 166.119 284.395C166.112 284.433 166.094 284.469 166.066 284.498C166.039 284.526 166.004 284.546 165.966 284.554C165.13 284.726 164.28 284.822 163.426 284.84ZM161.99 283.173C161.866 283.165 161.742 283.19 161.631 283.246C161.594 283.267 161.564 283.297 161.541 283.333C161.519 283.369 161.507 283.41 161.505 283.452C161.489 283.564 161.501 283.678 161.54 283.784C161.578 283.89 161.641 283.986 161.724 284.063C162.216 284.501 163.546 284.574 165.334 284.282C164.291 283.725 163.16 283.35 161.99 283.173Z" fill="#51668F"/>
<path d="M165.926 284.554C165.902 284.561 165.877 284.561 165.853 284.554C164.889 284.123 162.988 282.383 163.134 281.466C163.174 281.254 163.327 280.981 163.852 280.928C164.042 280.907 164.234 280.926 164.416 280.983C164.598 281.04 164.766 281.135 164.909 281.26C165.926 282.104 166.113 284.275 166.119 284.362C166.121 284.395 166.115 284.428 166.101 284.458C166.087 284.488 166.066 284.515 166.039 284.534C166.005 284.554 165.965 284.561 165.926 284.554ZM164.005 281.293H163.892C163.546 281.333 163.52 281.473 163.513 281.519C163.426 282.064 164.716 283.432 165.694 284.023C165.601 283.359 165.335 282.09 164.67 281.539C164.485 281.38 164.249 281.293 164.005 281.293Z" fill="#51668F"/>
<path d="M176.703 25.6755L175.294 24.8652C175.294 24.8652 175.779 26.24 176.703 25.6755Z" fill="#263239"/>
<path d="M193.917 101.05L194.754 103.979C194.867 104.205 194.601 104.437 194.222 104.437H160.507C160.208 104.437 159.962 104.298 159.949 104.112L159.649 101.183C159.649 100.977 159.889 100.804 160.208 100.804H193.385C193.487 100.796 193.59 100.814 193.683 100.857C193.776 100.9 193.857 100.967 193.917 101.05Z" fill="#51668F"/>
<path d="M189.462 104.756H190.353C190.526 104.756 190.666 104.663 190.652 104.557L190.233 100.751C190.233 100.638 190.067 100.545 189.888 100.545H188.977C188.797 100.545 188.664 100.638 188.678 100.751L189.09 104.557C189.13 104.663 189.283 104.756 189.462 104.756Z" fill="#263239"/>
<path d="M163.001 104.756H163.892C164.065 104.756 164.204 104.663 164.191 104.557L163.772 100.751C163.772 100.638 163.606 100.545 163.427 100.545H162.542C162.363 100.545 162.23 100.638 162.243 100.751L162.655 104.557C162.669 104.663 162.828 104.756 163.001 104.756Z" fill="#263239"/>
<path d="M176.232 104.756H177.122C177.295 104.756 177.435 104.663 177.422 104.557L177.003 100.751C177.003 100.638 176.837 100.545 176.657 100.545H175.773C175.593 100.545 175.46 100.638 175.474 100.751L175.886 104.557C175.899 104.663 176.052 104.756 176.232 104.756Z" fill="#263239"/>
<path d="M175.679 86.0402L169.576 79.8237L168.805 87.9795C168.805 87.9795 173.086 90.8951 176.058 89.341L175.679 86.0402Z" fill="#FBC1B4"/>
<path d="M162.854 78.9404L162.575 85.8078L168.805 87.9862L169.583 79.8304L162.854 78.9404Z" fill="#FBC1B4"/>
</svg>
