<?xml version="1.0" encoding="UTF-8" standalone="no"?>
<svg
   xmlns:dc="http://purl.org/dc/elements/1.1/"
   xmlns:cc="http://creativecommons.org/ns#"
   xmlns:rdf="http://www.w3.org/1999/02/22-rdf-syntax-ns#"
   xmlns:svg="http://www.w3.org/2000/svg"
   xmlns="http://www.w3.org/2000/svg"
   xmlns:sodipodi="http://sodipodi.sourceforge.net/DTD/sodipodi-0.dtd"
   xmlns:inkscape="http://www.inkscape.org/namespaces/inkscape"
   version="1.1"
   id="svg2"
   xml:space="preserve"
   width="205.38667"
   height="58.133331"
   viewBox="0 0 205.38667 58.133331"
   sodipodi:docname="logo_base.eps"><metadata
     id="metadata8"><rdf:RDF><cc:Work
         rdf:about=""><dc:format>image/svg+xml</dc:format><dc:type
           rdf:resource="http://purl.org/dc/dcmitype/StillImage" /></cc:Work></rdf:RDF></metadata><defs
     id="defs6" /><sodipodi:namedview
     pagecolor="#ffffff"
     bordercolor="#666666"
     borderopacity="1"
     objecttolerance="10"
     gridtolerance="10"
     guidetolerance="10"
     inkscape:pageopacity="0"
     inkscape:pageshadow="2"
     inkscape:window-width="640"
     inkscape:window-height="480"
     id="namedview4" /><g
     id="g10"
     inkscape:groupmode="layer"
     inkscape:label="ink_ext_XXXXXX"
     transform="matrix(1.3333333,0,0,-1.3333333,0,58.133333)"><g
       id="g12"
       transform="scale(0.1)"><path
         d="m 420.547,152.656 v 59.063 h -28.336 v 161.25 h 25.543 v 59.062 H 298.023 v -59.062 h 25.145 v -161.25 h -27.934 v -59.063 h 125.313 z m 15.141,88.215 c -0.329,-13.898 1.734,-26.543 6.125,-37.785 4.453,-11.309 10.976,-21.035 19.554,-29.141 8.649,-8.105 19.024,-14.297 31.192,-18.691 12.187,-4.336 25.816,-6.524 40.914,-6.582 14.84,0.058 28.273,2.051 40.242,6.113 12.043,4.043 22.344,9.922 31.004,17.559 8.64,7.597 15.297,16.758 19.883,27.539 4.656,10.722 6.984,22.754 7.046,36.191 -0.062,13.508 -1.722,25.078 -5.046,34.723 -3.332,9.574 -7.989,17.566 -13.903,24.012 -5.988,6.386 -12.976,11.574 -20.961,15.504 -7.976,3.851 -16.687,6.839 -26.07,8.976 -9.445,2.059 -19.223,3.594 -29.402,4.594 -10.703,1.461 -18.493,4.246 -23.477,8.375 -4.922,4.125 -7.316,9.316 -7.254,15.566 0.067,8.051 2.535,14.301 7.254,18.754 4.723,4.457 11.234,6.719 19.484,6.785 5.532,-0.066 10.243,-1.269 14.305,-3.73 3.996,-2.453 7.043,-5.785 9.11,-10.106 2.062,-4.316 2.925,-9.242 2.527,-14.898 h 64.656 c 0.336,13.707 -1.531,26.207 -5.719,37.387 -4.125,11.172 -10.25,20.75 -18.289,28.8 -8.117,8.047 -17.894,14.301 -29.336,18.622 -11.379,4.328 -24.214,6.515 -38.441,6.582 -14.039,0 -26.75,-2.055 -38.18,-6.114 -11.386,-4.129 -21.226,-9.98 -29.472,-17.695 -8.254,-7.645 -14.571,-16.957 -19.024,-27.875 -4.394,-10.898 -6.652,-23.207 -6.719,-36.914 0.067,-11.645 1.661,-21.949 4.86,-30.926 3.179,-8.914 7.644,-16.699 13.234,-23.219 5.645,-6.582 12.106,-11.972 19.485,-16.363 7.386,-4.32 15.234,-7.644 23.679,-10.043 8.387,-2.328 16.969,-3.859 25.742,-4.453 3.602,-0.27 7.582,-0.668 11.973,-1.266 4.32,-0.664 8.578,-1.8 12.645,-3.394 4.05,-1.664 7.379,-4.125 10.043,-7.445 2.589,-3.34 3.988,-7.793 4.05,-13.438 0,-5.32 -1.332,-9.852 -3.855,-13.641 -2.598,-3.722 -6.113,-6.574 -10.703,-8.507 -4.66,-2.012 -9.981,-3.008 -16.168,-3.008 -6.453,0.078 -12.047,1.269 -16.758,3.73 -4.801,2.473 -8.453,5.86 -11.051,10.254 -2.594,4.317 -3.793,9.375 -3.719,15.168 h -65.46 z m 281.136,1.992 h 70.649 v 63.856 h -70.649 v 61.855 h 81.028 v 63.457 H 647.781 V 152.656 h 69.043 v 90.207 z m 160.012,49.492 c 0.066,15.024 2.344,28.125 6.809,39.305 4.441,11.246 10.703,19.957 18.757,26.207 8.036,6.254 17.493,9.449 28.321,9.512 10.578,-0.063 19.765,-3.258 27.605,-9.512 7.785,-6.25 13.828,-14.961 18.164,-26.207 4.262,-11.18 6.457,-24.281 6.516,-39.305 -0.059,-15.039 -2.254,-28.144 -6.516,-39.449 -4.336,-11.246 -10.379,-20.023 -18.164,-26.343 -7.84,-6.309 -17.027,-9.512 -27.605,-9.649 -10.828,0.137 -20.285,3.34 -28.321,9.649 -8.054,6.32 -14.316,15.097 -18.757,26.343 -4.465,11.305 -6.743,24.41 -6.809,39.449 z m 175.604,0 c -0.07,21.606 -2.97,41.235 -8.69,58.797 -5.79,17.629 -14.04,32.719 -24.75,45.364 -10.72,12.629 -23.551,22.347 -38.441,29.199 -14.907,6.781 -31.477,10.238 -49.836,10.305 -18.418,-0.067 -35.118,-3.524 -50.157,-10.305 -14.968,-6.852 -27.871,-16.57 -38.64,-29.199 -10.774,-12.645 -19.082,-27.735 -24.875,-45.364 -5.852,-17.562 -8.781,-37.191 -8.86,-58.797 0.079,-21.628 3.008,-41.246 8.86,-58.808 5.793,-17.629 14.101,-32.746 24.875,-45.363 10.769,-12.637 23.672,-22.344 38.64,-29.2 15.039,-6.777 31.739,-10.254 50.157,-10.312 18.359,0.058 34.929,3.535 49.836,10.312 14.89,6.856 27.721,16.563 38.441,29.2 10.71,12.617 18.96,27.734 24.75,45.363 5.72,17.562 8.62,37.18 8.69,58.808 z m 82.02,0 c 0.06,15.024 2.32,28.125 6.78,39.305 4.46,11.246 10.7,19.957 18.75,26.207 8.08,6.254 17.5,9.449 28.34,9.512 10.59,-0.063 19.76,-3.258 27.61,-9.512 7.79,-6.25 13.84,-14.961 18.15,-26.207 4.27,-11.18 6.46,-24.281 6.53,-39.305 -0.07,-15.039 -2.26,-28.144 -6.53,-39.449 -4.31,-11.246 -10.36,-20.023 -18.15,-26.343 -7.85,-6.309 -17.02,-9.512 -27.61,-9.649 -10.84,0.137 -20.26,3.34 -28.34,9.649 -8.05,6.32 -14.29,15.097 -18.75,26.343 -4.46,11.305 -6.72,24.41 -6.78,39.449 z m 172.2,37.813 c -1.34,7.289 -3.13,14.289 -5.31,20.984 -5.78,17.629 -14.04,32.719 -24.75,45.364 -10.7,12.629 -23.54,22.347 -38.46,29.199 -14.88,6.781 -31.44,10.238 -49.81,10.305 -18.42,-0.067 -35.11,-3.524 -50.15,-10.305 -14.97,-6.852 -27.88,-16.57 -38.65,-29.199 -10.77,-12.645 -19.07,-27.735 -24.86,-45.364 -5.87,-17.562 -8.79,-37.191 -8.86,-58.797 0.07,-21.628 2.99,-41.246 8.86,-58.808 5.79,-17.629 14.09,-32.746 24.86,-45.363 10.77,-12.637 23.68,-22.344 38.65,-29.2 15.04,-6.777 31.73,-10.254 50.15,-10.312 18.37,0.058 34.93,3.535 49.81,10.312 14.92,6.856 27.76,16.563 38.46,29.2 9.8,11.543 17.52,25.156 23.19,40.859 -18.27,8.449 -31,27.328 -31,49.262 0,24.597 16,45.34 37.87,51.863 z m 24.16,101.477 V 365.82 c 33.54,0 61.48,0.414 91.4,0.368 9.77,-0.016 18.27,-3.196 25.59,-9.243 7.26,-6.121 12.91,-14.636 16.97,-25.613 3.99,-10.98 6.04,-23.887 6.13,-38.578 -0.09,-14.977 -2.14,-28.008 -6.13,-39.117 -4.06,-11.117 -9.69,-19.699 -16.97,-25.813 -7.29,-6.125 -15.82,-9.308 -25.59,-9.308 l -26.67,-1.192 c -12.95,-21.543 -24.92,-40.117 -42.83,-65.644 l 70.28,0.976 c 17.9,0.254 34.13,3.477 48.57,10.117 14.48,6.661 26.88,16.231 37.17,28.594 10.33,12.383 18.24,27.227 23.7,44.446 5.38,17.296 8.05,36.515 7.91,57.734 -0.07,20.82 -2.87,39.715 -8.45,56.605 -5.59,16.903 -13.51,31.473 -23.87,43.571 -10.32,12.172 -22.69,21.488 -37.06,28.011 -14.37,6.512 -30.34,9.84 -47.97,9.911 h -92.18 z m -1255.863,0 V 365.82 c 33.543,0 61.484,0.414 91.395,0.368 9.777,-0.016 18.293,-3.196 25.605,-9.243 7.258,-6.121 12.902,-14.636 16.965,-25.613 3.988,-10.98 6.051,-23.887 6.121,-38.578 -0.07,-14.977 -2.133,-28.008 -6.121,-39.117 -4.063,-11.117 -9.703,-19.699 -16.965,-25.813 -7.309,-6.125 -15.828,-9.308 -25.605,-9.308 l -26.684,-1.192 C 126.734,195.781 114.773,177.207 96.8555,151.68 l 70.2895,0.976 c 17.89,0.254 34.121,3.477 48.558,10.117 14.492,6.661 26.871,16.231 37.184,28.594 10.312,12.383 18.226,27.227 23.683,44.446 5.383,17.296 8.047,36.515 7.91,57.734 -0.054,20.82 -2.859,39.715 -8.449,56.605 -5.582,16.903 -13.504,31.473 -23.879,43.571 -10.304,12.172 -22.679,21.488 -37.047,28.011 -14.375,6.512 -30.335,9.84 -47.96,9.911 H 74.957 v 0"
         style="fill:#485683;fill-opacity:1;fill-rule:nonzero;stroke:none"
         id="path14" /><path
         d="m 66.2266,308.402 c 14.5625,0 26.3789,-11.824 26.3789,-26.394 0,-14.57 -11.8164,-26.387 -26.3789,-26.387 -14.5743,0 -26.3985,11.817 -26.3985,26.387 0,14.57 11.8242,26.394 26.3985,26.394 z m -0.5039,41.473 c 36.2893,0 65.7183,-29.426 65.7183,-65.73 0,-36.282 -31.421,-89.633 -65.7183,-134.497 C 36.3984,190.527 0,247.863 0,284.145 c 0,36.304 29.4297,65.73 65.7227,65.73 v 0"
         style="fill:#66c430;fill-opacity:1;fill-rule:evenodd;stroke:none"
         id="path16" /><path
         d="m 1322.09,308.402 c 14.56,0 26.38,-11.824 26.38,-26.394 0,-14.57 -11.82,-26.387 -26.38,-26.387 -14.58,0 -26.4,11.817 -26.4,26.387 0,14.57 11.82,26.394 26.4,26.394 z m -0.51,41.473 c 36.3,0 65.72,-29.426 65.72,-65.73 0,-36.282 -31.41,-89.633 -65.72,-134.497 -29.3,40.879 -65.72,98.215 -65.72,134.497 0,36.304 29.42,65.73 65.72,65.73 v 0"
         style="fill:#66c430;fill-opacity:1;fill-rule:evenodd;stroke:none"
         id="path18" /><path
         d="m 1316.5,43.2422 c -3,-1.2305 -7.52,-2.2852 -13.5,-3.1445 -3.43,-0.4688 -5.83,-1.0352 -7.22,-1.6602 -1.42,-0.6055 -2.52,-1.5039 -3.27,-2.6953 -0.79,-1.1719 -1.18,-2.4805 -1.18,-3.9258 0,-2.207 0.85,-4.043 2.52,-5.5273 1.67,-1.4649 4.12,-2.1875 7.34,-2.1875 3.19,0 6.03,0.6836 8.51,2.0898 2.49,1.4063 4.31,3.3203 5.48,5.7227 0.89,1.875 1.32,4.6289 1.32,8.2812 v 3.0469 z m 0.71,-18.4961 c -3.1,-2.6172 -6.04,-4.4531 -8.86,-5.5273 -2.85,-1.0743 -5.91,-1.6016 -9.14,-1.6016 -5.38,0 -9.48,1.2891 -12.39,3.9258 -2.87,2.6172 -4.32,5.9765 -4.32,10.039 0,2.4219 0.55,4.5899 1.64,6.5625 1.07,1.9922 2.52,3.5743 4.28,4.7852 1.77,1.1719 3.76,2.0898 5.96,2.6953 1.63,0.4297 4.08,0.8594 7.35,1.25 6.7,0.7813 11.63,1.7383 14.77,2.8516 0.03,1.1328 0.06,1.8554 0.06,2.1484 0,3.3789 -0.78,5.7617 -2.35,7.1289 -2.12,1.8945 -5.26,2.8125 -9.42,2.8125 -3.91,0 -6.79,-0.6641 -8.66,-2.0312 -1.84,-1.3672 -3.2,-3.7891 -4.11,-7.2461 l -8.07,1.1132 c 0.73,3.4375 1.94,6.25 3.62,8.3594 1.67,2.1485 4.12,3.7891 7.32,4.9414 3.18,1.1524 6.87,1.7188 11.09,1.7188 4.18,0 7.55,-0.4883 10.16,-1.4649 2.6,-0.9765 4.51,-2.2265 5.75,-3.7109 1.24,-1.4844 2.08,-3.3398 2.58,-5.6445 0.27,-1.4063 0.4,-3.9453 0.4,-7.6172 V 39.1992 c 0,-7.7148 0.2,-12.5976 0.56,-14.6094 0.32,-2.0507 1.04,-4.0039 2.07,-5.8789 h -8.64 c -0.85,1.6993 -1.43,3.711 -1.65,6.0352 z m -47.12,11.875 8.13,-1.0938 c -0.88,-5.5859 -3.15,-10 -6.83,-13.164 -3.66,-3.1836 -8.17,-4.7461 -13.5,-4.7461 -6.67,0 -12.06,2.168 -16.11,6.543 -4.07,4.3554 -6.12,10.625 -6.12,18.789 0,5.293 0.88,9.9024 2.62,13.8672 1.76,3.9453 4.41,6.9336 8.01,8.8867 3.56,1.9922 7.45,2.9688 11.63,2.9688 5.31,0 9.68,-1.3281 13.03,-4.0235 3.39,-2.6953 5.54,-6.5039 6.5,-11.4257 l -8.06,-1.25 c -0.78,3.2812 -2.11,5.7617 -4.06,7.4023 -1.95,1.6602 -4.3,2.4805 -7.08,2.4805 -4.17,0 -7.55,-1.4844 -10.16,-4.4922 -2.62,-2.9688 -3.93,-7.7149 -3.93,-14.1602 0,-6.582 1.28,-11.3476 3.79,-14.3359 2.52,-2.9688 5.81,-4.4531 9.86,-4.4531 3.25,0 5.95,0.9961 8.12,2.9882 2.2,2.0118 3.56,5.0586 4.16,9.2188 z m -78.04,11.2109 h 27.27 c -0.36,4.1016 -1.41,7.2071 -3.11,9.2383 -2.65,3.1836 -6.07,4.7852 -10.26,4.7852 -3.79,0 -7.01,-1.2696 -9.61,-3.8086 -2.58,-2.5391 -4.01,-5.9375 -4.29,-10.2149 z m 27.19,-13.3984 8.54,-1.0352 c -1.33,-5.0195 -3.83,-8.9062 -7.48,-11.6601 -3.66,-2.7539 -8.32,-4.1211 -13.99,-4.1211 -7.14,0 -12.81,2.1875 -17,6.582 -4.18,4.3946 -6.27,10.586 -6.27,18.5352 0,8.2226 2.12,14.5898 6.34,19.1211 4.24,4.5508 9.72,6.8164 16.47,6.8164 6.54,0 11.86,-2.2071 16.01,-6.6602 4.15,-4.4531 6.22,-10.7226 6.22,-18.7695 0,-0.5078 -0.01,-1.2305 -0.05,-2.2266 h -36.43 c 0.29,-5.3515 1.81,-9.4726 4.54,-12.3047 2.75,-2.8711 6.14,-4.2968 10.22,-4.2968 3.02,0 5.62,0.7812 7.76,2.3828 2.16,1.6015 3.86,4.1406 5.12,7.6367 z m -85.43,33.1445 h 8.28 V 47.2266 h 22.97 v 20.3515 h 8.26 V 18.7109 h -8.26 v 21.6602 h -22.97 V 18.7109 h -8.28 v 48.8672 z m -32.43,-26.7773 v 6.4648 c 3.49,0.0391 5.87,0.1758 7.16,0.4297 1.27,0.2344 2.45,0.9766 3.59,2.207 1.14,1.2305 1.7,2.754 1.7,4.5899 0,2.2656 -0.73,4.0625 -2.22,5.3711 -1.5,1.3281 -3.4,1.9922 -5.79,1.9922 -4.66,0 -7.92,-2.7344 -9.8,-8.2032 l -7.85,1.2696 c 2.44,9.1797 8.37,13.75 17.75,13.75 5.23,0 9.3,-1.4063 12.26,-4.2774 2.95,-2.832 4.45,-6.25 4.45,-10.1953 0,-4.0039 -1.94,-7.1679 -5.8,-9.5508 2.46,-1.3281 4.29,-3.0078 5.51,-5.0195 1.23,-2.0312 1.85,-4.4531 1.85,-7.2656 0,-4.375 -1.6,-7.9492 -4.81,-10.6641 -3.16,-2.7148 -7.64,-4.082 -13.36,-4.082 -11.13,0 -17.58,4.9414 -19.39,14.8437 l 7.78,1.6602 c 0.73,-3.125 2.14,-5.5469 4.32,-7.2461 2.16,-1.7383 4.64,-2.5781 7.42,-2.5781 2.78,0 5.12,0.7812 6.98,2.3437 1.85,1.5821 2.78,3.5938 2.78,6.0742 0,1.8946 -0.58,3.5352 -1.75,4.9415 -1.18,1.4257 -2.42,2.2851 -3.73,2.6562 -1.32,0.3516 -3.69,0.5078 -7.17,0.5078 -0.28,0 -0.92,0 -1.88,-0.0195 z m -63.45,26.7773 h 8.27 V 30.3125 l 22.96,37.2656 h 8.91 V 18.7109 h -8.27 v 37.0313 l -22.94,-37.0313 h -8.93 v 48.8672 z m -18.61,-24.2578 c 0,5.0977 -1.2,9.2578 -3.62,12.5195 -2.4,3.2422 -5.79,4.8829 -10.16,4.8829 -4.58,0 -8.106,-1.7383 -10.599,-5.1563 -2.48,-3.418 -3.742,-8.0273 -3.742,-13.75 0,-5.7031 1.391,-10.0195 4.133,-13.0078 2.734,-3.0273 6.118,-4.5117 10.138,-4.5117 4.1,0 7.45,1.7187 10,5.2148 2.59,3.4766 3.85,8.086 3.85,13.8086 z m 0.42,44.4531 7.3,-0.0781 c -0.32,-3.3008 -1.06,-5.5859 -2.19,-6.875 -1.11,-1.289 -2.55,-2.1289 -4.31,-2.4805 -1.77,-0.371 -5.22,-0.5468 -10.39,-0.5468 -6.84,0 -11.478,-0.6641 -13.966,-1.9922 -2.485,-1.3086 -4.282,-3.418 -5.364,-6.3281 -1.101,-2.9102 -1.699,-6.6211 -1.828,-11.1914 2.094,3.1054 4.531,5.4296 7.324,6.9726 2.778,1.543 5.954,2.3242 9.414,2.3242 6.43,0 11.73,-2.207 15.94,-6.6211 4.2,-4.3945 6.29,-10.3515 6.29,-17.8515 0,-5.7227 -1.05,-10.3907 -3.17,-14.043 -2.12,-3.6523 -4.61,-6.4648 -7.52,-8.4766 -2.89,-1.9921 -6.85,-2.9687 -11.83,-2.9687 -5.799,0 -10.335,1.3086 -13.538,3.9648 -3.23,2.6563 -5.691,6.0352 -7.398,10.1953 -1.738,4.1407 -2.59,11.3477 -2.59,21.6211 0,12.9102 2.18,21.6211 6.555,26.0938 4.363,4.4726 11.121,6.6992 20.171,6.6992 5.66,0 8.86,0.1172 9.61,0.293 0.78,0.1758 1.27,0.625 1.49,1.289 z M 898.496,25.5273 h 8.684 c 5.242,0 9.004,0.6446 11.238,1.9336 2.227,1.2696 3.352,3.3008 3.352,6.0157 0,2.1289 -0.832,4.0039 -2.485,5.6445 -1.668,1.6797 -5.308,2.5 -11.004,2.5 h -9.785 V 25.5273 Z m -8.293,42.0508 h 8.293 V 48.4766 h 10.488 c 6.836,0 12.121,-1.3477 15.813,-3.9844 3.687,-2.6563 5.523,-6.3086 5.523,-10.9766 0,-4.0625 -1.543,-7.5586 -4.605,-10.4492 -3.098,-2.9101 -8.027,-4.3555 -14.797,-4.3555 h -20.715 v 48.8672 z m 46.328,0 h 8.305 V 18.7109 h -8.305 v 48.8672 z m -100.359,0 h 8.301 V 25.5273 h 22.922 v 42.0508 h 8.269 V 25.5273 h 5.32 V 4.86328 h -6.796 V 18.7109 h -38.016 v 48.8672 z m -52.754,0 h 8.262 V 30.3125 l 22.968,37.2656 h 8.907 V 18.7109 h -8.274 V 55.7422 L 792.336,18.7109 h -8.918 v 48.8672 z m -52.012,0 h 8.301 V 47.2266 h 22.961 v 20.3515 h 8.27 V 18.7109 h -8.27 V 40.3711 H 739.707 V 18.7109 h -8.301 V 67.5781 Z M 710.168,43.2422 c -3.016,-1.2305 -7.527,-2.2852 -13.523,-3.1445 -3.407,-0.4688 -5.829,-1.0352 -7.227,-1.6602 -1.41,-0.6055 -2.516,-1.5039 -3.266,-2.6953 -0.769,-1.1719 -1.164,-2.4805 -1.164,-3.9258 0,-2.207 0.852,-4.043 2.516,-5.5273 1.66,-1.4649 4.113,-2.1875 7.324,-2.1875 3.195,0 6.039,0.6836 8.527,2.0898 2.473,1.4063 4.313,3.3203 5.473,5.7227 0.899,1.875 1.34,4.6289 1.34,8.2812 v 3.0469 z m 0.687,-18.4961 c -3.082,-2.6172 -6.031,-4.4531 -8.859,-5.5273 -2.848,-1.0743 -5.883,-1.6016 -9.137,-1.6016 -5.379,0 -9.484,1.2891 -12.379,3.9258 -2.867,2.6172 -4.32,5.9765 -4.32,10.039 0,2.4219 0.535,4.5899 1.637,6.5625 1.082,1.9922 2.512,3.5743 4.273,4.7852 1.77,1.1719 3.754,2.0898 5.965,2.6953 1.621,0.4297 4.074,0.8594 7.352,1.25 6.691,0.7813 11.621,1.7383 14.781,2.8516 0.023,1.1328 0.047,1.8554 0.047,2.1484 0,3.3789 -0.789,5.7617 -2.36,7.1289 -2.109,1.8945 -5.261,2.8125 -9.421,2.8125 -3.891,0 -6.77,-0.6641 -8.637,-2.0312 -1.848,-1.3672 -3.219,-3.7891 -4.113,-7.2461 l -8.09,1.1132 c 0.734,3.4375 1.949,6.25 3.629,8.3594 1.672,2.1485 4.129,3.7891 7.312,4.9414 3.188,1.1524 6.887,1.7188 11.09,1.7188 4.18,0 7.563,-0.4883 10.16,-1.4649 2.613,-0.9765 4.528,-2.2265 5.766,-3.7109 1.222,-1.4844 2.066,-3.3398 2.574,-5.6445 0.266,-1.4063 0.41,-3.9453 0.41,-7.6172 V 39.1992 c 0,-7.7148 0.176,-12.5976 0.528,-14.6094 0.351,-2.0507 1.054,-4.0039 2.097,-5.8789 h -8.664 c -0.84,1.6993 -1.402,3.711 -1.641,6.0352 z m -76.8,18.1055 c 0,-6.2696 1.273,-10.918 3.82,-13.9453 2.547,-2.9883 5.641,-4.4922 9.254,-4.4922 3.676,0 6.832,1.5429 9.453,4.6875 2.629,3.1054 3.941,7.9101 3.941,14.4336 0,6.25 -1.289,10.8984 -3.847,14.0234 -2.559,3.0859 -5.625,4.6484 -9.18,4.6484 -3.531,0 -6.652,-1.6601 -9.371,-4.9609 -2.715,-3.3008 -4.07,-8.1055 -4.07,-14.3945 z M 626.566,0 v 67.5781 h 7.536 v -6.3476 c 1.781,2.4804 3.785,4.3359 6.031,5.5859 2.23,1.25 4.949,1.8555 8.137,1.8555 4.175,0 7.859,-1.0742 11.039,-3.2031 3.207,-2.1485 5.609,-5.1954 7.23,-9.1016 1.625,-3.9063 2.449,-8.1836 2.449,-12.8516 0,-5 -0.898,-9.5117 -2.703,-13.5156 -1.793,-4.0039 -4.398,-7.0703 -7.824,-9.2187 -3.422,-2.0899 -7.016,-3.1641 -10.785,-3.1641 -2.77,0 -5.231,0.5664 -7.426,1.7383 -2.207,1.1523 -3.988,2.6367 -5.406,4.414 V 0 h -8.278 z m -34.332,67.5781 h 28.114 V 60.7227 H 600.531 V 18.7109 h -8.297 v 48.8672 z m -90.773,0 h 12.879 l 12.848,-39.1015 14.257,39.1015 h 11.914 V 18.7109 h -8.265 v 39.336 L 530.645,18.7109 H 523.23 L 509.566,59.9414 V 18.7109 h -8.105 V 67.5781 Z M 455.082,47.832 h 27.281 c -0.359,4.1016 -1.418,7.2071 -3.125,9.2383 -2.636,3.1836 -6.062,4.7852 -10.254,4.7852 -3.808,0 -7.004,-1.2696 -9.593,-3.8086 -2.594,-2.5391 -4.02,-5.9375 -4.309,-10.2149 z m 27.188,-13.3984 8.558,-1.0352 c -1.351,-5.0195 -3.851,-8.9062 -7.492,-11.6601 -3.652,-2.7539 -8.32,-4.1211 -13.996,-4.1211 -7.149,0 -12.813,2.1875 -16.985,6.582 -4.195,4.3946 -6.285,10.586 -6.285,18.5352 0,8.2226 2.121,14.5898 6.348,19.1211 4.23,4.5508 9.715,6.8164 16.469,6.8164 6.539,0 11.875,-2.2071 16.008,-6.6602 4.144,-4.4531 6.218,-10.7226 6.218,-18.7695 0,-0.5078 -0.023,-1.2305 -0.05,-2.2266 h -36.438 c 0.301,-5.3515 1.82,-9.4726 4.559,-12.3047 2.73,-2.8711 6.125,-4.2968 10.211,-4.2968 3.027,0 5.621,0.7812 7.769,2.3828 2.156,1.6015 3.848,4.1406 5.106,7.6367 z M 428.023,60.7227 H 416.25 c -4.937,0 -8.113,-0.7618 -9.555,-2.3047 -1.406,-1.543 -2.132,-3.3399 -2.132,-5.3711 0,-2.9297 1.05,-5.0586 3.152,-6.4258 2.109,-1.3867 5.808,-2.0703 11.156,-2.0703 h 9.152 v 16.1719 z m 8.247,6.8554 V 18.7109 h -8.247 v 19.043 h -4.769 c -2.918,0 -5.094,-0.3711 -6.516,-1.1328 -1.433,-0.7422 -3.508,-3.1641 -6.246,-7.2266 l -7.211,-10.6836 h -10.258 l 8.915,13.1641 c 2.73,4.0234 5.449,6.2695 8.152,6.7969 -4.731,0.6445 -8.227,2.3437 -10.52,5.1172 -2.281,2.7539 -3.425,5.9375 -3.425,9.5312 0,4.2383 1.488,7.6367 4.496,10.293 2.98,2.6367 7.312,3.9648 12.98,3.9648 H 436.27 Z M 353.945,42.8516 c 0,-6.2696 1.274,-10.918 3.813,-13.9453 2.547,-2.9883 5.64,-4.4922 9.254,-4.4922 3.676,0 6.832,1.5429 9.453,4.6875 2.629,3.1054 3.941,7.9101 3.941,14.4336 0,6.25 -1.285,10.8984 -3.843,14.0234 -2.563,3.0859 -5.622,4.6484 -9.165,4.6484 -3.55,0 -6.671,-1.6601 -9.386,-4.9609 -2.707,-3.3008 -4.067,-8.1055 -4.067,-14.3945 z M 346.461,0 v 67.5781 h 7.531 v -6.3476 c 1.774,2.4804 3.785,4.3359 6.031,5.5859 2.235,1.25 4.95,1.8555 8.141,1.8555 4.164,0 7.848,-1.0742 11.031,-3.2031 3.203,-2.1485 5.614,-5.1954 7.235,-9.1016 1.629,-3.9063 2.441,-8.1836 2.441,-12.8516 0,-5 -0.898,-9.5117 -2.703,-13.5156 -1.793,-4.0039 -4.391,-7.0703 -7.813,-9.2187 -3.421,-2.0899 -7.027,-3.1641 -10.796,-3.1641 -2.762,0 -5.231,0.5664 -7.426,1.7383 -2.203,1.1523 -3.988,2.6367 -5.406,4.414 V 0 h -8.266 z m -52.648,67.5781 h 8.273 V 30.3125 l 22.965,37.2656 h 8.918 V 18.7109 h -8.278 V 55.7422 L 302.73,18.7109 h -8.917 v 48.8672 z m -75.321,0 h 8.278 V 25.5664 h 18.875 v 42.0117 h 8.281 V 25.5664 h 18.91 v 42.0117 h 8.227 V 18.7109 h -62.571 v 48.8672 z m -15.504,-30.957 8.141,-1.0938 c -0.887,-5.5859 -3.156,-10 -6.832,-13.164 -3.66,-3.1836 -8.164,-4.7461 -13.512,-4.7461 -6.676,0 -12.058,2.168 -16.105,6.543 -4.071,4.3554 -6.117,10.625 -6.117,18.789 0,5.293 0.878,9.9024 2.628,13.8672 1.758,3.9453 4.414,6.9336 7.993,8.8867 3.558,1.9922 7.461,2.9688 11.652,2.9688 5.301,0 9.66,-1.3281 13.016,-4.0235 3.378,-2.6953 5.55,-6.5039 6.507,-11.4257 l -8.058,-1.25 c -0.778,3.2812 -2.113,5.7617 -4.071,7.4023 -1.941,1.6602 -4.304,2.4805 -7.058,2.4805 -4.184,0 -7.578,-1.4844 -10.188,-4.4922 -2.601,-2.9688 -3.91,-7.7149 -3.91,-14.1602 0,-6.582 1.262,-11.3476 3.789,-14.3359 2.512,-2.9688 5.797,-4.4531 9.84,-4.4531 3.258,0 5.961,0.9961 8.141,2.9882 2.179,2.0118 3.562,5.0586 4.144,9.2188 z m -53.093,6.6211 c -3.016,-1.2305 -7.528,-2.2852 -13.528,-3.1445 -3.406,-0.4688 -5.824,-1.0352 -7.222,-1.6602 -1.415,-0.6055 -2.52,-1.5039 -3.27,-2.6953 -0.77,-1.1719 -1.156,-2.4805 -1.156,-3.9258 0,-2.207 0.847,-4.043 2.511,-5.5273 1.661,-1.4649 4.122,-2.1875 7.333,-2.1875 3.187,0 6.035,0.6836 8.511,2.0898 2.485,1.4063 4.321,3.3203 5.481,5.7227 0.898,1.875 1.34,4.6289 1.34,8.2812 v 3.0469 z m 0.687,-18.4961 c -3.07,-2.6172 -6.027,-4.4531 -8.859,-5.5273 -2.844,-1.0743 -5.883,-1.6016 -9.141,-1.6016 -5.363,0 -9.477,1.2891 -12.371,3.9258 -2.875,2.6172 -4.32,5.9765 -4.32,10.039 0,2.4219 0.539,4.5899 1.632,6.5625 1.086,1.9922 2.516,3.5743 4.274,4.7852 1.773,1.1719 3.75,2.0898 5.969,2.6953 1.613,0.4297 4.066,0.8594 7.347,1.25 6.688,0.7813 11.625,1.7383 14.782,2.8516 0.023,1.1328 0.046,1.8554 0.046,2.1484 0,3.3789 -0.781,5.7617 -2.359,7.1289 -2.109,1.8945 -5.262,2.8125 -9.422,2.8125 -3.89,0 -6.769,-0.6641 -8.64,-2.0312 -1.844,-1.3672 -3.219,-3.7891 -4.11,-7.2461 l -8.082,1.1132 c 0.731,3.4375 1.945,6.25 3.617,8.3594 1.688,2.1485 4.137,3.7891 7.325,4.9414 3.179,1.1524 6.871,1.7188 11.082,1.7188 4.171,0 7.558,-0.4883 10.16,-1.4649 2.613,-0.9765 4.527,-2.2265 5.765,-3.7109 1.227,-1.4844 2.071,-3.3398 2.575,-5.6445 0.273,-1.4063 0.41,-3.9453 0.41,-7.6172 V 39.1992 c 0,-7.7148 0.172,-12.5976 0.531,-14.6094 0.352,-2.0507 1.055,-4.0039 2.09,-5.8789 h -8.653 c -0.847,1.6993 -1.414,3.711 -1.648,6.0352 z M 73.7852,42.8516 c 0,-6.2696 1.2773,-10.918 3.8164,-13.9453 2.5468,-2.9883 5.6406,-4.4922 9.2539,-4.4922 3.6758,0 6.832,1.5429 9.4531,4.6875 2.6211,3.1054 3.9414,7.9101 3.9414,14.4336 0,6.25 -1.293,10.8984 -3.8516,14.0234 -2.5546,3.0859 -5.6211,4.6484 -9.1679,4.6484 -3.5274,0 -6.6602,-1.6601 -9.375,-4.9609 -2.7188,-3.3008 -4.0703,-8.1055 -4.0703,-14.3945 z M 66.293,0 v 67.5781 h 7.539 v -6.3476 c 1.7774,2.4804 3.7852,4.3359 6.0352,5.5859 2.2226,1.25 4.9414,1.8555 8.1289,1.8555 4.1758,0 7.8516,-1.0742 11.043,-3.2031 3.2029,-2.1485 5.6059,-5.1954 7.2269,-9.1016 1.629,-3.9063 2.449,-8.1836 2.449,-12.8516 0,-5 -0.899,-9.5117 -2.703,-13.5156 -1.793,-4.0039 -4.403,-7.0703 -7.8245,-9.2187 -3.418,-2.0899 -7.0117,-3.1641 -10.7852,-3.1641 -2.7617,0 -5.2304,0.5664 -7.4335,1.7383 -2.1954,1.1523 -3.9844,2.6367 -5.3985,4.414 V 0 H 66.293 v 0"
         style="fill:#485683;fill-opacity:1;fill-rule:nonzero;stroke:none"
         id="path20" /></g></g></svg>
