<svg width="481" height="482" viewBox="0 0 481 482" fill="none" xmlns="http://www.w3.org/2000/svg">
<ellipse cx="172.151" cy="276.538" rx="73.2538" ry="73.886" fill="#D5E0EA"/>
<ellipse cx="433.14" cy="416.86" rx="47.8603" ry="48.2733" fill="#71BF45"/>
<path fill-rule="evenodd" clip-rule="evenodd" d="M233.476 394.744C197.686 458.635 119.632 483.484 60.5516 449.838C1.47146 416.192 -17.7723 335.931 18.0175 272.04C89.8219 312.941 161.671 353.842 233.476 394.744Z" fill="#71BF45"/>
<path fill-rule="evenodd" clip-rule="evenodd" d="M473.043 382.644C457.623 378.11 442.158 373.577 426.738 369.043C427.412 366.459 428.312 362.786 428.941 358.389C430.02 351.044 431.998 336.355 426.289 318.945C419.725 298.996 406.058 282.901 387.716 273.607C369.374 264.313 348.425 262.817 328.644 269.436C313.269 274.559 303.828 283.31 295.646 290.836C287.284 298.498 281.44 306.024 277.574 311.555C265.436 300.946 253.252 290.337 241.114 279.683C245.97 272.61 253.297 263.225 263.637 253.659C272.359 245.589 288.093 231.307 313.404 222.875C345.502 212.175 379.669 214.623 409.565 229.811C439.506 244.999 461.804 271.159 472.459 303.53C475.156 311.691 481.585 333.997 477.628 362.197C476.46 370.72 474.616 377.702 473.043 382.644Z" fill="#51668F"/>
<ellipse cx="212.849" cy="357.453" rx="22.2437" ry="22.4357" fill="#51668F"/>
<path fill-rule="evenodd" clip-rule="evenodd" d="M233.308 311.401V464.684H385.334V311.401H233.308Z" fill="#444C54"/>
<path fill-rule="evenodd" clip-rule="evenodd" d="M111.784 170.999C111.919 171.089 112.099 171.271 112.189 171.497C113.357 175.44 114.751 183.234 111.065 191.028C110.031 193.294 106.795 200.091 100.277 201.767C100.008 205.982 98.7492 210.377 96.1872 214.048C93.1757 218.352 88.6809 221.253 84.0963 222.748C84.2761 225.965 83.7367 229.273 82.2534 231.947C75.0168 245.088 58.8806 243.593 58.7008 243.593C58.2064 243.547 57.8468 243.139 57.9367 242.641C57.9816 242.188 58.3861 241.825 58.8806 241.871C59.0154 241.871 74.028 243.23 80.7252 231.086C81.9837 228.82 82.5231 226.056 82.3883 223.292C77.5788 224.47 72.9492 224.062 69.9827 222.023C69.2186 221.479 65.4879 218.67 65.5328 214.591C65.5328 214.455 65.6227 211.011 68.1848 209.244C71.421 207.024 76.0506 209.063 78.0283 210.422C78.0283 210.422 78.0283 210.422 78.0733 210.468C81.1747 212.643 83.1973 216.63 83.8715 220.935C88.0067 219.485 92.0071 216.812 94.7039 213.005C96.9963 209.788 98.12 205.846 98.4346 202.085C96.7715 202.266 94.2545 202.22 91.6924 200.952C88.3663 199.366 84.2311 195.242 85.2649 191.254C85.7144 189.442 87.2426 187.765 89.3102 186.768C91.243 185.862 93.3106 185.681 94.8837 186.315C96.7715 187.131 98.3897 189.351 99.3336 192.568C99.9628 194.653 100.322 197.145 100.277 199.864C105.626 198.097 108.368 192.433 109.402 190.212C112.863 183.007 111.514 175.666 110.436 171.95C110.301 171.497 110.571 170.999 111.02 170.863C111.29 170.772 111.604 170.863 111.784 170.999ZM98.4946 200.334C98.5845 197.702 98.2249 195.161 97.5956 193.073C96.7865 190.441 95.5278 188.58 94.1793 187.945C93.1005 187.491 91.5272 187.673 90.0438 188.353C88.4256 189.125 87.2119 190.441 86.8972 191.712C86.178 194.571 89.6393 197.975 92.3813 199.336C94.7637 200.607 97.0562 200.561 98.4946 200.334ZM82.0623 221.508C81.523 217.566 79.7256 213.85 76.9844 211.902C76.9844 211.902 76.9844 211.902 76.9395 211.856C75.0521 210.542 71.3224 209.137 69.1205 210.723C67.2331 211.992 67.2331 214.666 67.2331 214.666C67.2331 217.838 70.2439 220.194 70.8281 220.602C73.4793 222.415 77.7034 222.687 82.0623 221.508Z" fill="#D5E0EA"/>
<path fill-rule="evenodd" clip-rule="evenodd" d="M417.335 200.457C417.2 200.639 416.93 200.866 416.66 200.956C411.351 202.362 400.914 203.813 390.836 198.462C387.912 196.92 379.049 192.249 377.115 183.36C371.536 182.771 365.733 180.866 361.009 177.193C355.475 172.884 351.786 166.717 350.031 160.458C345.803 160.549 341.394 159.642 337.929 157.511C320.834 147.08 323.623 125.402 323.623 125.176C323.713 124.541 324.253 124.042 324.973 124.178C325.602 124.269 326.052 124.813 325.917 125.493C325.872 125.674 323.398 145.855 339.144 155.47C342.068 157.284 345.713 158.145 349.402 158.1C348.052 151.57 348.817 145.311 351.696 141.456C352.461 140.413 356.375 135.561 361.819 135.833C361.999 135.878 366.587 136.105 368.747 139.688C371.536 144.177 368.612 150.345 366.677 152.885C366.677 152.885 366.677 152.885 366.632 152.93C363.618 156.966 358.219 159.506 352.461 160.186C354.215 165.81 357.545 171.342 362.448 175.197C366.632 178.462 371.761 180.14 376.755 180.775C376.575 178.553 376.755 175.152 378.599 171.751C380.894 167.352 386.563 162 391.781 163.542C394.166 164.268 396.28 166.354 397.54 169.211C398.665 171.887 398.8 174.698 397.855 176.785C396.685 179.279 393.671 181.365 389.352 182.499C386.563 183.224 383.188 183.587 379.634 183.406C381.704 190.707 389.127 194.698 392.006 196.149C401.409 201.138 411.216 199.732 416.21 198.462C416.795 198.326 417.47 198.734 417.605 199.324C417.65 199.777 417.515 200.185 417.335 200.457ZM378.994 181.049C382.511 181.275 385.893 180.913 388.689 180.234C392.207 179.283 394.777 177.697 395.679 175.841C396.355 174.437 396.175 172.308 395.363 170.27C394.416 168.051 392.703 166.375 391.079 165.831C387.336 164.699 382.647 169.183 380.662 172.851C378.859 176.022 378.813 179.056 378.994 181.049ZM351.709 157.837C356.966 157.293 361.998 155.072 364.694 151.491C364.694 151.491 364.694 151.491 364.739 151.445C366.581 148.952 368.603 144.011 366.626 140.928C365.053 138.344 361.504 138.163 361.504 138.163C357.281 137.981 354.046 141.925 353.461 142.696C350.9 146.232 350.361 151.944 351.709 157.837Z" fill="#D5E0EA"/>
<path fill-rule="evenodd" clip-rule="evenodd" d="M231.237 32.4614C230.787 30.4193 229.485 26.6529 228.272 23.3857C228.092 22.9319 227.913 22.4781 227.733 22.0243C227.284 20.8445 226.834 19.7554 226.475 18.8932C226.43 18.9386 226.385 18.9839 226.34 19.0747C218.569 21.1621 210.798 23.2495 203.026 25.3369C203.116 29.2849 203.161 33.2328 203.251 37.2261C203.296 39.2681 203.341 41.2648 203.386 43.3068C203.431 45.122 203.476 46.8917 203.476 48.7069C203.476 48.843 203.476 49.0245 203.476 49.1606C203.476 49.0245 203.476 48.8884 203.476 48.7069C203.341 48.843 203.161 48.9791 202.981 49.1153L203.476 53.1539L204.464 61.549C211.427 67.1305 218.389 72.7574 225.352 78.3844C225.038 70.8969 224.723 63.4095 224.454 55.922C224.454 55.7859 224.454 55.6951 224.454 55.559C224.499 55.559 224.543 55.559 224.588 55.5136C226.116 55.1506 227.463 54.7422 228.766 53.6531C234.651 48.5707 232.09 36.5454 231.237 32.4614Z" fill="#FBC1B4"/>
<path fill-rule="evenodd" clip-rule="evenodd" d="M223.433 40.0356C223.342 40.0356 223.252 39.9905 223.207 39.9002C223.162 39.8099 223.207 39.6745 223.297 39.5843L228.215 37.2371L222.169 30.4666C222.079 30.3763 222.079 30.2409 222.169 30.1507C222.259 30.0604 222.395 30.0604 222.485 30.1507L228.802 37.192C228.847 37.2371 228.847 37.3274 228.847 37.3726C228.847 37.4628 228.802 37.508 228.712 37.5531L223.523 40.0356C223.523 39.9905 223.478 40.0356 223.433 40.0356Z" fill="#0E0F11"/>
<ellipse cx="217.809" cy="31.1233" rx="1.11497" ry="1.15271" fill="#0E0F11"/>
<ellipse cx="226.842" cy="28.8178" rx="1.11497" ry="1.15271" fill="#0E0F11"/>
<path fill-rule="evenodd" clip-rule="evenodd" d="M222.637 46.6707C221.69 46.6707 220.563 46.4056 219.255 45.6545C219.165 45.6103 219.12 45.4778 219.165 45.3452C219.21 45.2569 219.346 45.2127 219.481 45.2569C223.72 47.6868 225.884 44.6825 225.929 44.6825C226.019 44.5941 226.155 44.55 226.245 44.6383C226.335 44.7267 226.38 44.8592 226.29 44.9476C226.245 44.9918 225.027 46.6707 222.637 46.6707Z" fill="#0E0F11"/>
<path fill-rule="evenodd" clip-rule="evenodd" d="M226.422 18.9136C226.378 18.959 226.333 19.0044 226.288 19.0952C218.514 21.1831 210.74 23.271 202.965 25.3589C203.1 31.3503 203.19 37.3417 203.325 43.2877L202.202 43.1516L203.37 53.1372C200.943 51.1855 197.169 47.5089 194.338 41.8806C189.664 32.4851 190.833 23.7703 191.327 20.4569C192.36 13.5123 195.955 2.16497 202.516 0.349397C203.28 0.12245 205.437 -0.467611 207.055 0.712512C209.257 2.34653 208.807 6.02307 208.717 6.38618C211.369 1.25718 216.357 -0.104496 218.514 1.34796C220.356 2.57348 220.895 6.34079 219.322 10.0627C220.536 7.38475 222.828 5.79612 224.984 6.02307C226.962 6.25001 228.13 7.88403 228.265 8.11098C230.152 10.6982 229.388 15.0102 226.422 18.9136Z" fill="#0E0F11"/>
<path fill-rule="evenodd" clip-rule="evenodd" d="M204.157 38.0481C201.419 34.9187 196.75 34.6012 193.653 37.3678C192.352 38.547 191.499 40.089 191.229 41.6764C190.825 43.8533 191.409 46.1663 192.98 47.9351C195.538 50.8831 199.892 51.3366 202.99 49.0236C203.169 48.8876 203.349 48.7515 203.483 48.6154C206.536 45.9396 206.85 41.1775 204.157 38.0481Z" fill="#FBC1B4"/>
<path fill-rule="evenodd" clip-rule="evenodd" d="M202.188 45.265H202.143C201.245 45.0384 200.482 44.3586 200.212 43.407C199.988 42.5912 200.123 41.7302 200.616 41.0504L194.825 38.8298C194.691 38.7845 194.646 38.6486 194.691 38.5579C194.736 38.422 194.87 38.3766 194.96 38.422L201.065 40.7332C201.155 40.7785 201.2 40.8238 201.2 40.9145C201.2 41.0051 201.2 41.0504 201.155 41.1411C200.616 41.7302 200.392 42.5459 200.616 43.3163C200.841 44.0867 201.424 44.6759 202.188 44.8571C202.322 44.9025 202.367 44.9931 202.367 45.1291C202.367 45.2197 202.277 45.265 202.188 45.265Z" fill="#0E0F11"/>
<ellipse cx="215.108" cy="26.2593" rx="3.3728" ry="0.899678" transform="rotate(-21.9557 215.108 26.2593)" fill="#0E0F11"/>
<ellipse cx="226.312" cy="23.1104" rx="3.3728" ry="0.899678" transform="rotate(-6.70716 226.312 23.1104)" fill="#0E0F11"/>
<path fill-rule="evenodd" clip-rule="evenodd" d="M222.592 55.8927C221.156 55.8927 219.675 55.758 218.239 55.4886C215.816 55.0397 213.482 54.2316 211.283 53.1092C211.193 53.0643 211.149 52.9296 211.193 52.795C211.238 52.7052 211.373 52.6603 211.508 52.7052C213.662 53.8275 215.95 54.6356 218.329 55.0397C220.348 55.3988 222.367 55.4886 224.387 55.3539C224.521 55.3539 224.611 55.4437 224.611 55.5784C224.611 55.7131 224.521 55.8029 224.387 55.8029C223.848 55.8478 223.22 55.8927 222.592 55.8927Z" fill="#0E0F11"/>
<path fill-rule="evenodd" clip-rule="evenodd" d="M317.394 308.03C319.283 308.62 320.677 310.118 321.577 311.57C337.902 311.57 354.182 311.57 370.507 311.57C368.169 302.04 364.301 298.319 361.018 296.731C356.431 294.507 352.878 296.368 345.727 294.689C339.971 293.328 335.653 290.514 332.82 288.291C329.402 291.013 325.939 293.691 322.431 296.413C315.595 301.677 308.804 306.714 302.104 311.57C305.072 311.57 308.04 311.57 311.053 311.57C312.717 309.392 315.056 307.259 317.394 308.03Z" fill="#444C54"/>
<path fill-rule="evenodd" clip-rule="evenodd" d="M180.819 347.749C177.898 343.581 173.899 343.4 168.507 338.417C164.148 334.385 161.767 329.81 160.374 326.458C161.272 323.875 162.126 321.339 163.025 318.757C152.061 317.715 136.783 316.22 130.806 315.45C127.975 320.795 125.144 326.141 122.313 331.486C124.515 332.8 126.717 334.068 128.919 335.382C131.615 334.748 134.895 334.566 136.288 336.696C137.007 337.828 137.322 339.051 137.367 340.274C139.973 341.769 142.624 343.309 145.275 344.804C157.588 351.871 169.81 358.712 181.897 365.325C184.504 355.858 182.886 350.693 180.819 347.749Z" fill="#444C54"/>
<path fill-rule="evenodd" clip-rule="evenodd" d="M183.227 357.791C183.182 357.791 183.137 357.791 183.137 357.745L126.044 324.478C125.954 324.432 125.909 324.297 125.954 324.161C125.999 324.07 126.134 324.025 126.269 324.07L183.362 357.338C183.452 357.383 183.497 357.519 183.452 357.655C183.407 357.745 183.317 357.791 183.227 357.791Z" fill="#D5E0EA"/>
<path fill-rule="evenodd" clip-rule="evenodd" d="M368.332 305.272H311.026C310.891 305.272 310.801 305.182 310.801 305.047C310.801 304.912 310.891 304.822 311.026 304.822H368.332C368.466 304.822 368.556 304.912 368.556 305.047C368.556 305.182 368.466 305.272 368.332 305.272Z" fill="#D5E0EA"/>
<path fill-rule="evenodd" clip-rule="evenodd" d="M330.203 275.509C328.54 267.348 327.056 260.004 325.707 253.657C319.099 221.785 317.526 215.982 312.715 208.547C305.882 198.029 297.385 191.863 286.012 183.658C275.492 176.041 265.872 171.009 258.859 167.79C257.645 167.971 242 170.51 225.142 173.23C209.003 175.814 193.943 178.262 192.864 178.444C181.445 204.014 169.847 229.493 158.203 254.972C148.943 275.146 139.637 295.23 130.286 315.36C130.466 315.36 130.646 315.405 130.826 315.405C136.805 316.176 152.09 317.672 163.059 318.715C168.094 319.168 172.23 319.531 174.118 319.667C182.884 300.988 192.684 281.584 203.608 261.545C214.083 242.368 224.603 224.324 235.032 207.504C241.146 209.046 272.615 223.871 278.234 228.087C286.192 255.924 294.104 283.76 302.061 311.551C308.759 306.7 315.547 301.668 322.381 296.409C325.887 293.689 329.349 291.014 332.765 288.294C331.911 283.851 331.057 279.544 330.203 275.509Z" fill="#71BF45"/>
<path fill-rule="evenodd" clip-rule="evenodd" d="M316.752 300.83C316.662 300.83 316.572 300.784 316.527 300.648L290.428 214.971L234.95 207.672C234.815 207.672 234.726 207.536 234.77 207.4C234.77 207.264 234.905 207.173 235.04 207.219L290.652 214.563C290.742 214.563 290.832 214.653 290.832 214.699L316.976 300.558C317.021 300.694 316.931 300.784 316.841 300.83C316.796 300.83 316.796 300.83 316.752 300.83Z" fill="#D5E0EA"/>
<path fill-rule="evenodd" clip-rule="evenodd" d="M149.315 317.642C149.27 317.642 149.27 317.642 149.225 317.642C149.09 317.597 149.045 317.461 149.09 317.325L207.812 175.927C207.857 175.791 207.992 175.746 208.127 175.791C208.262 175.837 208.306 175.973 208.262 176.109L149.539 317.506C149.494 317.597 149.405 317.642 149.315 317.642Z" fill="#D5E0EA"/>
<ellipse cx="189.044" cy="68.2071" rx="1.56096" ry="1.57444" fill="#444C54"/>
<ellipse cx="203.372" cy="68.2071" rx="1.56096" ry="1.57444" fill="#444C54"/>
<ellipse cx="231.301" cy="68.2071" rx="1.56096" ry="1.57444" fill="#444C54"/>
<ellipse cx="246.076" cy="68.2071" rx="1.56096" ry="1.57444" fill="#444C54"/>
<path fill-rule="evenodd" clip-rule="evenodd" d="M304.012 69.2875C303.437 69.8713 302.507 69.8713 301.932 69.2875C301.622 68.9731 301.489 68.6139 301.489 68.2097C301.755 67.7606 301.976 67.3565 302.197 66.9074C302.773 66.5482 303.525 66.638 304.012 67.132C304.588 67.7606 304.588 68.7037 304.012 69.2875Z" fill="#444C54"/>
<ellipse cx="317.154" cy="68.2071" rx="1.56096" ry="1.57444" fill="#444C54"/>
<path fill-rule="evenodd" clip-rule="evenodd" d="M168.596 81.9315C168.026 82.5256 167.106 82.5256 166.536 81.9315C166.361 81.7487 166.273 81.5659 166.186 81.3831C166.843 80.7433 167.544 80.1035 168.245 79.5094C168.377 79.5551 168.508 79.6922 168.64 79.7836C169.166 80.3777 169.166 81.3374 168.596 81.9315Z" fill="#444C54"/>
<ellipse cx="181.796" cy="80.9149" rx="1.56096" ry="1.57444" fill="#444C54"/>
<ellipse cx="196.626" cy="80.9149" rx="1.56096" ry="1.57444" fill="#444C54"/>
<ellipse cx="211.065" cy="80.9149" rx="1.56096" ry="1.57444" fill="#444C54"/>
<ellipse cx="224.945" cy="80.9151" rx="1.56096" ry="1.57444" fill="#444C54"/>
<ellipse cx="239.328" cy="80.9151" rx="1.56096" ry="1.57444" fill="#444C54"/>
<ellipse cx="253.768" cy="80.9151" rx="1.56096" ry="1.57444" fill="#444C54"/>
<ellipse cx="296.414" cy="80.9149" rx="1.56096" ry="1.57444" fill="#444C54"/>
<ellipse cx="310.854" cy="80.9149" rx="1.56096" ry="1.57444" fill="#444C54"/>
<ellipse cx="160.667" cy="91.7674" rx="1.56096" ry="1.57444" fill="#444C54"/>
<ellipse cx="175.05" cy="91.7674" rx="1.56096" ry="1.57444" fill="#444C54"/>
<ellipse cx="189.434" cy="91.7674" rx="1.56096" ry="1.57444" fill="#444C54"/>
<ellipse cx="203.817" cy="91.7674" rx="1.56096" ry="1.57444" fill="#444C54"/>
<ellipse cx="217.809" cy="91.7674" rx="1.56096" ry="1.57444" fill="#444C54"/>
<ellipse cx="232.136" cy="91.7674" rx="1.56096" ry="1.57444" fill="#444C54"/>
<ellipse cx="246.578" cy="91.7674" rx="1.56096" ry="1.57444" fill="#444C54"/>
<ellipse cx="260.905" cy="91.7674" rx="1.56096" ry="1.57444" fill="#444C54"/>
<path fill-rule="evenodd" clip-rule="evenodd" d="M276.011 92.4761C275.966 92.521 275.966 92.521 275.922 92.566C275.343 93.1508 274.407 93.1508 273.828 92.566C273.293 92.0262 273.249 91.1715 273.694 90.5867C274.452 91.3065 275.254 91.9362 276.011 92.4761Z" fill="#444C54"/>
<ellipse cx="289.281" cy="91.7674" rx="1.56096" ry="1.57444" fill="#444C54"/>
<ellipse cx="303.606" cy="91.7674" rx="1.56096" ry="1.57444" fill="#444C54"/>
<path fill-rule="evenodd" clip-rule="evenodd" d="M316.708 90.3055C316.525 90.6771 316.343 91.0023 316.206 91.3739C316.206 91.0023 316.389 90.6771 316.662 90.3984C316.662 90.352 316.708 90.352 316.708 90.3055Z" fill="#444C54"/>
<ellipse cx="153.03" cy="104.025" rx="1.56096" ry="1.57444" fill="#444C54"/>
<ellipse cx="166.967" cy="104.025" rx="1.56096" ry="1.57444" fill="#444C54"/>
<ellipse cx="181.35" cy="104.025" rx="1.56096" ry="1.57444" fill="#444C54"/>
<ellipse cx="196.18" cy="104.025" rx="1.56096" ry="1.57444" fill="#444C54"/>
<ellipse cx="210.117" cy="104.025" rx="1.56096" ry="1.57444" fill="#444C54"/>
<ellipse cx="224.053" cy="104.026" rx="1.56096" ry="1.57444" fill="#444C54"/>
<ellipse cx="238.437" cy="104.026" rx="1.56096" ry="1.57444" fill="#444C54"/>
<ellipse cx="253.322" cy="104.026" rx="1.56096" ry="1.57444" fill="#444C54"/>
<ellipse cx="267.648" cy="104.026" rx="1.56096" ry="1.57444" fill="#444C54"/>
<ellipse cx="281.586" cy="104.026" rx="1.56096" ry="1.57444" fill="#444C54"/>
<ellipse cx="295.579" cy="104.025" rx="1.56096" ry="1.57444" fill="#444C54"/>
<path fill-rule="evenodd" clip-rule="evenodd" d="M310.241 102.615C309.743 103.441 309.246 104.268 308.748 105.094C308.25 104.497 308.296 103.579 308.839 103.028C309.246 102.615 309.789 102.478 310.241 102.615Z" fill="#444C54"/>
<ellipse cx="145.838" cy="114.934" rx="1.56096" ry="1.57444" fill="#444C54"/>
<ellipse cx="159.775" cy="114.934" rx="1.56096" ry="1.57444" fill="#444C54"/>
<ellipse cx="174.159" cy="114.934" rx="1.56096" ry="1.57444" fill="#444C54"/>
<ellipse cx="189.044" cy="114.934" rx="1.56096" ry="1.57444" fill="#444C54"/>
<ellipse cx="202.925" cy="114.934" rx="1.56096" ry="1.57444" fill="#444C54"/>
<ellipse cx="216.863" cy="114.934" rx="1.56096" ry="1.57444" fill="#444C54"/>
<ellipse cx="231.301" cy="114.934" rx="1.56096" ry="1.57444" fill="#444C54"/>
<ellipse cx="246.076" cy="114.934" rx="1.56096" ry="1.57444" fill="#444C54"/>
<path fill-rule="evenodd" clip-rule="evenodd" d="M261.382 115.553C260.588 114.873 259.837 114.194 259.175 113.56C259.749 112.971 260.676 113.016 261.25 113.56C261.78 114.149 261.824 114.964 261.382 115.553Z" fill="#444C54"/>
<ellipse cx="274.395" cy="114.934" rx="1.56096" ry="1.57444" fill="#444C54"/>
<ellipse cx="288.387" cy="114.934" rx="1.56096" ry="1.57444" fill="#444C54"/>
<path fill-rule="evenodd" clip-rule="evenodd" d="M302.827 113.135C302.326 113.712 301.78 114.289 301.233 114.822C301.142 114.378 301.324 113.889 301.643 113.534C301.962 113.268 302.371 113.135 302.827 113.135Z" fill="#444C54"/>
<ellipse cx="153.476" cy="127.586" rx="1.56096" ry="1.57444" fill="#444C54"/>
<ellipse cx="167.413" cy="127.586" rx="1.56096" ry="1.57444" fill="#444C54"/>
<ellipse cx="196.626" cy="127.586" rx="1.56096" ry="1.57444" fill="#444C54"/>
<ellipse cx="210.563" cy="127.586" rx="1.56096" ry="1.57444" fill="#444C54"/>
<ellipse cx="224.555" cy="127.586" rx="1.56096" ry="1.57444" fill="#444C54"/>
<ellipse cx="238.883" cy="127.586" rx="1.56096" ry="1.57444" fill="#444C54"/>
<ellipse cx="253.768" cy="127.586" rx="1.56096" ry="1.57444" fill="#444C54"/>
<ellipse cx="146.285" cy="138.045" rx="1.56096" ry="1.57444" fill="#444C54"/>
<ellipse cx="160.222" cy="138.045" rx="1.56096" ry="1.57444" fill="#444C54"/>
<ellipse cx="174.604" cy="138.045" rx="1.56096" ry="1.57444" fill="#444C54"/>
<ellipse cx="189.434" cy="138.045" rx="1.56096" ry="1.57444" fill="#444C54"/>
<ellipse cx="203.817" cy="138.045" rx="1.56096" ry="1.57444" fill="#444C54"/>
<ellipse cx="217.308" cy="138.045" rx="1.56096" ry="1.57444" fill="#444C54"/>
<ellipse cx="231.691" cy="138.045" rx="1.56096" ry="1.57444" fill="#444C54"/>
<ellipse cx="246.578" cy="138.045" rx="1.56096" ry="1.57444" fill="#444C54"/>
<ellipse cx="152.137" cy="150.247" rx="1.56096" ry="1.57444" fill="#444C54"/>
<ellipse cx="166.076" cy="150.247" rx="1.56096" ry="1.57444" fill="#444C54"/>
<ellipse cx="180.459" cy="150.247" rx="1.56096" ry="1.57444" fill="#444C54"/>
<ellipse cx="195.286" cy="150.247" rx="1.56096" ry="1.57444" fill="#444C54"/>
<ellipse cx="209.224" cy="150.247" rx="1.56096" ry="1.57444" fill="#444C54"/>
<ellipse cx="223.163" cy="150.247" rx="1.56096" ry="1.57444" fill="#444C54"/>
<ellipse cx="237.601" cy="150.247" rx="1.56096" ry="1.57444" fill="#444C54"/>
<ellipse cx="252.372" cy="150.247" rx="1.56096" ry="1.57444" fill="#444C54"/>
<ellipse cx="188.094" cy="160.705" rx="1.56096" ry="1.57444" fill="#444C54"/>
<ellipse cx="202.032" cy="160.705" rx="1.56096" ry="1.57444" fill="#444C54"/>
<ellipse cx="215.971" cy="160.705" rx="1.56096" ry="1.57444" fill="#444C54"/>
<ellipse cx="230.354" cy="160.705" rx="1.56096" ry="1.57444" fill="#444C54"/>
<ellipse cx="245.182" cy="160.705" rx="1.56096" ry="1.57444" fill="#444C54"/>
<ellipse cx="259.622" cy="160.705" rx="1.56096" ry="1.57444" fill="#444C54"/>
<path fill-rule="evenodd" clip-rule="evenodd" d="M181.859 174.466C181.679 174.648 181.409 174.784 181.184 174.875C181.229 173.919 181.319 172.963 181.364 172.008C181.544 172.099 181.724 172.19 181.859 172.372C182.445 172.872 182.445 173.874 181.859 174.466Z" fill="#444C54"/>
<ellipse cx="195.788" cy="173.413" rx="1.56096" ry="1.57444" fill="#444C54"/>
<ellipse cx="209.671" cy="173.413" rx="1.56096" ry="1.57444" fill="#444C54"/>
<path fill-rule="evenodd" clip-rule="evenodd" d="M225.169 173.253C224.193 173.389 223.217 173.57 222.24 173.751C222.152 173.253 222.285 172.755 222.64 172.393C223.217 171.804 224.148 171.804 224.725 172.393C224.991 172.619 225.124 172.936 225.169 173.253Z" fill="#444C54"/>
<path fill-rule="evenodd" clip-rule="evenodd" d="M225.379 78.441C225.334 78.441 225.289 78.441 225.244 78.3956L207.981 64.5706C207.891 64.48 207.846 64.344 207.936 64.2533C208.026 64.1627 208.161 64.1173 208.251 64.208L225.108 77.7157L224.567 64.3893C224.567 64.2533 224.658 64.1627 224.793 64.1627C224.928 64.1627 225.018 64.2533 225.018 64.3893L225.559 78.2143C225.559 78.305 225.514 78.3956 225.424 78.441C225.469 78.441 225.424 78.441 225.379 78.441Z" fill="#444C54"/>
<path fill-rule="evenodd" clip-rule="evenodd" d="M355.953 31.7875C349.479 31.8782 343.05 31.9689 336.576 32.0596C337.07 25.6653 337.52 19.271 338.014 12.8767C334.238 17.6384 330.461 22.4001 326.685 27.1165C321.694 22.9897 316.749 18.8629 311.759 14.736C313.197 18.9989 314.681 23.3071 316.12 27.57C316.524 28.7491 316.929 29.9735 317.333 31.1526C315.175 31.334 313.017 31.5607 310.814 31.7421C306.813 32.1049 302.812 32.4677 298.811 32.8305C301.553 34.3724 304.295 35.9143 307.038 37.4562C309.691 38.9527 312.388 40.4493 315.041 41.9458C312.388 45.3924 309.735 48.7936 307.083 52.2402C305.869 53.8274 304.61 55.4146 303.396 57.0472C304.565 56.8205 305.779 56.5937 306.948 56.367C312.253 55.3239 317.603 54.3262 322.908 53.2832C322.953 53.3286 322.953 53.3739 322.998 53.4193L323.178 53.7821C324.257 55.7321 325.336 57.6368 326.37 59.5868C328.034 62.6252 329.742 65.6637 331.406 68.6567C332.35 63.0787 333.294 57.5461 334.238 51.9681C340.172 53.2832 346.062 54.5983 351.997 55.9135C348.4 51.4239 344.758 46.9343 341.162 42.49C346.017 38.9074 350.963 35.3248 355.953 31.7875Z" fill="#51668F"/>
<path fill-rule="evenodd" clip-rule="evenodd" d="M230.408 97.1969C224.568 101.955 221.424 107.438 219.852 110.927C217.741 115.594 216.618 120.533 216.483 125.472C216.438 127.33 216.528 129.187 216.752 131.045C217.112 133.945 217.786 136.8 218.819 139.609C219.313 141.014 219.942 142.373 220.615 143.687C221.065 144.594 221.559 145.454 222.098 146.315C223.355 148.354 224.838 150.303 226.455 152.07C229.734 155.604 233.732 158.504 238.269 160.589C245.725 164.032 252.373 164.123 255.158 163.987C261.761 163.761 266.837 161.767 269.712 160.407C267.331 156.148 264.995 151.889 262.615 147.629C261.087 148.309 258.662 149.17 255.607 149.487C254.349 149.623 249.588 149.895 244.198 147.448C240.02 145.5 236.562 142.464 234.226 138.658C233.417 137.389 232.744 136.03 232.249 134.58C231.755 133.22 231.396 131.861 231.171 130.501C230.363 125.97 230.992 121.303 232.923 116.953C235.169 111.969 238.538 109.205 240.2 107.891C242.671 105.897 245.051 104.719 246.713 103.994C244.737 99.7344 242.76 95.5204 240.784 91.261C238.089 92.2579 234.271 94.0251 230.408 97.1969Z" fill="#444C54"/>
<path fill-rule="evenodd" clip-rule="evenodd" d="M208.276 127.83C208.591 129.417 208.951 131.004 209.266 132.591C210.659 138.984 212.188 145.15 213.852 151.09C215.605 150.863 236.558 148.324 238.401 145.875C239.255 144.742 239.165 143.699 239.165 143.699C239.165 143.654 238.986 142.611 238.176 141.976C237.277 141.341 236.288 141.568 236.153 141.568C237.007 141.296 237.861 141.069 238.671 140.797C240.199 140.435 241.144 138.893 240.829 137.397C240.559 136.173 239.48 135.357 238.266 135.311C239.705 134.858 240.604 133.407 240.289 131.956C239.975 130.46 238.446 129.553 236.917 129.961L231.342 131.367L233.365 130.732C234.849 130.233 235.703 128.646 235.299 127.195C234.849 125.744 233.32 124.928 231.792 125.427L229.364 126.198L216.639 130.278C216.459 128.646 216.415 127.014 216.459 125.427C214.841 125.79 213.087 126.243 211.289 126.787C210.255 127.15 209.221 127.467 208.276 127.83ZM218.423 140.237C218.378 140.237 218.289 140.282 218.245 140.327C218.245 140.282 218.2 140.237 218.2 140.237C218.289 140.237 218.334 140.237 218.423 140.237Z" fill="#FBC1B4"/>
<path fill-rule="evenodd" clip-rule="evenodd" d="M225.461 133.152C225.371 133.152 225.282 133.107 225.237 132.973C225.192 132.839 225.282 132.749 225.371 132.704L233.194 130.465C233.329 130.42 233.419 130.51 233.463 130.599C233.508 130.734 233.419 130.823 233.329 130.868L225.506 133.107C225.506 133.152 225.506 133.152 225.461 133.152Z" fill="#0E0F11"/>
<path fill-rule="evenodd" clip-rule="evenodd" d="M228.026 137.932C227.936 137.932 227.846 137.842 227.801 137.751C227.756 137.616 227.846 137.525 227.981 137.48L238.155 135.132C238.29 135.087 238.38 135.177 238.425 135.313C238.47 135.448 238.38 135.539 238.245 135.584L228.026 137.932C228.071 137.932 228.071 137.932 228.026 137.932Z" fill="#0E0F11"/>
<path fill-rule="evenodd" clip-rule="evenodd" d="M229.42 143.555C229.33 143.555 229.239 143.51 229.194 143.376C229.149 143.242 229.239 143.152 229.375 143.107L236.092 141.317C236.227 141.272 236.317 141.362 236.362 141.496C236.408 141.631 236.317 141.72 236.182 141.765L229.42 143.555Z" fill="#0E0F11"/>
<path fill-rule="evenodd" clip-rule="evenodd" d="M307.253 49.3798L307.118 37.676C307.118 37.676 307.118 37.676 307.118 37.6307V37.4492C309.761 38.9462 312.448 40.4432 315.09 41.9402C312.448 45.3878 309.805 48.7901 307.163 52.2377L307.253 49.3798Z" fill="#FBC1B4"/>
<path fill-rule="evenodd" clip-rule="evenodd" d="M317.321 31.1732C315.162 31.3568 313.003 31.5863 310.799 31.77L313.408 28.5104C313.993 27.8217 314.802 27.4545 315.657 27.5004C315.792 27.5004 315.972 27.5463 316.107 27.5463C316.512 28.7399 316.917 29.9795 317.321 31.1732Z" fill="#FBC1B4"/>
<path fill-rule="evenodd" clip-rule="evenodd" d="M331.411 49.4882C331.411 49.4882 324.946 64.5985 324.182 68.3194C321.309 66.7766 318.345 65.0977 315.292 63.328C312.373 61.6037 309.545 59.8794 306.896 58.1551L306.985 56.2946C312.284 55.251 317.627 54.2527 322.925 53.209C322.97 53.2544 322.97 53.2998 323.015 53.3452C323.06 53.4813 323.15 53.5721 323.195 53.7082L326.607 46.9925C327.281 45.6312 328.942 45.0867 330.289 45.8127C331.546 46.448 332.085 48.1269 331.411 49.4882Z" fill="#FBC1B4"/>
<path fill-rule="evenodd" clip-rule="evenodd" d="M322.035 56.0612C321.989 56.0612 321.944 56.0612 321.944 56.0157C321.854 55.9702 321.808 55.8338 321.854 55.6973L325.425 48.6915C325.47 48.6005 325.606 48.555 325.742 48.6005C325.832 48.646 325.877 48.7825 325.832 48.9189L322.261 55.9247C322.215 56.0157 322.125 56.0612 322.035 56.0612Z" fill="#0E0F11"/>
<path fill-rule="evenodd" clip-rule="evenodd" d="M432.911 265.477C432.552 265.432 432.192 265.658 432.147 266.066L427.115 299.478L363.131 289.64L368.163 256.229C368.208 255.866 367.983 255.503 367.579 255.458C367.22 255.413 366.86 255.639 366.815 256.047L361.648 290.093L336.531 456.379L334.329 470.932C334.284 471.294 334.509 471.657 334.913 471.702C334.958 471.702 335.003 471.702 335.003 471.702C335.317 471.702 335.632 471.476 335.677 471.113L337.789 457.241L401.773 467.078L399.661 480.951C399.616 481.313 399.841 481.676 400.245 481.721C400.29 481.721 400.335 481.721 400.335 481.721C400.65 481.721 400.964 481.495 401.009 481.132L433.495 266.202C433.54 265.885 433.271 265.568 432.911 265.477ZM426.923 300.826L420.855 341.034L356.847 331.197L362.915 290.989L426.923 300.826ZM414.555 382.588L350.548 372.751L356.616 332.543L420.624 342.38L414.555 382.588ZM408.313 424.142L344.305 414.305L350.373 374.097L414.381 383.934L408.313 424.142ZM338.004 455.915L344.073 415.707L408.081 425.544L402.012 465.752L338.004 455.915Z" fill="#D5E0EA"/>
</svg>
