<svg width="467" height="482" viewBox="0 0 467 482" fill="none" xmlns="http://www.w3.org/2000/svg">
<path fill-rule="evenodd" clip-rule="evenodd" d="M328.693 61.7737V154.377H456.832V61.7737H328.693Z" fill="white"/>
<path fill-rule="evenodd" clip-rule="evenodd" d="M456.923 154.97H328.78C328.358 154.97 327.988 154.597 327.988 154.172V61.5641C327.988 61.1384 328.358 60.7658 328.78 60.7658H456.923C457.345 60.7658 457.714 61.1384 457.714 61.5641V154.172C457.714 154.651 457.345 154.97 456.923 154.97ZM329.575 153.369H456.127V62.3664H329.575V153.369Z" fill="#66727E"/>
<path fill-rule="evenodd" clip-rule="evenodd" d="M423.915 98.0863C431.982 93.9304 442 97.1805 446.166 105.333C450.278 113.485 447.062 123.608 438.995 127.817C433.933 117.907 428.924 107.997 423.915 98.0863Z" fill="#51668F"/>
<path fill-rule="evenodd" clip-rule="evenodd" d="M342.389 98.4711V125.446H369.133V98.4711H342.389Z" fill="#71BF45"/>
<path fill-rule="evenodd" clip-rule="evenodd" d="M379.004 102.185C379.11 100.536 379.426 98.9405 380.006 97.3447L388.867 100.377C388.023 102.877 388.181 105.59 389.394 107.983C390.555 110.377 392.559 112.185 395.038 113.037C397.516 113.888 400.206 113.728 402.579 112.505C404.953 111.334 406.746 109.313 407.59 106.813L416.45 109.845C414.815 114.739 411.334 118.675 406.693 120.962C402.052 123.25 396.831 123.569 392.031 121.92C387.179 120.271 383.276 116.76 381.008 112.079C379.426 108.994 378.741 105.59 379.004 102.185Z" fill="#FBC1B4"/>
<ellipse cx="125.934" cy="23.3272" rx="20.3082" ry="20.483" transform="rotate(-80.7816 125.934 23.3272)" fill="#66727E"/>
<path fill-rule="evenodd" clip-rule="evenodd" d="M396.79 62.3666C396.368 62.3666 395.998 61.9941 395.998 61.5685V24.0046H144.682C144.26 24.0046 143.891 23.6321 143.891 23.2065C143.891 22.7808 144.26 22.4084 144.682 22.4084H396.79C397.212 22.4084 397.581 22.7808 397.581 23.2065V61.5685C397.581 61.9941 397.265 62.3666 396.79 62.3666Z" fill="#66727E"/>
<path fill-rule="evenodd" clip-rule="evenodd" d="M438.582 341.778H395.14C394.718 341.778 394.349 341.405 394.349 340.979C394.349 340.553 394.718 340.181 395.14 340.181H437.79V154.168C437.79 153.742 438.159 153.369 438.582 153.369C439.004 153.369 439.373 153.742 439.373 154.168V340.979C439.373 341.458 439.004 341.778 438.582 341.778Z" fill="#66727E"/>
<path fill-rule="evenodd" clip-rule="evenodd" d="M145.067 248.581V417.307H394.937V248.581H145.067Z" fill="white"/>
<path fill-rule="evenodd" clip-rule="evenodd" d="M395.145 418.137H145.271C144.849 418.137 144.479 417.764 144.479 417.338V248.609C144.479 248.183 144.849 247.81 145.271 247.81H395.145C395.567 247.81 395.937 248.183 395.937 248.609V417.338C395.937 417.764 395.567 418.137 395.145 418.137ZM146.067 416.536H394.35V249.411H146.067V416.536Z" fill="#66727E"/>
<path fill-rule="evenodd" clip-rule="evenodd" d="M394.851 276.445H145.271C144.849 276.445 144.479 276.072 144.479 275.645C144.479 275.218 144.849 274.845 145.271 274.845H394.851C395.273 274.845 395.643 275.218 395.643 275.645C395.643 276.072 395.326 276.445 394.851 276.445Z" fill="#66727E"/>
<path fill-rule="evenodd" clip-rule="evenodd" d="M180.129 270.161C175.811 270.161 172.282 266.602 172.282 262.246C172.282 257.891 175.811 254.332 180.129 254.332C184.448 254.332 187.976 257.891 187.976 262.246C187.976 266.602 184.448 270.161 180.129 270.161ZM180.13 255.933C176.71 255.933 173.87 258.745 173.87 262.246C173.87 265.748 176.658 268.56 180.13 268.56C183.549 268.56 186.39 265.748 186.39 262.246C186.39 258.745 183.602 255.933 180.13 255.933Z" fill="#66727E"/>
<path fill-rule="evenodd" clip-rule="evenodd" d="M203.524 270.161C199.205 270.161 195.677 266.602 195.677 262.246C195.677 257.891 199.205 254.332 203.524 254.332C207.842 254.332 211.371 257.891 211.371 262.246C211.371 266.602 207.842 270.161 203.524 270.161ZM203.524 255.933C200.104 255.933 197.264 258.745 197.264 262.246C197.264 265.748 200.052 268.56 203.524 268.56C206.943 268.56 209.784 265.748 209.784 262.246C209.784 258.745 206.943 255.933 203.524 255.933Z" fill="#66727E"/>
<path fill-rule="evenodd" clip-rule="evenodd" d="M395.143 418.196H279.743C279.584 418.196 279.426 418.143 279.268 418.036L260.324 404.675C249.349 396.957 238.426 389.185 227.451 381.467C227.187 381.254 227.082 380.934 227.134 380.615C227.24 380.296 227.504 380.03 227.82 380.03L292.143 372.524C283.172 353.148 274.255 333.772 265.285 314.396C265.126 314.076 265.232 313.704 265.496 313.438C265.759 313.171 266.182 313.171 266.445 313.384C280.851 323.658 295.256 333.878 309.661 344.152L321.375 352.456L329.765 290.335C329.818 290.016 330.082 289.697 330.399 289.643C330.715 289.59 331.085 289.75 331.243 290.069L358.312 342.661L394.457 288.951C394.668 288.685 395.038 288.526 395.354 288.632C395.671 288.739 395.935 289.058 395.935 289.377V417.291C395.935 417.823 395.565 418.196 395.143 418.196ZM279.99 416.595H394.348V292.037L358.885 344.682C358.727 344.895 358.463 345.054 358.199 345.054C357.935 345.054 357.671 344.895 357.566 344.628L331.021 293.049L322.788 353.997C322.736 354.263 322.577 354.529 322.313 354.636C322.05 354.742 321.786 354.742 321.522 354.582L308.751 345.48C295.135 335.792 281.52 326.158 267.957 316.47C276.665 335.26 285.372 354.05 294.027 372.84C294.133 373.053 294.133 373.319 294.027 373.586C293.922 373.798 293.658 373.958 293.447 374.011L230.119 381.357C240.516 388.703 250.912 396.049 261.308 403.341L279.99 416.595Z" fill="#66727E"/>
<path fill-rule="evenodd" clip-rule="evenodd" d="M156.794 270.161C152.476 270.161 148.947 266.602 148.947 262.246C148.947 257.891 152.476 254.332 156.794 254.332C161.113 254.332 164.641 257.891 164.641 262.246C164.641 266.602 161.113 270.161 156.794 270.161ZM156.793 255.933C153.374 255.933 150.533 258.745 150.533 262.246C150.533 265.748 153.321 268.56 156.793 268.56C160.265 268.56 163.053 265.748 163.053 262.246C163.053 258.745 160.265 255.933 156.793 255.933Z" fill="#66727E"/>
<path fill-rule="evenodd" clip-rule="evenodd" d="M379.75 481.216L378.537 480.152C382.335 475.734 387.874 468.495 390.775 461.203C387.083 460.511 383.232 458.861 381.544 455.455C380.331 452.953 380.014 449.068 382.282 446.407C384.551 443.692 388.876 442.894 391.514 444.65C394.099 446.407 394.204 450.079 394.257 451.836C394.362 454.444 393.835 457.158 392.885 459.873C394.257 460.032 395.523 460.032 396.631 459.979C404.86 459.447 410.979 453.06 414.724 447.844C418.786 442.149 421.687 435.442 423.481 429.534C420.79 429.428 418.364 428.736 416.254 427.458C414.724 426.553 409.713 423.147 409.502 417.399C409.449 416.174 409.607 412.023 412.878 409.521C416.306 406.913 421.212 407.658 423.903 409.894C425.274 411.011 426.224 412.608 426.698 414.631C427.437 417.505 427.015 422.402 425.538 427.884C427.226 427.778 428.597 427.458 429.336 427.245C447.588 422.934 465.364 382.695 465.575 382.269L467 382.908C466.947 383.015 462.41 393.34 455.658 404.039C446.48 418.569 437.723 426.873 429.705 428.789C428.123 429.161 426.54 429.374 425.116 429.481C423.27 435.868 420.105 442.947 415.99 448.749C410.346 456.626 403.699 461.044 396.736 461.523C395.523 461.629 393.993 461.576 392.305 461.363C389.404 469.134 383.654 476.639 379.75 481.216ZM388.209 445.349C386.516 445.349 384.664 446.093 383.5 447.474C381.702 449.6 381.966 452.735 382.971 454.754C384.4 457.57 387.891 459.058 391.383 459.696C392.282 457.039 392.811 454.435 392.759 451.938C392.706 450.344 392.6 447.315 390.695 446.04C390.008 445.561 389.108 445.349 388.209 445.349ZM418.015 409.541C416.538 409.541 415.112 409.914 413.846 410.873C411.154 412.899 411.101 416.417 411.101 417.43C411.259 422.334 415.693 425.372 417.065 426.172C419.388 427.558 421.816 427.984 423.927 428.038C425.405 422.44 425.88 417.59 425.194 415.138C425.035 414.498 424.56 412.632 422.924 411.246C421.763 410.18 419.916 409.541 418.015 409.541Z" fill="#C8CCD1"/>
<path fill-rule="evenodd" clip-rule="evenodd" d="M88.1578 204.414C85.5187 204.414 82.9324 203.988 80.5044 203.243C71.3204 200.262 67.1506 192.97 65.5672 190.256C65.4616 190.043 65.356 189.83 65.1977 189.617C63.5614 190.522 61.8196 191.107 60.1834 191.267C59.7611 191.32 59.3917 191.32 58.9694 191.32C50.5243 191.32 43.8738 181.58 40.6013 176.789C39.0178 174.501 36.7482 170.615 35.587 165.931C31.4172 166.464 27.5641 163.802 26.0335 162.684C20.5441 158.905 18.644 153.263 17.0077 148.367C15.2131 142.991 14.4214 137.296 14.6853 131.387C14.6853 131.068 14.9492 130.855 15.2131 130.908C15.5298 130.908 15.741 131.174 15.6882 131.441C15.4243 137.189 16.1632 142.778 17.905 148.047C19.5413 152.838 21.3359 158.267 26.5613 161.833C28.1447 162.951 31.5756 165.293 35.3231 164.867C34.9536 163.163 34.7953 161.354 34.848 159.491C34.9008 157.734 35.0064 153.583 37.751 151.933C38.2789 151.613 39.5984 150.921 41.0763 151.347C43.1348 151.933 43.8738 154.328 43.9793 154.807C45.035 158.533 41.8153 163.802 37.5399 165.399C37.2232 165.505 36.9065 165.612 36.6426 165.665C37.751 170.136 39.9679 173.915 41.4458 176.151C44.7711 180.994 51.6327 191.107 60.025 190.149C61.5557 189.99 63.192 189.457 64.6699 188.606C63.192 185.838 61.5029 181.899 63.0864 178.759C63.5087 177.96 64.6699 176.044 66.4644 175.991C68.3118 175.938 69.5786 177.907 69.8953 178.493C70.4759 179.504 71.0037 181.26 70.3175 183.709C69.6841 185.838 68.0479 187.701 66.095 189.031C66.2005 189.244 66.3589 189.457 66.4644 189.67C67.9951 192.331 72.0065 199.357 80.8211 202.178C84.252 203.296 87.9995 203.615 91.6942 203.083C92.0109 203.03 92.2748 203.243 92.2748 203.509C92.3276 203.775 92.1165 204.094 91.8526 204.094C90.5858 204.307 89.3718 204.414 88.1578 204.414ZM66.5602 177.083C66.5602 177.083 66.5073 177.083 66.5602 177.083C65.2372 177.137 64.2847 178.788 64.0201 179.268C62.6442 181.984 64.1789 185.554 65.5548 188.111C67.3011 186.939 68.7828 185.34 69.312 183.423C69.8941 181.292 69.4707 179.854 68.9944 179.001C68.8357 178.682 67.8302 177.083 66.5602 177.083ZM40.0838 152.302C39.2412 152.302 38.5566 152.674 38.2933 152.834C36.0817 154.217 35.9763 157.939 35.9237 159.535C35.871 161.289 36.029 163.044 36.3976 164.693C36.6609 164.64 36.9242 164.533 37.1875 164.427C40.979 162.991 43.8752 158.365 42.98 155.121C42.8747 154.748 42.2954 152.834 40.7683 152.409C40.505 152.355 40.2944 152.302 40.0838 152.302Z" fill="#C8CCD1"/>
<path fill-rule="evenodd" clip-rule="evenodd" d="M197.667 184.981C197.509 185.034 197.351 185.087 197.14 185.087C196.613 185.087 196.139 184.769 195.928 184.292L192.502 175.97C192.976 174.857 193.451 173.744 193.978 172.578L198.405 183.285C198.668 183.921 198.352 184.716 197.667 184.981Z" fill="#51668F"/>
<path fill-rule="evenodd" clip-rule="evenodd" d="M225.59 180.463C225.485 180.463 225.379 180.463 225.274 180.409L211.941 176.947C211.256 176.787 210.834 176.041 210.992 175.349C211.15 174.656 211.888 174.23 212.573 174.39L225.906 177.852C226.591 178.012 227.013 178.758 226.855 179.45C226.697 180.036 226.17 180.463 225.59 180.463Z" fill="#51668F"/>
<path fill-rule="evenodd" clip-rule="evenodd" d="M252.052 114.063C251.631 114.063 251.211 113.849 250.948 113.475C250.579 112.834 250.737 112.032 251.368 111.604L262.94 104.065C263.571 103.691 264.36 103.851 264.781 104.493C265.149 105.134 264.991 105.936 264.36 106.364L252.789 113.903C252.526 114.01 252.263 114.063 252.052 114.063Z" fill="#51668F"/>
<path fill-rule="evenodd" clip-rule="evenodd" d="M247.108 172.311C246.738 173.114 246.316 173.969 245.947 174.771L242.095 173.755C241.409 173.595 240.987 172.846 241.146 172.151C241.357 171.456 242.043 171.028 242.728 171.188L247.108 172.311Z" fill="#51668F"/>
<path fill-rule="evenodd" clip-rule="evenodd" d="M265.682 133.533C265.312 134.337 264.89 135.194 264.521 135.999L253.968 133.211C253.282 133.05 252.86 132.299 253.019 131.602C253.23 130.906 253.916 130.477 254.601 130.637L265.682 133.533Z" fill="#51668F"/>
<path fill-rule="evenodd" clip-rule="evenodd" d="M231.585 161.729C231.163 161.729 230.741 161.515 230.477 161.14C230.055 160.552 230.213 159.697 230.794 159.27L242.142 151.358C242.722 150.93 243.567 151.091 243.989 151.679C244.411 152.267 244.253 153.122 243.672 153.55L232.324 161.461C232.113 161.675 231.849 161.729 231.585 161.729Z" fill="#51668F"/>
<path fill-rule="evenodd" clip-rule="evenodd" d="M283.139 88.5993C280.498 91.3174 277.857 94.0889 275.216 96.8071C275.057 96.967 274.846 97.0736 274.635 97.1269C274.212 97.2335 273.684 97.1269 273.367 96.8071C272.839 96.2741 272.839 95.4214 273.367 94.9417L280.445 87.7998C280.815 87.8531 282.823 88.4394 283.139 88.5993Z" fill="#51668F"/>
<path fill-rule="evenodd" clip-rule="evenodd" d="M231.857 133.272C231.17 133.272 230.59 132.687 230.537 131.995L230.062 118.114C230.062 117.369 230.59 116.784 231.329 116.731C232.068 116.731 232.649 117.263 232.702 118.007L233.177 131.889C233.177 132.633 232.649 133.272 231.857 133.272C231.857 133.272 231.91 133.272 231.857 133.272Z" fill="#51668F"/>
<path fill-rule="evenodd" clip-rule="evenodd" d="M212.265 150.583C212.159 150.583 212.053 150.583 212 150.53C211.309 150.37 210.83 149.679 210.99 148.935L213.966 135.379C214.126 134.688 214.817 134.21 215.561 134.369C216.252 134.529 216.73 135.22 216.571 135.964L213.594 149.52C213.382 150.158 212.85 150.583 212.265 150.583Z" fill="#51668F"/>
<path fill-rule="evenodd" clip-rule="evenodd" d="M236.807 102.485C236.542 102.752 236.223 102.858 235.905 102.858C235.533 102.858 235.215 102.698 234.95 102.432L228.475 95.3927C228.899 94.5395 229.271 93.6863 229.695 92.7798L236.86 100.565C237.391 101.152 237.338 102.005 236.807 102.485Z" fill="#51668F"/>
<path fill-rule="evenodd" clip-rule="evenodd" d="M222.907 202.823L217.83 209.216C217.089 208.683 216.402 208.204 215.661 207.671L220.844 201.171C221.321 200.585 222.114 200.532 222.696 200.958C223.277 201.438 223.33 202.237 222.907 202.823Z" fill="#51668F"/>
<path fill-rule="evenodd" clip-rule="evenodd" d="M288.855 56.2887C285.213 52.774 279.406 52.9337 275.922 56.6615C275.922 56.6615 272.28 52.2414 279.67 38.0759C286.427 25.1885 267.37 24.9755 263.781 18.8513C261.3 19.9164 259.03 21.2477 257.077 22.6856C255.599 23.7507 252.273 26.0406 249.106 30.0879C248.155 31.3127 247.1 32.8038 246.097 34.5079C240.448 43.9338 235.328 59.0579 243.457 68.1643C245.094 69.975 247.152 71.4661 249.581 72.5844L247.152 81.7973C245.252 88.9333 249.528 96.3356 256.602 98.2527C263.675 100.17 271.013 95.8563 272.913 88.7203L277.4 71.6791C277.559 71.04 277.664 70.4543 277.77 69.8152C279.987 68.6436 282.046 67.3123 283.893 65.8212C284.896 64.9691 285.952 64.0105 286.955 62.9987C288.222 61.7206 289.436 60.2828 290.545 58.7384C290.175 57.7798 289.594 56.981 288.855 56.2887Z" fill="#FBC1B4"/>
<path fill-rule="evenodd" clip-rule="evenodd" d="M249.074 51.2802C249.021 51.2802 248.968 51.2802 248.916 51.2273L243.274 46.8825C243.222 46.8295 243.169 46.7236 243.169 46.6706C243.169 46.6176 243.222 46.5116 243.274 46.4586L254.557 38.8288C254.662 38.7229 254.821 38.7759 254.926 38.8818C255.032 38.9878 254.979 39.1467 254.873 39.2527L243.907 46.6706L249.285 50.7504C249.39 50.8564 249.443 51.0153 249.337 51.1213C249.232 51.2273 249.179 51.2802 249.074 51.2802Z" fill="#0E0F11"/>
<ellipse cx="251.191" cy="30.9159" rx="1.32253" ry="4.77246" transform="rotate(-65.97 251.191 30.9159)" fill="#0E0F11"/>
<ellipse cx="265.475" cy="37.4372" rx="1.32253" ry="5.30602" transform="rotate(-65.97 265.475 37.4372)" fill="#0E0F11"/>
<path fill-rule="evenodd" clip-rule="evenodd" d="M254.069 72.8601C252.489 72.8601 250.909 72.7012 249.33 72.4364C249.172 72.4364 249.067 72.2775 249.119 72.1186C249.172 71.9598 249.277 71.8538 249.435 71.9068C251.067 72.2246 252.7 72.3305 254.332 72.3305C257.754 72.2775 261.124 71.5891 264.389 70.2121C264.546 70.1591 264.652 70.2121 264.757 70.371C264.862 70.5299 264.757 70.6358 264.599 70.7417C261.282 72.1186 257.86 72.8601 254.332 72.8601C254.227 72.8601 254.174 72.8601 254.069 72.8601Z" fill="#0E0F11"/>
<path fill-rule="evenodd" clip-rule="evenodd" d="M291.575 61.7372C291.311 59.7131 290.361 57.7955 288.83 56.304C285.187 52.7884 279.379 52.9482 275.894 56.6769C272.41 60.3523 272.568 66.2117 276.264 69.674C279.907 73.1896 285.715 73.0298 289.146 69.3011C291.153 67.2237 291.945 64.4006 291.575 61.7372Z" fill="#FBC1B4"/>
<path fill-rule="evenodd" clip-rule="evenodd" d="M278.008 65.5679C277.903 65.5679 277.798 65.4614 277.745 65.3549C277.693 65.1951 277.798 65.0886 277.955 65.0353C278.901 64.8222 279.689 64.1298 279.951 63.2244C280.266 62.3189 280.056 61.2537 279.373 60.5613C279.321 60.508 279.268 60.4015 279.321 60.295C279.321 60.1884 279.426 60.1352 279.478 60.1352L287.042 57.5786C287.2 57.5253 287.305 57.6319 287.357 57.7384C287.41 57.8982 287.305 58.0047 287.2 58.0579L280.004 60.508C280.581 61.3602 280.739 62.4255 280.424 63.3842C280.109 64.5027 279.163 65.3549 278.008 65.5679C278.008 65.5679 278.06 65.5679 278.008 65.5679Z" fill="#0E0F11"/>
<path fill-rule="evenodd" clip-rule="evenodd" d="M298.103 22.8883C298.103 8.83 282.595 12.1316 282.595 12.1316C277.584 2.81262 265.505 7.49872 263.501 14.6876C262.71 14.5811 255.483 13.8356 250.103 19.3737C244.143 25.6041 245.989 33.9113 246.147 34.4438C247.15 32.793 248.152 31.302 249.154 30.024C252.319 25.9769 255.642 23.6871 257.119 22.6221C259.07 21.1843 261.338 19.853 263.817 18.788C267.404 24.9119 286.446 25.1249 279.694 38.0116C272.31 52.1764 275.949 56.5963 275.949 56.5963C279.43 52.922 285.18 52.7622 288.872 56.2235C289.61 56.9158 290.191 57.7146 290.665 58.5666C291.193 59.5251 291.509 60.5901 291.667 61.6552C306.067 56.4898 301.531 42.6445 301.531 42.6445C310.181 29.9175 298.103 22.8883 298.103 22.8883Z" fill="#0E0F11"/>
<ellipse cx="250.369" cy="36.5479" rx="1.32253" ry="1.33392" fill="#0E0F11"/>
<ellipse cx="261.949" cy="41.8836" rx="1.32253" ry="1.33392" fill="#0E0F11"/>
<path fill-rule="evenodd" clip-rule="evenodd" d="M252.894 59.9952C249.872 59.9952 247.539 57.368 247.539 57.368C247.432 57.2608 247.432 57.1 247.539 56.9927C247.645 56.8855 247.804 56.8855 247.91 56.9927C247.91 56.9927 248.917 58.1186 250.402 58.8692C252.364 59.8343 254.273 59.6199 256.023 58.3331C256.129 58.2259 256.288 58.2795 256.394 58.3867C256.5 58.4939 256.447 58.6548 256.341 58.762C255.175 59.6735 253.955 59.9952 252.894 59.9952Z" fill="#0E0F11"/>
<path fill-rule="evenodd" clip-rule="evenodd" d="M74.9439 368.709C74.5215 372.749 74.0991 376.79 73.6768 380.884C73.5712 381.682 73.5184 382.479 73.4128 383.277C72.4096 383.011 71.3009 382.692 70.1394 382.373C69.981 382.32 69.8226 382.267 69.6114 382.214C68.3443 381.895 67.0244 381.522 65.6517 381.15C65.4933 381.097 65.2821 381.044 65.1237 380.991C63.8566 380.618 62.5367 380.299 61.1639 379.927C61.0055 379.874 60.7944 379.821 60.636 379.768C59.7384 379.502 58.8409 379.289 57.9433 379.023C57.7321 378.97 57.521 378.917 57.3098 378.864C55.6731 378.439 54.0364 378.013 52.5053 377.588C52.3469 377.535 52.1357 377.481 51.9773 377.428C50.8158 377.109 49.707 376.843 48.6511 376.578C48.4927 376.524 48.3343 376.471 48.1231 376.471C46.7504 376.099 45.4305 375.78 44.2162 375.461C44.0578 375.408 43.8466 375.355 43.6882 375.355C43.213 375.248 42.7379 375.089 42.2627 374.983C42.7379 372.749 44.3218 364.242 45.4833 358.021C46.2225 358.287 46.9088 358.553 47.648 358.819C47.8592 358.872 48.0175 358.979 48.2287 359.032C49.8126 359.563 51.3437 360.148 52.9276 360.733C53.086 360.786 53.2444 360.839 53.4556 360.893C54.1948 361.158 54.8811 361.424 55.6203 361.69C55.8843 361.797 56.1482 361.903 56.4122 361.956C56.5706 362.009 56.7818 362.062 56.9402 362.169C58.2601 362.647 59.58 363.126 60.9 363.604C61.0583 363.657 61.2695 363.711 61.4279 363.817C62.6422 364.242 63.8566 364.721 65.1237 365.146C65.2821 365.199 65.4933 365.253 65.6517 365.359C66.7604 365.784 67.8691 366.156 68.9779 366.582C69.1362 366.635 69.2946 366.688 69.5058 366.741C70.7729 367.22 72.0929 367.698 73.36 368.124C73.5184 368.177 73.6768 368.23 73.888 368.283C74.2575 368.496 74.6271 368.602 74.9439 368.709Z" fill="#C8CCD1"/>
<path fill-rule="evenodd" clip-rule="evenodd" d="M201.554 367.103L198.597 368.327L198.069 368.54L194.477 370.031L193.949 370.244L191.044 371.415L190.569 371.628L187.928 372.745L187.4 372.958L184.496 374.129L184.02 374.342L178.422 376.631L177.947 376.844L174.408 378.335L173.933 378.548L172.454 379.186C171.556 377.643 170.658 376.152 169.813 374.608C170.817 373.81 171.768 372.958 172.771 372.16C172.929 372.053 173.035 371.894 173.194 371.787C173.88 371.202 174.619 370.616 175.306 370.031C175.464 369.924 175.57 369.818 175.729 369.711C176.521 369.073 177.26 368.434 178.052 367.795C178.211 367.689 178.369 367.529 178.475 367.422C179.584 366.517 180.64 365.613 181.749 364.708C181.908 364.601 182.066 364.441 182.172 364.335C183.439 363.324 184.654 362.259 185.922 361.248C186.08 361.141 186.186 361.035 186.344 360.928C187.242 360.183 188.14 359.438 189.037 358.693C189.196 358.586 189.354 358.426 189.513 358.32C190.728 357.309 191.942 356.297 193.157 355.286C193.315 355.179 193.474 355.02 193.632 354.86C193.896 354.647 194.16 354.381 194.477 354.168C196.748 358.32 199.178 362.685 201.554 367.103Z" fill="#C8CCD1"/>
<path fill-rule="evenodd" clip-rule="evenodd" d="M47.7375 366.634C47.4739 367.167 47.2103 367.539 46.9466 367.965C46.7357 368.284 46.5248 368.604 46.2612 369.029C45.154 370.892 44.4686 373.128 44.2577 375.629C44.0995 375.576 43.8886 375.523 43.7305 375.523C43.9941 372.968 44.6795 370.733 45.7867 368.817C46.0503 368.338 46.3139 368.018 46.4721 367.699C46.7357 367.326 46.9994 366.954 47.2103 366.475C48.212 364.399 48.3702 361.897 47.632 358.97C47.8429 359.023 48.0011 359.13 48.212 359.183C48.9501 362.004 48.792 364.505 47.7375 366.634Z" fill="#FBC1B4"/>
<path fill-rule="evenodd" clip-rule="evenodd" d="M53.4884 361.027C52.5361 362.461 51.9542 363.896 51.6368 365.384C51.531 365.862 51.531 366.341 51.4781 366.819C51.3723 367.775 51.3194 368.732 50.8433 370.167C50.5788 371.07 50.3143 371.601 50.0498 372.08C49.8911 372.452 49.6795 372.77 49.5208 373.302C49.0976 374.365 48.8331 375.534 48.7273 376.756C48.5686 376.703 48.4098 376.649 48.1982 376.649C48.304 375.374 48.5686 374.205 48.9918 373.142C49.2034 372.611 49.3621 372.239 49.5737 371.867C49.8382 371.336 50.0498 370.91 50.3672 370.007C50.7904 368.626 50.8962 367.722 51.002 366.766C51.0549 366.287 51.1078 365.809 51.2136 365.278C51.4781 363.79 52.1129 362.302 53.0652 360.867C53.171 360.867 53.3297 360.92 53.4884 361.027Z" fill="#FBC1B4"/>
<path fill-rule="evenodd" clip-rule="evenodd" d="M64.7778 370.72C64.5142 371.251 64.2505 371.623 63.9869 371.995C63.776 372.314 63.5651 372.632 63.3014 373.057C62.1414 375.023 61.456 377.36 61.2451 380.016C61.0869 379.963 60.876 379.91 60.7178 379.857C60.9287 377.148 61.6669 374.81 62.8269 372.792C63.0905 372.314 63.3542 371.995 63.5651 371.676C63.8287 371.304 64.0396 370.932 64.3033 370.454C65.0415 368.914 65.3051 367.161 65.1469 365.195C65.3051 365.248 65.516 365.301 65.6742 365.408C65.8324 367.426 65.516 369.179 64.7778 370.72Z" fill="#FBC1B4"/>
<path fill-rule="evenodd" clip-rule="evenodd" d="M69.534 366.818C69.1103 367.667 68.8454 368.569 68.6865 369.419C68.5805 369.896 68.5805 370.374 68.5275 370.852C68.4216 371.807 68.3686 372.763 67.8919 374.196C67.627 375.098 67.3621 375.629 67.0972 376.107C66.9383 376.478 66.7264 376.797 66.5675 377.327C66.0907 378.548 65.8259 379.822 65.7729 381.202C65.614 381.149 65.4021 381.096 65.2432 381.043C65.3491 379.61 65.614 378.283 66.0907 377.062C66.3026 376.531 66.4616 376.16 66.6735 375.788C66.9383 375.257 67.1502 374.78 67.4681 373.93C67.8919 372.603 67.9978 371.648 68.1037 370.693C68.1567 370.215 68.2097 369.737 68.2627 369.206C68.4216 368.304 68.7394 367.402 69.1103 366.499C69.1632 366.659 69.3221 366.765 69.534 366.818Z" fill="#FBC1B4"/>
<path fill-rule="evenodd" clip-rule="evenodd" d="M73.8843 368.372C73.5145 369.169 73.3032 369.965 73.1447 370.762C73.039 371.293 72.9862 371.718 72.9862 372.196C72.8805 373.152 72.7749 374.108 72.3523 375.542C72.0881 376.445 71.824 376.976 71.5599 377.454C71.4014 377.826 71.1901 378.145 71.0316 378.676C70.609 379.844 70.292 381.119 70.2392 382.447C70.0807 382.394 69.9222 382.341 69.7109 382.288C69.8166 380.907 70.0807 379.632 70.5562 378.464C70.7675 377.932 70.926 377.561 71.1373 377.189C71.4014 376.658 71.6127 376.18 71.9297 375.33C72.3523 374.002 72.4579 373.046 72.5636 372.09C72.6164 371.612 72.6692 371.134 72.7221 370.603C72.8805 369.753 73.1447 368.956 73.4616 368.159C73.5673 368.266 73.7258 368.319 73.8843 368.372Z" fill="#FBC1B4"/>
<path fill-rule="evenodd" clip-rule="evenodd" d="M59.6907 367.005C59.0586 368.867 59.1113 370.729 59.164 372.005C59.2166 373.282 59.322 374.133 59.48 374.824C59.638 375.835 59.7434 376.473 59.4273 377.378C59.164 378.069 58.6899 378.654 58.0578 379.186C57.8472 379.133 57.6365 379.08 57.4258 379.027C58.1632 378.495 58.6372 377.857 58.9006 377.165C59.2166 376.42 59.1113 375.835 58.9533 374.878C58.8479 374.186 58.6899 373.282 58.6372 371.952C58.5846 370.675 58.5319 368.76 59.2166 366.792C59.5853 365.675 60.1647 364.611 60.9548 363.654C61.1128 363.707 61.3235 363.76 61.4815 363.866C60.6915 364.877 60.0594 365.941 59.6907 367.005Z" fill="#FBC1B4"/>
<path fill-rule="evenodd" clip-rule="evenodd" d="M55.7395 368.097C56.0038 369.159 56.268 370.114 55.7395 371.282C55.3696 372.078 54.894 372.45 54.4184 372.821C54.0484 373.087 53.6256 373.405 53.2557 373.989C52.6215 374.944 52.4102 376.218 52.5687 377.704C52.4102 377.651 52.1988 377.598 52.0402 377.545C51.9345 375.953 52.1988 374.679 52.8329 373.67C53.2557 373.034 53.7313 372.662 54.1541 372.344C54.6297 372.025 54.9997 371.707 55.3168 371.017C55.7395 370.008 55.5281 369.159 55.2639 368.151C55.0525 367.354 54.8411 366.505 54.894 365.444C54.9997 364.276 55.5281 363.108 56.4266 361.994C56.5851 362.047 56.7965 362.1 56.955 362.206C56.0038 363.268 55.5281 364.382 55.4225 365.497C55.3168 366.505 55.5281 367.301 55.7395 368.097Z" fill="#FBC1B4"/>
<path fill-rule="evenodd" clip-rule="evenodd" d="M174.397 378.262L173.918 378.475C173.491 377.463 173.278 376.451 173.119 375.386C173.065 374.906 173.065 374.533 173.012 374.214C173.012 373.788 172.959 373.415 172.905 372.882C172.852 372.616 172.799 372.296 172.692 372.03C172.852 371.923 172.959 371.764 173.119 371.657C173.278 372.03 173.385 372.403 173.438 372.776C173.545 373.308 173.545 373.734 173.598 374.161C173.598 374.48 173.598 374.853 173.651 375.332C173.758 376.291 174.024 377.303 174.397 378.262Z" fill="#FBC1B4"/>
<path fill-rule="evenodd" clip-rule="evenodd" d="M178.452 376.601L177.976 376.815C177.818 376.44 177.659 376.065 177.553 375.69C177.394 375.208 177.341 374.833 177.289 374.458C177.183 373.975 177.13 373.493 176.812 372.743C176.389 371.565 175.913 370.868 175.49 370.225C175.384 370.118 175.331 370.011 175.278 369.904C175.437 369.797 175.543 369.689 175.702 369.582C175.807 369.689 175.86 369.85 175.966 369.957C176.442 370.654 176.918 371.35 177.394 372.582C177.659 373.386 177.765 373.922 177.87 374.404C177.923 374.779 177.976 375.101 178.135 375.583C178.135 375.904 178.294 376.279 178.452 376.601Z" fill="#FBC1B4"/>
<path fill-rule="evenodd" clip-rule="evenodd" d="M191.089 371.384L190.613 371.598C190.083 370.101 189.5 368.55 188.918 366.999C188.123 364.914 187.912 364.379 187.647 363.898C187.117 362.882 186.535 361.919 185.74 361.01C185.899 360.903 186.005 360.796 186.164 360.689C186.958 361.652 187.594 362.614 188.123 363.684C188.388 364.219 188.6 364.753 189.394 366.839C189.977 368.389 190.56 369.887 191.089 371.384Z" fill="#FBC1B4"/>
<path fill-rule="evenodd" clip-rule="evenodd" d="M194.44 369.962L193.914 370.175C193.176 369.216 192.702 368.151 192.597 367.033C192.544 366.341 192.597 365.755 192.702 365.223C192.807 364.53 192.913 363.945 192.597 363.199C192.281 362.4 191.806 362.081 191.227 361.708C190.806 361.442 190.331 361.122 189.91 360.643C189.383 360.057 189.067 359.365 188.856 358.513C189.014 358.406 189.173 358.247 189.331 358.14C189.489 358.992 189.857 359.738 190.331 360.323C190.7 360.749 191.122 361.069 191.543 361.335C192.175 361.761 192.755 362.134 193.123 363.093C193.492 363.945 193.387 364.69 193.282 365.382C193.229 365.915 193.123 366.394 193.176 367.086C193.282 368.045 193.703 369.057 194.44 369.962Z" fill="#FBC1B4"/>
<path fill-rule="evenodd" clip-rule="evenodd" d="M198.614 368.302L198.086 368.515C197.084 367.555 196.451 366.541 196.24 365.367C196.135 364.78 196.188 364.353 196.188 363.926C196.24 363.393 196.24 362.913 196.082 362.112C195.818 361.045 195.344 360.405 194.869 359.765C194.606 359.391 194.289 359.018 194.025 358.537C193.498 357.524 193.129 356.35 192.971 355.069C193.129 354.962 193.287 354.802 193.445 354.642C193.551 356.03 193.92 357.203 194.5 358.271C194.764 358.697 195.027 359.071 195.291 359.444C195.818 360.138 196.293 360.778 196.557 362.006C196.768 362.859 196.715 363.446 196.715 363.98C196.715 364.407 196.662 364.78 196.768 365.314C196.979 366.381 197.559 367.395 198.614 368.302Z" fill="#FBC1B4"/>
<path fill-rule="evenodd" clip-rule="evenodd" d="M187.915 372.747L187.387 372.961C187.387 372.587 187.387 372.212 187.281 371.891C187.07 371.196 186.7 370.928 186.066 370.393C185.59 370.019 184.956 369.484 184.216 368.681C183.476 367.879 182.313 366.595 181.732 364.883C181.679 364.776 181.679 364.669 181.626 364.562C181.785 364.455 181.943 364.294 182.049 364.187C182.102 364.348 182.154 364.508 182.207 364.669C182.789 366.327 183.899 367.504 184.586 368.307C185.326 369.109 185.907 369.591 186.383 369.965C187.07 370.5 187.545 370.875 187.81 371.731C187.862 372.052 187.915 372.373 187.915 372.747Z" fill="#FBC1B4"/>
<path fill-rule="evenodd" clip-rule="evenodd" d="M184.565 374.111L184.087 374.325C183.874 373.204 183.396 372.456 182.758 372.029C182.386 371.815 182.067 371.762 181.696 371.708C181.27 371.602 180.739 371.548 180.101 371.121C178.826 370.32 178.295 369.038 177.923 367.703C178.082 367.596 178.242 367.436 178.348 367.329C178.72 368.664 179.198 369.893 180.367 370.694C180.898 371.068 181.324 371.121 181.749 371.174C182.121 371.228 182.546 371.335 182.971 371.602C183.821 372.029 184.352 372.883 184.565 374.111Z" fill="#FBC1B4"/>
<path fill-rule="evenodd" clip-rule="evenodd" d="M73.4742 383.295C72.9465 388.303 72.4189 393.311 71.8912 398.265C66.2981 401.089 60.494 403.912 54.4788 406.682C45.1921 410.944 36.2221 414.673 27.5159 418.083L1.2917 429.164C0.975109 427.885 0.658519 426.287 0.447459 424.582C0.447459 424.582 0.289164 423.037 0.236399 421.652C0.183634 418.03 2.13594 412.862 3.29677 410.838C8.15114 402.154 30.4707 391.499 39.6518 379.3C40.5488 378.074 41.4458 376.743 42.2901 375.144C44.3479 372.001 48.1997 370.616 51.735 371.628C55.0592 372.587 57.4864 375.624 57.7502 379.14C63.0267 380.525 68.2504 381.91 73.4742 383.295Z" fill="#51668F"/>
<path fill-rule="evenodd" clip-rule="evenodd" d="M0.283644 422.287C0.178102 422.287 0.07256 422.233 0.0197891 422.127C-0.0329818 421.967 0.0197891 421.86 0.178102 421.754L72.4742 391.538C72.6326 391.484 72.7381 391.538 72.8436 391.698C72.9492 391.857 72.8436 391.964 72.6853 392.071L0.389185 422.287C0.336415 422.287 0.336415 422.287 0.283644 422.287Z" fill="#C8CCD1"/>
<path fill-rule="evenodd" clip-rule="evenodd" d="M37.5253 396.735C37.4723 396.735 37.4193 396.735 37.3663 396.682L29.2065 391.424C29.1005 391.37 29.0475 391.158 29.1535 391.052C29.2065 390.946 29.4184 390.892 29.5244 390.946L37.6843 396.204C37.7902 396.257 37.8432 396.469 37.7373 396.575C37.7373 396.735 37.6313 396.735 37.5253 396.735Z" fill="#C8CCD1"/>
<path fill-rule="evenodd" clip-rule="evenodd" d="M41.1554 392.526C41.1025 392.526 41.1025 392.526 41.0496 392.526L32.2137 388.749C32.055 388.696 32.0021 388.537 32.055 388.377C32.1079 388.218 32.2666 388.164 32.4254 388.218L41.2612 391.994C41.42 392.047 41.4729 392.206 41.42 392.366C41.3671 392.419 41.2612 392.526 41.1554 392.526Z" fill="#C8CCD1"/>
<path fill-rule="evenodd" clip-rule="evenodd" d="M210.077 382.68C206.911 388.321 203.481 394.176 199.734 400.083C193.93 409.344 188.02 417.859 182.268 425.629C172.506 429.301 162.744 433.027 152.982 436.752C152.718 435.262 152.507 433.08 152.771 430.472C153.193 426.321 154.67 423.234 155.567 421.584C160.95 411.313 166.068 408.545 170.448 399.232C171.82 396.251 173.931 391.515 173.72 385.554C173.614 383.212 173.192 381.03 172.506 379.008C172.928 376.4 174.775 374.218 177.202 373.419C180.527 372.302 183.271 374.271 183.534 374.484C189.603 371.982 195.671 369.481 201.687 367.033C201.739 367.139 201.95 367.565 202.056 367.672C204.694 372.728 207.385 377.73 210.077 382.68Z" fill="#51668F"/>
<path fill-rule="evenodd" clip-rule="evenodd" d="M152.757 430.83C152.651 430.83 152.545 430.776 152.492 430.67C152.44 430.51 152.492 430.404 152.651 430.35L177.791 420.604L206.892 376.986C206.998 376.879 207.156 376.826 207.262 376.932C207.368 377.039 207.42 377.199 207.315 377.305L178.161 420.977C178.108 421.03 178.108 421.083 178.055 421.083L152.862 430.883C152.809 430.83 152.757 430.83 152.757 430.83Z" fill="#C8CCD1"/>
<path fill-rule="evenodd" clip-rule="evenodd" d="M171.488 399.699C171.329 399.699 171.224 399.595 171.224 399.44C171.224 399.284 171.329 399.18 171.488 399.18L182.127 398.869C182.233 398.869 182.392 398.973 182.392 399.128C182.392 399.284 182.286 399.388 182.127 399.388L171.488 399.699Z" fill="#C8CCD1"/>
<path fill-rule="evenodd" clip-rule="evenodd" d="M172.972 396.557C172.866 396.557 172.76 396.45 172.707 396.342C172.654 396.181 172.76 396.074 172.919 396.02L183.295 393.607C183.454 393.553 183.56 393.66 183.613 393.821C183.665 393.982 183.56 394.089 183.401 394.143L173.025 396.557H172.972Z" fill="#C8CCD1"/>
<path fill-rule="evenodd" clip-rule="evenodd" d="M229.65 247.887C223.423 247.887 217.196 247.887 210.969 247.834C216.193 236.975 221.365 226.117 226.589 215.259C216.299 208.392 205.85 200.781 195.349 192.424C192.869 190.454 190.494 188.538 188.066 186.569C182.789 187.633 175.401 189.23 166.641 191.413C157.565 193.648 151.654 195.085 145.216 197.108C132.393 201.1 115.612 206.476 99.0415 219.73C97.8278 220.688 92.4451 225.052 86.4292 231.599C75.0307 244.002 66.1124 259.118 53.4473 296.75C48.2757 311.973 42.2071 331.827 36.5605 355.46C40.0434 356.525 43.0514 357.483 45.4789 358.228C46.5343 358.547 46.7981 358.654 47.0092 358.707C48.9618 359.346 50.4921 360.038 55.5581 361.848C61.9962 364.19 68.4343 366.532 74.8724 368.82C77.9331 369.938 81.0466 371.056 84.1073 372.174L88.0124 373.558C94.6615 345.613 101.363 317.722 108.013 289.777C111.97 300.263 118.303 311.068 126.113 323.683C139.728 345.666 152.393 364.456 163.264 379.839C165.164 378.242 167.063 376.698 168.963 375.101C169.227 374.888 169.491 374.675 169.702 374.463C177.882 367.649 186.061 360.783 194.293 353.97C199.359 349.765 204.425 345.507 209.491 341.302C190.758 317.828 171.971 294.355 153.237 270.881C180.203 262.259 201.681 255.978 216.299 251.826C221.682 250.336 226.009 249.111 229.65 247.887Z" fill="#71BF45"/>
<path fill-rule="evenodd" clip-rule="evenodd" d="M110.452 295.719C110.346 295.719 110.241 295.666 110.188 295.559C106.017 286.454 104.539 276.816 105.859 267.711C108.076 252.695 117.156 243.27 124.441 235.709C133.996 225.805 145.61 218.35 159.072 213.504C159.23 213.451 159.336 213.504 159.389 213.664C159.442 213.824 159.389 213.93 159.23 213.984C145.874 218.776 134.26 226.231 124.811 236.081C117.578 243.589 108.551 252.961 106.387 267.817C104.698 279.265 107.812 289.116 110.663 295.399C110.716 295.506 110.663 295.666 110.557 295.772C110.505 295.719 110.452 295.719 110.452 295.719Z" fill="#51668F"/>
<path fill-rule="evenodd" clip-rule="evenodd" d="M182.475 364.187C182.37 364.187 182.264 364.134 182.211 364.028L138.386 262.419C138.333 262.259 138.386 262.153 138.544 262.046L221.443 225.48C221.602 225.427 221.707 225.48 221.813 225.64C221.866 225.799 221.813 225.906 221.654 226.012L138.967 262.472L182.687 363.815C182.739 363.974 182.687 364.081 182.528 364.187C182.528 364.134 182.475 364.187 182.475 364.187Z" fill="#51668F"/>
<path fill-rule="evenodd" clip-rule="evenodd" d="M62.7141 364.602C62.6614 364.602 62.6086 364.602 62.6086 364.549C62.5031 364.496 62.4504 364.336 62.5031 364.177L105.601 278.529C105.654 278.423 105.812 278.369 105.97 278.423C106.076 278.476 106.129 278.635 106.076 278.795L62.9779 364.443C62.8724 364.549 62.8196 364.602 62.7141 364.602Z" fill="#51668F"/>
<path fill-rule="evenodd" clip-rule="evenodd" d="M352.928 182.192C319.745 117.969 309.089 105.093 294.634 95.1426C292.84 93.9188 290.044 92.0033 286.615 89.8749C271.896 120.576 257.177 151.331 242.459 182.032C237.183 193.047 231.908 204.061 226.632 215.075C221.409 225.93 216.239 236.784 211.017 247.639C217.242 247.639 223.467 247.692 229.692 247.692C232.171 247.692 234.651 247.692 237.078 247.692C246.468 247.692 255.859 247.692 265.249 247.639C273.954 215.235 282.658 182.831 291.31 150.426C309.616 178.521 327.922 206.562 346.228 234.656C356.41 233.006 366.592 231.304 376.774 229.654C371.34 218.534 363.163 202.039 352.928 182.192Z" fill="#51668F"/>
<path fill-rule="evenodd" clip-rule="evenodd" d="M235.412 79.9683C235.254 79.9683 235.148 80.0215 234.99 80.0215C234.832 80.0747 234.621 80.0747 234.41 80.128C233.777 80.2344 233.091 80.3409 232.299 80.5006C232.035 80.5538 231.772 80.607 231.508 80.6603C231.244 80.7135 230.927 80.7667 230.664 80.8732C199.218 88.0059 187.717 113.875 176.901 112.012C176.901 112.012 176.901 112.012 176.848 112.012C176.742 112.012 176.584 111.959 176.478 111.959C170.464 110.522 163.552 100.195 162.444 55.9086C162.444 55.9086 162.444 55.9086 162.391 55.9086C154.213 53.9924 146.036 52.1294 137.91 50.2131C137.91 50.2131 137.858 50.2131 137.805 50.2131C132.951 76.9342 134.534 98.3324 136.591 112.012C139.546 131.494 142.237 149.326 154.899 155.447C161.758 158.748 169.25 157.577 177.112 154.862C180.91 153.531 184.762 151.934 188.666 150.231C189.405 149.912 190.143 149.592 190.882 149.22C191.093 149.113 191.357 149.007 191.568 148.9C190.513 150.71 189.405 152.573 188.297 154.489C186.081 158.269 183.759 162.208 181.702 165.774C176.69 174.344 171.677 182.86 166.665 191.43C167.667 191.164 168.67 190.951 169.672 190.685C175.476 189.301 181.596 187.917 188.086 186.587C194.786 170.777 201.698 154.755 208.926 138.574C209.823 136.604 210.667 134.635 211.564 132.665C219.215 115.632 226.918 98.9179 234.621 82.5765L235.94 79.915C235.781 79.915 235.623 79.9683 235.412 79.9683Z" fill="#51668F"/>
<path fill-rule="evenodd" clip-rule="evenodd" d="M188.443 154.436C188.39 154.436 188.337 154.436 188.337 154.383C188.232 154.33 188.179 154.17 188.232 154.011L203.115 126.818C203.168 126.712 203.326 126.659 203.485 126.712C203.59 126.765 203.643 126.925 203.59 127.084L188.707 154.277C188.654 154.383 188.548 154.436 188.443 154.436Z" fill="#51668F"/>
<path fill-rule="evenodd" clip-rule="evenodd" d="M145.933 42.1992C144.776 42.5183 143.356 41.7207 142.62 40.2317C141.305 36.669 139.99 33.1062 138.728 29.4902C138.623 29.2244 138.465 28.9585 138.307 28.6926C140.2 31.0855 142.146 33.6911 144.092 36.4031C145.197 37.9984 146.301 39.5936 147.3 41.1357C147.09 41.508 146.617 41.9865 145.933 42.1992ZM162.104 34.9712C160.996 33.1612 158.623 31.7771 153.824 29.0622C149.816 26.7731 146.282 25.2293 143.804 24.2178C138.477 21.8223 133.151 19.4267 127.771 17.0844C126.084 16.3924 124.133 17.1909 123.447 18.8944C122.761 20.5979 123.552 22.5676 125.293 23.2596L134.944 27.2522C134.733 27.3054 134.469 27.3587 134.258 27.4119C132.465 28.1039 131.569 30.1269 132.254 31.9368C132.94 34.9712 133.784 38.1653 134.786 41.519C135.735 44.6067 136.737 47.4281 137.792 50.0898C137.792 50.0898 137.844 50.0898 137.897 50.0898C146.071 52.0062 154.246 53.8695 162.367 55.7859C162.473 54.7744 162.578 53.1774 162.684 51.261C163.58 37.7394 162.631 35.823 162.104 34.9712Z" fill="#FBC1B4"/>
<path fill-rule="evenodd" clip-rule="evenodd" d="M404.294 242.881C404.505 242.509 404.611 242.136 404.664 241.71C404.927 239.794 403.609 238.038 401.71 237.772H401.604C401.393 236.068 399.916 234.738 398.175 234.738H379.396L376.811 229.788L346.269 234.791C347.482 237.878 348.22 240.433 348.642 242.189C349.17 244.372 349.486 246.128 350.911 247.884C351.807 248.949 362.199 257.252 366.525 260.871C367.949 262.149 370.165 261.989 371.378 260.605C372.644 259.168 372.538 256.933 371.114 255.708L362.463 247.938C364.468 247.938 366.525 247.938 368.529 247.938L395.221 256.4C397.015 256.986 398.967 255.975 399.547 254.112C400.127 252.249 399.125 250.333 397.279 249.747L391.581 247.938L401.868 249.321C403.767 249.588 405.508 248.257 405.771 246.341C405.982 244.904 405.349 243.573 404.294 242.881Z" fill="#FBC1B4"/>
<path fill-rule="evenodd" clip-rule="evenodd" d="M391.65 248.166C391.597 248.166 391.597 248.166 391.544 248.166L382.714 245.17C382.555 245.117 382.502 244.956 382.555 244.849C382.608 244.689 382.766 244.635 382.872 244.689L391.703 247.685C391.861 247.738 391.914 247.899 391.861 248.006C391.861 248.113 391.755 248.166 391.65 248.166Z" fill="#0E0F11"/>
<path fill-rule="evenodd" clip-rule="evenodd" d="M404.247 243.186C404.247 243.186 404.194 243.186 404.247 243.186L383.465 240.055C383.307 240.055 383.201 239.896 383.254 239.737C383.254 239.577 383.412 239.471 383.57 239.524L404.352 242.656C404.511 242.656 404.616 242.815 404.563 242.974C404.458 243.08 404.352 243.186 404.247 243.186Z" fill="#0E0F11"/>
<path fill-rule="evenodd" clip-rule="evenodd" d="M401.551 238.028C401.551 238.028 401.498 238.028 401.551 238.028L384.209 236.846C384.051 236.846 383.945 236.685 383.945 236.578C383.945 236.417 384.103 236.309 384.209 236.309L401.551 237.491C401.709 237.491 401.814 237.652 401.814 237.76C401.761 237.921 401.656 238.028 401.551 238.028Z" fill="#0E0F11"/>
</svg>
