<svg width="417" height="487" viewBox="0 0 417 487" fill="none" xmlns="http://www.w3.org/2000/svg">
<ellipse cx="54.6693" cy="98.7052" rx="37.6966" ry="38.0223" fill="#D5E0EA"/>
<ellipse cx="355.031" cy="402.808" rx="12.1614" ry="12.2665" fill="#D5E0EA"/>
<path fill-rule="evenodd" clip-rule="evenodd" d="M363.864 113.194C354.881 117.119 344.804 115.463 339.523 108.533C334.242 101.542 335.335 91.3002 341.466 83.5729C339.523 81.0585 337.641 78.4827 335.699 75.9683C323.498 85.3514 321.131 103.259 330.479 115.586C339.766 127.913 357.491 130.305 369.692 120.86C367.689 118.223 365.746 115.709 363.864 113.194Z" fill="#D5E0EA"/>
<path fill-rule="evenodd" clip-rule="evenodd" d="M66.0631 374.033C66.0023 374.033 65.9415 374.033 65.8806 374.033C45.1351 371.705 29.2565 361.901 24.3287 348.422C23.0511 344.929 22.5644 341.559 22.5036 338.618C21.4085 338.434 20.5568 338.251 19.8876 338.067C12.8913 336.045 7.65927 331.878 4.31322 325.69C-4.26485 309.821 2.54893 286.293 2.85312 285.312C3.15731 284.332 4.13071 283.78 5.1041 284.087C6.0775 284.393 6.62504 285.374 6.32085 286.354C6.26001 286.599 -0.371258 309.453 7.47676 323.974C10.3361 329.244 14.8381 332.797 20.861 334.574C21.226 334.697 21.7735 334.819 22.5036 334.942C22.6861 332.307 23.0511 330.592 23.112 330.469C23.7203 328.018 27.0056 315.887 34.5494 315.458C37.4696 315.274 40.5114 316.989 41.9107 319.502C42.9449 321.34 43.1275 323.668 42.4582 326.241C41.3023 330.408 37.8954 334.636 34.0019 336.903C31.325 338.434 28.5873 338.925 26.1538 338.986C26.2755 341.498 26.7014 344.378 27.7356 347.257C32.1767 359.45 46.8994 368.335 66.2457 370.479C67.219 370.602 67.9491 371.521 67.8883 372.501C67.7666 373.298 66.9757 374.033 66.0631 374.033ZM35.0016 318.929C34.9406 318.929 34.8796 318.929 34.8186 318.929C30.9754 319.113 27.8641 326.355 26.7051 331.204C26.7051 331.265 26.339 332.738 26.217 335.132C28.1082 335.07 30.2433 334.702 32.2564 333.536C35.3676 331.818 38.1128 328.319 39.0279 325.128C39.3329 324.023 39.5769 322.427 38.8449 321.2C38.1128 319.85 36.4657 318.929 35.0016 318.929ZM332.604 312.815C331.996 312.815 331.327 312.508 331.023 311.895C330.354 310.731 330.719 310.056 334.064 303.742C336.618 299.021 340.875 290.99 344.403 282.53C337.895 280.568 335.219 275.786 334.125 272.476C331.084 263.219 335.341 251.877 340.936 248.567C344.159 246.666 347.626 247.402 350.423 250.528C355.897 256.72 353.829 268.184 349.511 279.649C351.092 279.771 352.856 279.71 354.741 279.465C368.425 277.871 375.236 264.077 378.094 256.046C378.581 254.636 379.067 253.165 379.493 251.632C378.885 251.571 378.277 251.509 377.608 251.325C369.458 249.241 366.296 238.574 365.992 230.052C365.749 221.837 368.12 212.641 374.08 210.741C376.635 209.944 379.067 210.557 380.952 212.58C386 217.852 387.156 232.75 384.237 247.157C390.318 244.766 399.805 236.428 413.428 212.703C413.914 211.844 415.07 211.538 415.921 212.028C416.773 212.519 417.077 213.684 416.59 214.542C407.468 230.481 394.879 248.444 383.324 251.264C382.777 253.287 382.169 255.31 381.5 257.272C376.087 272.537 366.722 281.733 355.106 283.082C352.43 283.388 350.119 283.388 348.051 283.143C344.585 291.542 340.267 299.696 337.226 305.336C335.949 307.665 334.672 310.118 334.368 310.915C334.368 311.528 334.003 312.141 333.456 312.447C333.213 312.754 332.909 312.815 332.604 312.815ZM344.483 251.215C343.754 251.215 343.208 251.461 342.722 251.768C338.409 254.289 335.129 264.002 337.559 271.38C338.895 275.376 341.689 278.019 345.759 279.187C349.768 268.613 352.076 258.039 347.703 253.059C346.488 251.645 345.394 251.215 344.483 251.215ZM376.142 214.148C375.837 214.148 375.471 214.209 375.105 214.332C371.631 215.434 369.315 222.049 369.558 230.012C369.802 237.791 372.606 246.366 378.397 247.836C378.946 247.959 379.555 248.082 380.287 248.082C381.506 242.508 382.176 236.689 382.115 231.237C382.054 223.642 380.591 217.701 378.214 215.251C377.605 214.516 376.934 214.148 376.142 214.148Z" fill="#D5E0EA"/>
<path fill-rule="evenodd" clip-rule="evenodd" d="M65.0137 115.252V282.55H296.649V115.252H65.0137Z" fill="white"/>
<path fill-rule="evenodd" clip-rule="evenodd" d="M296.721 283.773H65.2431C64.7567 283.773 64.3311 283.344 64.3311 282.853V115.56C64.3311 115.07 64.7567 114.64 65.2431 114.64H296.721C297.208 114.64 297.633 115.07 297.633 115.56V282.853C297.633 283.405 297.208 283.773 296.721 283.773ZM66.1501 281.939H295.967V116.475H66.1501V281.939Z" fill="#FBC1B4"/>
<path fill-rule="evenodd" clip-rule="evenodd" d="M296.57 143.988H65.0917C64.6053 143.988 64.1797 143.56 64.1797 143.071C64.1797 142.582 64.6053 142.154 65.0917 142.154H296.57C297.056 142.154 297.482 142.582 297.482 143.071C297.482 143.56 297.056 143.988 296.57 143.988Z" fill="#FBC1B4"/>
<path fill-rule="evenodd" clip-rule="evenodd" d="M82.7436 137.339C78.3791 137.339 74.8633 133.793 74.8633 129.391C74.8633 124.988 78.3791 121.442 82.7436 121.442C87.1081 121.442 90.6239 124.988 90.6239 129.391C90.6239 133.793 87.1081 137.339 82.7436 137.339ZM82.7439 123.276C79.4099 123.276 76.6821 126.028 76.6821 129.391C76.6821 132.753 79.4099 135.505 82.7439 135.505C86.0779 135.505 88.8056 132.753 88.8056 129.391C88.8056 126.028 86.0779 123.276 82.7439 123.276Z" fill="#FBC1B4"/>
<path fill-rule="evenodd" clip-rule="evenodd" d="M105.854 137.339C101.489 137.339 97.9736 133.793 97.9736 129.391C97.9736 124.988 101.489 121.442 105.854 121.442C110.218 121.442 113.734 124.988 113.734 129.391C113.734 133.793 110.218 137.339 105.854 137.339ZM105.854 123.276C102.52 123.276 99.7926 126.028 99.7926 129.391C99.7926 132.753 102.52 135.505 105.854 135.505C109.188 135.505 111.916 132.753 111.916 129.391C111.916 126.028 109.188 123.276 105.854 123.276Z" fill="#FBC1B4"/>
<path fill-rule="evenodd" clip-rule="evenodd" d="M129.04 137.339C124.676 137.339 121.16 133.793 121.16 129.391C121.16 124.988 124.676 121.442 129.04 121.442C133.405 121.442 136.921 124.988 136.921 129.391C136.921 133.793 133.405 137.339 129.04 137.339ZM129.04 123.276C125.706 123.276 122.978 126.028 122.978 129.391C122.978 132.753 125.706 135.505 129.04 135.505C132.374 135.505 135.102 132.753 135.102 129.391C135.102 126.028 132.374 123.276 129.04 123.276Z" fill="#FBC1B4"/>
<path fill-rule="evenodd" clip-rule="evenodd" d="M186.023 230.427C185.779 230.427 185.597 230.366 185.414 230.182C185.11 229.937 185.049 229.507 185.171 229.14L197.032 201.924C191.618 196.714 188.881 190.707 189.125 184.455C189.429 176.548 194.538 169.377 203.418 164.228C212.177 159.14 223.672 156.627 235.776 157.117C260.836 158.159 280.725 172.074 280.117 188.194C279.813 196.101 274.704 203.273 265.823 208.422C257.065 213.509 245.569 216.022 233.465 215.532C227.383 215.287 221.544 214.306 216.009 212.59L186.448 230.304C186.327 230.366 186.205 230.427 186.023 230.427ZM232.878 158.968C222.219 158.968 212.17 161.421 204.374 165.899C196.031 170.744 191.219 177.368 190.976 184.605C190.732 190.432 193.412 196.136 198.771 201.104C199.076 201.349 199.137 201.779 199.015 202.147L187.991 227.293L215.459 210.856C215.703 210.733 215.946 210.672 216.19 210.795C221.671 212.512 227.518 213.555 233.548 213.8C245.302 214.291 256.448 211.837 264.974 206.931C273.318 202.085 278.13 195.461 278.373 188.224C278.982 173.136 259.858 160.072 235.74 159.09C234.827 159.029 233.852 158.968 232.878 158.968Z" fill="#FBC1B4"/>
<path fill-rule="evenodd" clip-rule="evenodd" d="M168.593 228.244C168.471 230.512 167.741 237.072 162.69 242.836C159.526 246.392 156.057 248.17 153.927 249.028C154.231 249.825 154.475 250.622 154.718 251.419C156.848 259.451 155.022 267.237 149.972 271.284C145.225 275.085 139.018 274.411 137.07 274.166C135.732 274.043 126.725 273.001 121.735 265.582C119.301 261.965 118.692 258.041 118.51 256.999C118.206 254.975 118.388 253.933 118.449 250.99C118.571 246.453 118.388 243.204 118.023 237.808C117.962 237.195 117.962 236.582 117.901 235.908C117.962 235.908 118.023 235.846 118.023 235.846C123.987 232.965 126.543 225.914 124.048 219.844C126.421 215.43 125.812 208.624 125.326 200.96C124.717 190.844 124.413 185.755 125.447 184.713C129.646 180.299 138.835 187.717 150.884 183.855C155.753 182.322 159.221 179.502 161.23 177.54C162.021 179.379 162.568 181.218 163.055 182.996C167.863 199.918 168.471 220.457 168.593 228.244Z" fill="#FBC1B4"/>
<path fill-rule="evenodd" clip-rule="evenodd" d="M154.133 217.434C154.012 217.434 153.951 217.373 153.89 217.312C153.829 217.19 153.829 217.006 154.012 216.884L161.194 212.422L152.368 199.892C152.246 199.77 152.307 199.586 152.429 199.464C152.551 199.342 152.733 199.403 152.855 199.525L161.864 212.361C161.925 212.422 161.925 212.544 161.925 212.606C161.925 212.667 161.864 212.789 161.803 212.789L154.316 217.434C154.255 217.373 154.194 217.434 154.133 217.434Z" fill="#0E0F11"/>
<ellipse cx="159.954" cy="200.315" rx="1.81853" ry="1.83424" fill="#0E0F11"/>
<ellipse cx="139.875" cy="203.448" rx="1.81853" ry="1.83424" fill="#0E0F11"/>
<path fill-rule="evenodd" clip-rule="evenodd" d="M154.22 237.688C153.856 237.688 153.493 237.626 153.129 237.565C150.582 237.014 148.884 234.869 148.096 233.644C148.035 233.521 148.035 233.338 148.217 233.215C148.338 233.154 148.52 233.154 148.642 233.338C149.248 234.257 150.825 236.462 153.25 237.014C156.282 237.626 158.344 235.237 158.95 234.44C159.071 234.318 159.253 234.257 159.374 234.379C159.496 234.502 159.556 234.685 159.435 234.808C158.889 235.482 156.949 237.688 154.22 237.688Z" fill="#0E0F11"/>
<ellipse cx="160.485" cy="191.564" rx="6.06177" ry="1.56675" transform="rotate(-0.336156 160.485 191.564)" fill="#71BF45"/>
<ellipse cx="139.269" cy="196.608" rx="6.06177" ry="1.56675" transform="rotate(-27.6721 139.269 196.608)" fill="#71BF45"/>
<path fill-rule="evenodd" clip-rule="evenodd" d="M167.993 225.359C168.419 225.788 172.682 229.765 171.708 231.417C171.038 232.641 167.384 232.641 155.203 228.052C142.109 231.968 138.394 231.662 137.785 230.377C136.993 228.786 140.83 225.359 142.596 224.013C147.712 220.097 153.498 220.097 155.508 220.22C157.335 220.22 163.242 220.77 167.993 225.359Z" fill="#71BF45"/>
<path fill-rule="evenodd" clip-rule="evenodd" d="M146.171 250.451C138.675 250.451 132.932 246.934 130.152 244.811C130.031 244.69 129.97 244.508 130.091 244.387C130.212 244.266 130.394 244.205 130.514 244.326C133.295 246.449 139.038 249.966 146.594 249.844C148.951 249.784 151.369 249.42 153.666 248.632C153.848 248.571 153.969 248.692 154.029 248.813C154.09 248.995 153.969 249.117 153.848 249.177C151.49 249.966 149.072 250.329 146.594 250.39C146.473 250.451 146.292 250.451 146.171 250.451Z" fill="#0E0F11"/>
<path fill-rule="evenodd" clip-rule="evenodd" d="M155.336 167.117C150.598 162.336 145.071 161.233 142.58 160.743C132.254 158.659 120.044 162.581 112.148 170.671C98.4803 184.645 97.8121 210.875 109.718 220.436C111.662 221.968 113.727 222.949 115.792 223.561C116.096 223.684 116.4 223.745 116.703 223.807C118.404 224.236 120.044 224.419 121.441 224.542C121.441 224.542 123.75 220.313 124.053 219.823C126.422 215.41 125.815 208.608 125.329 200.947C124.721 190.835 124.418 185.748 125.45 184.706C129.642 180.293 138.814 187.709 150.841 183.848C155.701 182.316 159.163 179.497 161.168 177.535C160.621 175.268 159.163 170.978 155.336 167.117Z" fill="#71BF45"/>
<path fill-rule="evenodd" clip-rule="evenodd" d="M124.001 219.828C123.879 219.582 123.819 219.336 123.697 219.152C120.724 212.939 113.321 210.295 107.193 213.37C101.064 216.384 98.5154 223.888 101.489 230.1C104.462 236.251 111.744 238.895 117.872 235.943C117.933 235.943 117.993 235.881 117.993 235.881C123.94 232.991 126.489 225.917 124.001 219.828Z" fill="#FBC1B4"/>
<path fill-rule="evenodd" clip-rule="evenodd" d="M118.205 224.707C118.205 224.829 118.144 224.891 118.084 224.952C118.084 224.952 117.475 225.32 116.989 225.995C116.745 226.363 116.563 226.731 116.502 227.221C116.441 227.957 116.745 228.755 117.414 229.552C117.536 229.736 117.719 229.92 117.962 230.104C118.084 230.227 118.084 230.411 117.962 230.534C117.901 230.595 117.84 230.656 117.719 230.656C117.597 230.656 117.597 230.656 117.536 230.595C116.38 229.491 115.833 228.325 115.954 227.221C116.076 226.363 116.502 225.688 116.928 225.197C117.11 224.952 117.354 224.829 117.475 224.707L116.806 223.971L109.81 216.733C109.688 216.61 109.688 216.426 109.81 216.304C109.932 216.181 110.114 216.181 110.236 216.304L117.901 224.216L118.205 224.523C118.144 224.523 118.205 224.584 118.205 224.707Z" fill="#0E0F11"/>
<path fill-rule="evenodd" clip-rule="evenodd" d="M222.467 281.786C170.341 281.786 118.276 281.786 66.1494 281.786C66.1494 278.11 66.1494 274.495 66.1494 270.82C71.6236 267.144 78.4359 263.284 86.5255 259.792C98.6903 254.585 109.76 252.135 118.458 250.909C118.154 252.625 117.85 255.81 118.884 259.547C119.127 260.405 119.918 262.917 121.743 265.551C127.034 273.025 136.158 274.067 137.07 274.128C139.017 274.373 145.221 275.047 149.965 271.249C155.013 267.205 156.838 259.425 154.709 251.399C157.629 251.828 160.67 252.38 163.711 253.053C188.406 258.506 207.93 270.207 222.467 281.786Z" fill="#51668F"/>
<path fill-rule="evenodd" clip-rule="evenodd" d="M133.981 273.914H133.92C114.587 268.58 118.042 251.109 118.102 250.925C118.163 250.741 118.284 250.68 118.466 250.68C118.648 250.741 118.708 250.864 118.708 251.048C118.587 251.722 115.314 268.151 134.102 273.362C134.284 273.423 134.344 273.546 134.344 273.73C134.223 273.853 134.102 273.914 133.981 273.914Z" fill="#444C54"/>
<path fill-rule="evenodd" clip-rule="evenodd" d="M239.821 194.918C239.334 198.041 238.848 201.165 238.361 204.289C235.562 201.839 232.763 199.389 230.025 196.939C226.801 198.286 223.637 199.695 220.412 201.043C221.69 197.796 222.907 194.489 224.184 191.243C221.081 190.508 217.917 189.773 214.814 189.038C218.343 187.262 221.872 185.485 225.34 183.709C224.489 179.912 223.698 176.114 222.846 172.317C226.01 174.644 229.174 177.033 232.337 179.361C234.528 176.053 236.718 172.746 238.969 169.438C239.517 173.174 240.064 176.911 240.673 180.586C244.324 180.157 247.913 179.667 251.564 179.238C249.313 181.933 247.001 184.689 244.749 187.384C247.001 189.957 249.252 192.59 251.564 195.163C247.609 195.102 243.715 194.979 239.821 194.918Z" fill="#F56C4C"/>
<path fill-rule="evenodd" clip-rule="evenodd" d="M218.95 16.187C216.64 12.8765 211.961 6.31681 203.149 3.43543C195.978 1.10581 189.658 2.33193 186.68 3.12891C184.127 1.65757 179.326 -0.549443 173.553 0.124921C165.531 1.04451 160.548 6.80725 157.874 9.99516C144.686 25.6894 147.543 47.0852 148.09 50.7635C149.183 58.1815 151.432 64.0056 153.134 67.5613C176.349 66.0287 199.624 64.496 222.839 62.9634C223.994 59.4076 231.833 34.3336 218.95 16.187Z" fill="#0E0F11"/>
<path fill-rule="evenodd" clip-rule="evenodd" d="M170.979 42.1112C170.918 42.1112 170.857 42.1112 170.797 42.0499L150.705 29.064C150.583 29.0028 150.523 28.7577 150.583 28.6352C150.644 28.5127 150.887 28.4515 151.008 28.574L171.1 41.6211C171.222 41.6824 171.282 41.9274 171.222 42.0499C171.161 42.0499 171.1 42.1112 170.979 42.1112Z" fill="#0E0F11"/>
<path fill-rule="evenodd" clip-rule="evenodd" d="M205.192 43.0518C205.009 43.5421 204.827 44.0324 204.645 44.4614C203.307 47.832 201.302 50.8963 198.931 53.6541C197.898 60.8245 196.926 67.9949 195.892 75.1652C188.66 85.0322 181.427 94.8378 174.134 104.705C173.101 95.0216 172.128 85.3386 171.095 75.6555C171.095 75.6555 172.068 68.9754 172.554 65.666C170.305 65.4822 168.178 64.9306 166.294 63.8888C155.171 58.0667 151.16 36.862 157.542 22.1535C157.845 21.4181 158.21 20.6827 158.575 19.9473C160.094 20.0698 161.978 20.0698 164.045 19.5183C169.272 18.2313 172.25 14.6768 173.222 13.451C173.648 14.2478 174.681 16.2089 176.93 17.4346C180.637 19.457 184.405 17.9862 184.952 17.741C185.135 18.7216 185.925 21.9084 188.903 24.4211C192.367 27.3015 196.257 27.1789 197.108 27.1176C193.157 31.714 193.401 37.9038 196.561 41.0294C199.843 44.1549 204.766 43.1744 205.192 43.0518Z" fill="#FBC1B4"/>
<path fill-rule="evenodd" clip-rule="evenodd" d="M171.693 57.9315C169.986 57.9315 168.217 57.1921 166.937 55.8365C166.876 55.7748 166.815 55.6516 166.876 55.59C166.876 55.4667 166.937 55.4051 167.059 55.3435L177.364 50.1058C177.425 50.0442 177.547 50.0442 177.669 50.1058C177.73 50.1674 177.791 50.229 177.852 50.3523C178.279 53.5565 176.449 56.6991 173.583 57.6234C172.913 57.8083 172.303 57.9315 171.693 57.9315ZM167.684 55.652C169.26 57.0577 171.382 57.6077 173.261 56.9966C175.747 56.202 177.323 53.6352 177.141 50.8238L167.684 55.652Z" fill="#0E0F11"/>
<path fill-rule="evenodd" clip-rule="evenodd" d="M170.752 45.2447C170.691 45.2447 170.631 45.2447 170.631 45.1835L165.48 42.4922C165.359 42.431 165.298 42.2475 165.359 42.1252L170.267 27.5673C170.328 27.3838 170.509 27.3226 170.631 27.3838C170.812 27.4449 170.873 27.6284 170.812 27.7508L165.965 42.064L170.873 44.633C170.994 44.6942 171.055 44.8777 170.994 45.0612C170.994 45.1835 170.873 45.2447 170.752 45.2447Z" fill="#0E0F11"/>
<path fill-rule="evenodd" clip-rule="evenodd" d="M172.392 66.1855C171.904 66.1855 171.356 66.1855 170.868 66.1248C170.685 66.1248 170.563 66.0034 170.563 65.8212C170.563 65.639 170.685 65.5175 170.868 65.5175C173.489 65.639 176.17 65.4568 178.73 64.971C181.167 64.5459 183.544 63.8172 185.799 62.8455C185.982 62.7848 186.104 62.8455 186.225 63.0277C186.286 63.2099 186.225 63.3313 186.043 63.4528C183.727 64.4244 181.289 65.1532 178.852 65.639C176.719 66.0034 174.525 66.1855 172.392 66.1855Z" fill="#0E0F11"/>
<ellipse cx="159.539" cy="23.8451" rx="4.58421" ry="1.22283" transform="rotate(-7.41214 159.539 23.8451)" fill="#0E0F11"/>
<ellipse cx="182.687" cy="25.5647" rx="1.21235" ry="4.62382" transform="rotate(-71.0287 182.687 25.5647)" fill="#0E0F11"/>
<path fill-rule="evenodd" clip-rule="evenodd" d="M207.268 38.2938C205.015 37.3713 202.578 37.3713 200.446 38.2938C200.202 38.3553 200.02 38.4783 199.776 38.6013C197.949 39.5237 196.426 41.1227 195.573 43.2136C193.685 47.826 195.817 53.1148 200.385 55.0212C204.954 56.9276 210.192 54.7752 212.081 50.1629C213.969 45.489 211.837 40.2002 207.268 38.2938Z" fill="#FBC1B4"/>
<path fill-rule="evenodd" clip-rule="evenodd" d="M199.146 50.3652C199.024 50.3652 198.903 50.3034 198.842 50.1177C198.782 49.9321 198.903 49.8083 199.024 49.7464C199.267 49.6845 200.359 49.2513 200.784 48.1993C201.208 47.0235 200.662 45.5383 199.449 44.7338C199.328 44.6719 199.328 44.5481 199.328 44.4244C199.328 44.3006 199.388 44.2387 199.51 44.1768L207.093 40.8351C207.275 40.7732 207.396 40.8351 207.517 41.0207C207.578 41.2064 207.517 41.3302 207.335 41.4539L200.238 44.61C201.39 45.6002 201.875 47.1473 201.39 48.4468C200.905 49.7464 199.631 50.2415 199.267 50.3652C199.206 50.3652 199.146 50.3652 199.146 50.3652Z" fill="#0E0F11"/>
<ellipse cx="201.516" cy="54.8363" rx="3.37186" ry="3.40099" fill="#71BF45"/>
<ellipse cx="180.224" cy="34.0099" rx="8.82745" ry="8.86551" fill="#51668F"/>
<ellipse cx="158.326" cy="33.3985" rx="8.82745" ry="8.86551" fill="#51668F"/>
<path fill-rule="evenodd" clip-rule="evenodd" d="M173.576 31.1057C173.515 31.1057 173.454 31.1057 173.393 31.0442C172.66 30.3675 171.255 29.2603 169.361 29.2603C167.712 29.2603 166.124 30.183 165.574 30.4906C165.452 30.5521 165.33 30.6136 165.269 30.6751C165.147 30.7366 164.963 30.7366 164.841 30.5521C164.78 30.429 164.78 30.2445 164.963 30.1215C165.024 30.06 165.147 29.9984 165.33 29.9369C165.88 29.6294 167.651 28.6451 169.422 28.5836C171.499 28.5836 173.087 29.7524 173.881 30.4906C174.004 30.6136 174.004 30.7981 173.881 30.9212C173.759 31.0442 173.637 31.1057 173.576 31.1057Z" fill="#0E0F11"/>
<path fill-rule="evenodd" clip-rule="evenodd" d="M200.342 37.908C200.1 37.9691 199.919 38.0913 199.678 38.2134L188.269 30.7622C188.148 30.6401 188.088 30.4569 188.208 30.3347C188.269 30.2126 188.51 30.1515 188.631 30.2126L200.342 37.908Z" fill="#0E0F11"/>
<path fill-rule="evenodd" clip-rule="evenodd" d="M162.058 41.6527C161.996 41.6527 161.996 41.6527 162.058 41.6527C158.076 40.9193 155.932 39.6971 155.32 37.8637C154.83 36.4581 155.504 35.1136 156.116 33.8303C156.729 32.608 157.341 31.2636 156.974 29.9191C156.606 28.5135 155.32 27.2913 153.115 26.3135C152.931 26.2524 152.87 26.069 152.931 25.8857C152.992 25.7024 153.176 25.6412 153.36 25.7024C155.749 26.7413 157.157 28.0857 157.586 29.6747C158.015 31.2636 157.341 32.6692 156.667 34.0136C156.055 35.2359 155.504 36.397 155.871 37.5581C156.361 39.147 158.505 40.3082 162.119 40.9804C162.303 41.0415 162.425 41.1638 162.364 41.3471C162.303 41.5915 162.18 41.6527 162.058 41.6527Z" fill="white"/>
<path fill-rule="evenodd" clip-rule="evenodd" d="M184.643 42.3404C180.959 41.8496 178.845 40.8066 178.12 39.0886C177.577 37.7388 178.12 36.3276 178.603 34.9778C179.087 33.6894 179.63 32.3395 179.207 30.9897C178.724 29.5172 177.275 28.3515 174.859 27.5538C174.678 27.4925 174.618 27.3084 174.678 27.1857C174.738 27.0016 174.919 26.9403 175.04 27.0016C177.637 27.8606 179.268 29.1491 179.811 30.8057C180.355 32.4009 179.751 33.8121 179.207 35.2232C178.724 36.5117 178.241 37.6774 178.724 38.8432C179.328 40.3157 181.321 41.2974 184.703 41.7269C184.884 41.7269 185.005 41.9109 184.945 42.095C184.945 42.2177 184.824 42.3404 184.643 42.3404Z" fill="white"/>
<ellipse cx="184.203" cy="33.7043" rx="1.21235" ry="1.22283" fill="#0E0F11"/>
<ellipse cx="161.698" cy="32.4814" rx="1.21235" ry="1.22283" fill="#0E0F11"/>
<path fill-rule="evenodd" clip-rule="evenodd" d="M130.666 99.1297C130.548 102.761 130.43 108.054 130.253 114.64H130.842C131.019 107.685 131.196 102.207 131.314 98.5142C131.078 98.7604 130.901 98.945 130.666 99.1297ZM263.642 379.344C263.642 379.16 263.581 379.038 263.581 378.854L248.925 378.241C249.472 368.427 250.019 356.651 250.567 343.649L259.385 344.017C259.385 343.833 259.324 343.587 259.324 343.403L250.627 343.035C251.114 332.241 251.54 320.649 252.026 308.444L255.432 308.566C255.432 308.382 255.371 308.137 255.371 307.953L252.026 307.83C252.33 300.041 252.634 292.068 252.938 283.911V283.849H252.33C252.026 292.007 251.722 299.98 251.418 307.769L221.01 306.542C221.314 299.182 221.557 291.577 221.862 283.849H221.253C220.949 291.577 220.706 299.121 220.402 306.481L189.872 305.254C190.116 298.324 190.42 291.148 190.663 283.849H190.055C189.751 291.148 189.507 298.262 189.264 305.254L156.667 303.905C156.91 297.342 157.153 290.657 157.397 283.849H156.789C156.545 290.657 156.302 297.342 156.059 303.844L124.799 302.556C125.043 296.422 125.286 290.167 125.468 283.849H124.86C124.617 290.167 124.374 296.422 124.191 302.556L112.697 302.065C112.697 302.249 112.636 302.494 112.636 302.678L124.191 303.169C123.766 315.313 123.279 326.966 122.853 337.761L110.386 337.27C110.386 337.454 110.386 337.699 110.325 337.883L122.792 338.374C122.549 343.71 122.367 348.801 122.123 353.646C122.306 353.707 122.549 353.769 122.732 353.83C122.975 348.923 123.157 343.771 123.401 338.374L154.66 339.662C154.173 350.15 153.748 359.718 153.322 368.121C153.504 368.243 153.687 368.366 153.93 368.489C154.356 360.025 154.782 350.334 155.268 339.723L187.865 341.073C187.318 354.259 186.71 365.974 186.223 375.665L163.478 374.745C163.782 374.99 164.086 375.174 164.391 375.419L186.163 376.339C185.859 381.859 185.554 386.643 185.311 390.691C185.494 390.814 185.676 390.936 185.919 391.059C186.223 387.011 186.527 382.043 186.832 376.401L217.361 377.627C217.057 382.902 216.814 387.624 216.51 391.611C216.753 391.427 216.935 391.243 217.179 391.12C217.422 387.256 217.726 382.718 217.969 377.689L248.438 378.915C248.195 383.086 248.012 386.95 247.769 390.384C247.952 390.507 248.134 390.568 248.377 390.691C248.621 387.195 248.803 383.27 249.046 378.915L263.764 379.529C263.642 379.406 263.642 379.344 263.642 379.344ZM220.909 307.083L251.261 308.308C250.776 320.496 250.351 332.133 249.865 342.851L219.513 341.626C219.999 330.969 220.424 319.332 220.909 307.083ZM189.847 305.784L220.422 307.009C219.935 319.197 219.448 330.833 219.021 341.551L188.446 340.327C188.873 329.67 189.36 318.033 189.847 305.784ZM154.545 339.029L123.358 337.74C123.783 326.933 124.268 315.267 124.693 303.109L155.94 304.398C155.515 316.617 155.03 328.284 154.545 339.029ZM155.182 338.98C155.669 328.253 156.095 316.606 156.582 304.408L189.204 305.757C188.717 318.016 188.23 329.663 187.804 340.329L155.182 338.98ZM217.263 376.784L186.703 375.559C187.251 365.882 187.799 354.184 188.347 341.016L218.906 342.241C218.358 355.348 217.811 367.046 217.263 376.784ZM248.256 378.084L217.846 376.859C218.393 367.12 218.941 355.422 219.488 342.316L249.898 343.541C249.35 356.525 248.803 368.284 248.256 378.084ZM236.211 95.4058L228.005 95.0374C228.066 92.9497 228.126 90.9847 228.187 89.1426C228.005 89.0198 227.823 88.8356 227.579 88.7128C227.519 90.6777 227.458 92.7655 227.397 94.976L208.432 94.1777L196.883 93.6865C197.126 86.011 197.308 79.8093 197.43 75.3268C197.248 75.2654 197.005 75.204 196.822 75.204C196.701 79.6865 196.518 85.9496 196.275 93.6865L183.085 93.1339H182.72H182.355L181.93 93.7479H182.295H182.659L196.275 94.3006C196.214 97.2479 196.093 100.38 195.971 103.695C195.85 107.134 195.789 110.757 195.667 114.564H196.275C196.397 110.573 196.518 106.766 196.64 103.204C196.761 100.073 196.822 97.1251 196.883 94.3006L207.642 94.7304L227.397 95.5286C227.215 101.116 227.032 107.502 226.85 114.564H227.458C227.701 107.564 227.883 101.178 228.005 95.59L236.94 95.9585C236.758 95.8356 236.515 95.6514 236.211 95.4058ZM173.292 92.7465H172.988H172.685L163.641 92.3782C163.823 86.1186 163.944 81.1477 164.066 77.6496C163.884 77.711 163.641 77.7724 163.459 77.8951C163.337 81.3318 163.216 86.2413 163.034 92.3782L157.753 92.1941L139.847 91.4577C139.604 91.6418 139.362 91.8259 139.119 92.0714L157.996 92.8692L163.034 93.0533C162.913 96.6127 162.791 100.54 162.67 104.898C162.548 108.027 162.488 111.28 162.366 114.717H162.973C163.095 111.832 163.155 109.009 163.216 106.37C163.337 101.522 163.52 97.0423 163.58 93.1147L172.685 93.4829H172.988H173.292V92.7465Z" fill="#F714FF"/>
<path fill-rule="evenodd" clip-rule="evenodd" d="M221.179 84.7026C212.658 91.2087 204.137 97.7148 195.616 104.221C191.051 107.72 186.486 111.218 181.921 114.717C176.869 114.717 171.757 114.717 166.705 114.717C165.122 110.85 163.601 106.922 162.079 102.993C159.34 96.0576 156.662 89.1832 154.045 82.3088C159.584 79.3627 165.366 77.0303 171.391 75.6186C172.426 85.3164 173.4 95.0142 174.435 104.712C181.678 94.83 188.921 85.0095 196.224 75.1276C197.016 75.3117 197.868 75.4958 198.659 75.68C206.693 77.5213 214.301 80.713 221.179 84.7026Z" fill="#51668F"/>
<path fill-rule="evenodd" clip-rule="evenodd" d="M193.537 79.1681L183.129 93.2806L182.703 93.8915L174.547 104.888C174.486 104.949 174.425 105.01 174.304 105.01H174.243C174.121 105.01 174.06 104.888 173.999 104.766L172.782 93.5249L172.721 92.914L171.321 79.7179C171.321 79.5346 171.443 79.4125 171.565 79.4125C171.747 79.4125 171.869 79.5346 171.869 79.7179L173.269 92.9751L173.33 93.586L174.425 103.972L181.851 93.9526L182.277 93.3417L192.929 78.9237C193.05 78.8015 193.233 78.7404 193.355 78.8626C193.598 78.8626 193.659 79.0459 193.537 79.1681Z" fill="#444C54"/>
<path fill-rule="evenodd" clip-rule="evenodd" d="M268.157 417.829C268.036 417.829 267.914 417.829 267.793 417.829L233.171 419.613C232.928 419.613 232.685 419.675 232.502 419.736C229.587 410.878 226.854 401.59 224.303 391.871C223.938 390.395 223.513 388.857 223.148 387.381C224.12 387.074 225.153 386.766 226.368 386.52C241.614 383.567 256.434 394.578 266.517 404.235C267.003 408.295 267.55 412.847 268.157 417.829Z" fill="#FBC1B4"/>
<path fill-rule="evenodd" clip-rule="evenodd" d="M151.847 367.226C147.291 390.312 144.497 405.6 142.614 415.915C142.31 415.792 141.946 415.731 141.642 415.731L107.02 414.318C106.959 414.318 106.899 414.318 106.838 414.318C107.324 399.706 108.356 377.664 109.571 350.035C116.192 351.631 126.943 354.64 139.334 360.534C143.829 362.621 147.959 364.893 151.847 367.226Z" fill="#FBC1B4"/>
<path fill-rule="evenodd" clip-rule="evenodd" d="M140.239 429.901C140.117 430.64 139.996 431.317 139.875 432.117C139.996 431.317 140.117 430.64 140.239 429.901Z" fill="#00827F"/>
<path fill-rule="evenodd" clip-rule="evenodd" d="M312.528 480.148C311.859 477.017 310.642 473.702 308.331 470.695C300.424 460.505 289.475 466.704 280.169 456.883C272.748 449.087 270.68 435.766 269.099 424.778C270.619 424.287 271.714 422.814 271.653 421.095C271.592 419.192 270.072 417.719 268.247 417.596C268.125 417.596 268.004 417.596 267.882 417.596L233.211 419.376C232.968 419.376 232.725 419.438 232.542 419.499C230.9 419.929 229.684 421.463 229.744 423.244C229.866 425.269 231.569 426.804 233.576 426.743L234.306 426.681C234.61 428.4 234.915 430.119 235.158 431.838C235.28 432.513 235.401 433.249 235.523 434.047C235.888 436.196 236.253 438.283 236.618 440.432C236.678 440.923 236.8 441.475 236.861 441.966C237.348 444.667 237.773 447.429 238.26 450.13C238.321 450.499 238.382 450.867 238.442 451.297V451.358C238.503 451.849 238.564 452.279 238.686 452.709C239.051 454.796 239.355 456.821 239.72 458.847C239.781 459.031 239.781 459.215 239.841 459.4C239.902 459.768 239.963 460.136 240.024 460.505C240.206 461.61 240.389 462.714 240.571 463.819C240.936 466.091 241.301 468.301 241.727 470.572C244.343 471.308 246.958 472.045 249.634 472.843C250.303 470.572 251.094 468.239 252.128 466.459C253.527 463.819 255.291 462.223 257.298 463.39C258.88 464.31 260.096 466.152 260.948 468.423C261.86 470.817 262.408 473.702 262.773 476.342C264.293 476.71 265.875 477.14 267.456 477.508C283.453 481.437 298.781 484.445 313.319 486.839C313.197 484.936 313.015 482.603 312.528 480.148Z" fill="#71BF45"/>
<path fill-rule="evenodd" clip-rule="evenodd" d="M251.943 466.815H251.883L240.44 464.223C240.259 464.161 240.198 464.037 240.198 463.852C240.259 463.667 240.38 463.605 240.561 463.605L252.004 466.198C252.185 466.26 252.246 466.383 252.246 466.568C252.246 466.753 252.125 466.815 251.943 466.815Z" fill="#444C54"/>
<path fill-rule="evenodd" clip-rule="evenodd" d="M312.636 480.343L260.826 468.726C260.643 468.665 260.582 468.542 260.582 468.359C260.582 468.176 260.765 468.114 260.947 468.114L312.697 479.731C312.88 479.792 312.941 479.915 312.941 480.098C312.88 480.282 312.758 480.343 312.636 480.343Z" fill="#444C54"/>
<path fill-rule="evenodd" clip-rule="evenodd" d="M247.095 419.048C246.913 419.048 246.791 418.929 246.791 418.751C246.791 418.573 246.913 418.454 247.095 418.454L267.703 417.443C267.886 417.443 268.007 417.562 268.007 417.741C268.007 417.919 267.886 418.038 267.703 418.038L247.095 419.048C247.156 419.048 247.156 419.048 247.095 419.048Z" fill="#444C54"/>
<path fill-rule="evenodd" clip-rule="evenodd" d="M142.8 415.755C142.496 415.632 142.13 415.57 141.826 415.57L107.131 414.157C107.07 414.157 107.009 414.157 106.948 414.157C105.061 414.218 103.479 415.755 103.357 417.659C103.296 419.626 104.757 421.285 106.644 421.469C106.157 429.089 104.209 445.496 95.2005 454.59C85.4615 464.422 74.8703 458.093 66.8965 468.232C64.5835 471.182 63.3053 474.438 62.6357 477.572C62.0879 480.03 61.9661 482.427 61.9053 484.393C76.4529 482.119 91.7919 479.108 107.8 475.299C109.139 474.991 110.539 474.623 111.879 474.315C112.366 471.858 113.035 469.154 114.009 466.819C115.165 463.992 116.626 461.657 118.635 460.735C120.887 459.691 122.591 461.718 123.809 464.791C124.539 466.573 125.087 468.724 125.513 470.813C128.252 470.075 130.931 469.338 133.609 468.539C133.974 466.511 134.278 464.484 134.644 462.456C134.887 461.104 135.13 459.813 135.313 458.462C135.374 458.093 135.435 457.724 135.496 457.356C135.496 457.171 135.557 456.987 135.617 456.802C135.983 454.775 136.348 452.685 136.713 450.658C136.774 450.227 136.896 449.736 136.957 449.306C136.957 449.306 136.957 449.306 136.957 449.244C137.017 448.876 137.078 448.507 137.139 448.077C137.626 445.373 138.113 442.608 138.539 439.904C138.6 439.412 138.722 438.859 138.783 438.368C139.148 436.217 139.513 434.066 139.878 431.977C140 431.24 140.122 430.502 140.243 429.765L141.461 422.883C143.469 422.944 145.113 421.346 145.235 419.38C145.417 417.721 144.322 416.246 142.8 415.755Z" fill="#71BF45"/>
<path fill-rule="evenodd" clip-rule="evenodd" d="M123.827 465.057C123.706 465.057 123.584 464.934 123.524 464.811C123.463 464.627 123.584 464.504 123.766 464.443L134.569 462.169C134.752 462.107 134.873 462.23 134.934 462.415C134.994 462.599 134.873 462.722 134.691 462.783L123.888 465.057H123.827Z" fill="#444C54"/>
<path fill-rule="evenodd" clip-rule="evenodd" d="M62.6042 477.897C62.4825 477.897 62.3609 477.774 62.3 477.651C62.2392 477.467 62.3609 477.344 62.5434 477.282L113.959 466.525C114.141 466.464 114.263 466.587 114.324 466.771C114.385 466.956 114.263 467.078 114.08 467.14L62.6651 477.897C62.6042 477.897 62.6042 477.897 62.6042 477.897Z" fill="#444C54"/>
<path fill-rule="evenodd" clip-rule="evenodd" d="M139.193 415.685L118.052 414.883C117.87 414.883 117.749 414.768 117.749 414.596C117.749 414.424 117.87 414.31 118.052 414.31L139.193 415.112C139.374 415.112 139.496 415.227 139.496 415.399C139.496 415.513 139.314 415.685 139.193 415.685Z" fill="#444C54"/>
<path fill-rule="evenodd" clip-rule="evenodd" d="M86.0917 228.232L85.4827 228.294C86.5788 228.785 87.3704 229.889 87.4313 231.178C87.4922 233.08 85.9699 234.798 83.9604 234.982L83.1078 235.044C83.595 235.35 84.5084 236.025 84.6911 237.13C84.6911 237.13 84.9347 238.296 83.8386 239.768C82.3771 241.671 73.6083 243.021 64.8395 242.162C56.497 241.364 48.0935 238.541 46.084 232.405C45.2315 229.766 45.4142 226.023 46.3885 222.894C47.6673 218.783 50.103 216.267 51.0773 215.285C56.0098 210.315 62.1601 209.517 64.2305 209.333C64.2305 210.56 64.2305 211.726 64.2305 212.953C64.2305 214.303 64.2305 215.653 64.2305 216.942C66.4836 216.635 84.4475 214.242 86.8224 216.574C87.614 217.371 87.7358 218.23 87.7358 218.23C87.9185 219.703 86.5788 220.93 86.1526 221.299C87.9794 221.299 89.5018 222.71 89.5626 224.489C89.5626 226.392 88.0403 228.048 86.0917 228.232Z" fill="#FBC1B4"/>
<path fill-rule="evenodd" clip-rule="evenodd" d="M67.1353 224.389C67.0136 224.389 66.8311 224.262 66.8311 224.135C66.8311 223.945 66.9528 223.818 67.0745 223.755L85.9394 221.026C86.1219 221.026 86.2436 221.153 86.3045 221.28C86.3045 221.471 86.1828 221.597 86.0611 221.661L67.1353 224.389C67.1962 224.389 67.1962 224.389 67.1353 224.389Z" fill="#0E0F11"/>
<path fill-rule="evenodd" clip-rule="evenodd" d="M67.817 230.809C67.6957 230.809 67.5137 230.683 67.5137 230.558C67.5137 230.369 67.635 230.243 67.7563 230.181L85.4107 227.981C85.5927 227.981 85.7141 228.107 85.7747 228.233C85.7747 228.421 85.6534 228.547 85.5321 228.61L67.817 230.809C67.817 230.809 67.8777 230.809 67.817 230.809Z" fill="#0E0F11"/>
<path fill-rule="evenodd" clip-rule="evenodd" d="M68.4237 236.617C68.241 236.617 68.1191 236.498 68.1191 236.319C68.1191 236.14 68.241 236.02 68.4237 236.02L83.0447 234.707C83.2275 234.707 83.3493 234.826 83.3493 235.005C83.3493 235.184 83.2275 235.304 83.0447 235.304L68.4237 236.617Z" fill="#0E0F11"/>
<path fill-rule="evenodd" clip-rule="evenodd" d="M275.782 191.9L276.33 192.023C275.174 192.452 274.323 193.433 274.202 194.721C273.958 196.622 275.418 198.462 277.302 198.769L278.153 198.892C277.606 199.137 276.694 199.75 276.39 200.793C276.39 200.793 276.086 201.958 276.998 203.492C278.275 205.516 286.908 207.54 295.724 207.417C304.114 207.294 312.686 205.209 315.179 199.26C316.334 196.377 316.699 192.82 315.665 189.753C315.118 188.097 314.084 186.319 311.105 183.497C308.552 181.105 304.175 177.609 297.548 174.788C297.487 175.524 297.487 176.26 297.426 177.057C297.365 178.836 297.304 180.492 297.304 182.209C292.684 181.78 288.975 181.044 286.483 180.492C281.862 179.449 278.275 178.223 276.269 180.124C275.661 180.676 275.357 181.351 275.235 181.841C275.174 182.087 274.87 182.945 275.296 183.865C275.539 184.479 275.965 184.908 276.208 185.031C274.384 184.908 272.803 186.135 272.56 187.913C272.438 189.753 273.837 191.593 275.782 191.9Z" fill="#FBC1B4"/>
<path fill-rule="evenodd" clip-rule="evenodd" d="M294.904 189.462H294.844L276.207 185.19C276.024 185.128 275.963 185.004 275.963 184.818C276.024 184.633 276.146 184.571 276.328 184.571L294.965 188.843C295.148 188.905 295.209 189.029 295.209 189.214C295.148 189.4 295.026 189.462 294.904 189.462Z" fill="#0E0F11"/>
<path fill-rule="evenodd" clip-rule="evenodd" d="M293.694 195.882H293.633L276.28 192.288C276.099 192.227 276.038 192.105 276.038 191.922C276.099 191.739 276.219 191.678 276.401 191.678L293.754 195.273C293.936 195.334 293.996 195.456 293.996 195.638C293.936 195.821 293.815 195.882 293.694 195.882Z" fill="#0E0F11"/>
<path fill-rule="evenodd" clip-rule="evenodd" d="M292.69 201.767L278.116 199.187C277.933 199.187 277.811 199.003 277.872 198.819C277.872 198.634 278.055 198.511 278.238 198.573L292.751 201.153C292.934 201.153 293.056 201.337 292.995 201.521C292.995 201.705 292.873 201.767 292.69 201.767Z" fill="#0E0F11"/>
</svg>
