<svg width="715" height="531" viewBox="0 0 715 531" fill="none" xmlns="http://www.w3.org/2000/svg">
<ellipse cx="570.913" cy="432.461" rx="65.2775" ry="65.8367" fill="#D4DFEB"/>
<path fill-rule="evenodd" clip-rule="evenodd" d="M579.398 431.198C561.948 434.327 544.425 437.383 526.902 440.512C493.947 446.334 461.064 452.156 428.109 458.051C404.961 462.198 381.741 466.274 358.594 470.422C358.594 470.131 358.522 469.84 358.522 469.476C284.68 481.774 210.982 494.655 137.428 508.263C121.78 511.174 106.204 514.085 90.5561 516.996C69.7881 520.925 49.02 524.928 28.252 528.93C28.3962 527.984 28.5404 527.038 28.6846 526.092C29.8384 518.742 30.9201 511.32 32.0739 503.97C34.5977 487.523 37.1216 471.149 39.6455 454.703C46.9288 406.601 54.2841 358.498 61.6395 310.396C65.1729 287.4 68.7064 264.404 72.2398 241.408C74.5474 226.49 76.7829 211.499 79.0904 196.581C82.047 177.224 85.0035 157.866 87.9601 138.436C88.9697 131.887 89.9792 125.264 90.9888 118.642C99.57 119.006 108.151 119.443 116.733 119.807C131.011 120.461 145.216 121.116 159.495 121.699C168.292 122.062 177.09 122.499 185.887 122.863C189.637 123.008 193.387 123.227 197.064 123.372C201.535 123.591 206.078 123.809 210.549 123.955C216.39 124.246 222.231 124.464 228 124.755C230.668 124.901 233.336 124.973 235.932 125.119H236.005C238.889 125.264 241.846 125.41 244.802 125.483C248.624 125.628 252.446 125.847 256.268 125.992C260.883 126.21 265.426 126.429 270.041 126.647C270.474 126.647 270.979 126.72 271.411 126.72C271.7 126.72 271.916 126.72 272.132 126.72C303.933 128.175 335.734 129.558 367.536 131.013C379.506 131.596 391.477 132.105 403.447 132.614C408.495 132.833 413.47 133.051 418.518 133.269C432.292 133.924 446.137 134.506 459.91 135.161C470.799 135.671 481.616 136.18 492.504 136.617C496.831 151.317 501.158 166.089 505.484 180.789C506.494 184.282 507.504 187.703 508.513 191.196C510.676 198.473 512.84 205.75 514.931 213.027C521.277 234.713 527.695 256.399 534.113 278.013C536.276 285.29 538.439 292.64 540.603 299.917C542.55 306.612 544.569 313.234 546.516 319.929C557.549 357.261 568.438 394.229 579.398 431.198Z" fill="white"/>
<path fill-rule="evenodd" clip-rule="evenodd" d="M28.2276 530.122C27.939 530.122 27.6504 530.049 27.5061 529.83C27.2174 529.612 27.1453 529.248 27.2174 528.884L27.6504 526.044C28.8049 518.69 29.8873 511.263 31.0418 503.909C31.0418 503.836 31.0418 503.836 31.0418 503.764C33.3508 488.691 35.6598 473.692 37.9689 458.62L38.6183 454.615C38.6904 454.033 39.2677 453.596 39.845 453.668C40.4222 453.741 40.8552 454.324 40.783 454.906L40.1336 458.911C37.8246 473.983 35.5155 489.128 33.2065 504.2C33.2065 504.273 33.2065 504.273 33.2065 504.346C32.052 511.7 30.9696 519.054 29.8151 526.408L29.5986 527.719C49.7305 523.787 70.2232 519.855 90.4273 516.069C106.302 513.084 122.104 510.098 137.33 507.331C210.281 493.861 284.747 480.755 358.564 468.522H358.708C359.285 468.449 359.863 468.886 359.935 469.469C360.007 470.051 359.574 470.634 358.997 470.707H358.853C285.036 482.939 210.641 496.045 137.618 509.516C122.393 512.355 106.663 515.268 90.7159 518.253C69.9346 522.185 49.0089 526.19 28.3719 530.194C28.2998 530.122 28.2276 530.122 28.2276 530.122Z" fill="#444C54"/>
<path fill-rule="evenodd" clip-rule="evenodd" d="M358.817 470.582C358.312 470.582 357.807 470.218 357.735 469.708C357.663 469.126 358.023 468.544 358.6 468.471L578.133 430.402L545.823 320.563C543.876 313.866 541.857 307.17 539.91 300.546L533.419 278.636C533.419 278.563 533.347 278.418 533.347 278.345C533.347 277.763 533.852 277.253 534.428 277.253C534.933 277.253 535.366 277.617 535.51 278.127L541.929 299.964C543.876 306.66 545.896 313.284 547.843 319.981L580.513 430.984C580.585 431.276 580.585 431.639 580.369 431.858C580.225 432.149 579.936 432.295 579.648 432.367L358.889 470.582C358.889 470.582 358.889 470.582 358.817 470.582Z" fill="#444C54"/>
<path fill-rule="evenodd" clip-rule="evenodd" d="M506.409 180.103C505.904 180.103 505.471 179.739 505.327 179.229C501.719 167.212 494.575 144.927 492.05 137.862C481.442 137.352 470.835 136.915 460.227 136.406L402.139 133.857C390.665 133.347 379.192 132.837 367.719 132.327C335.896 130.871 304.074 129.487 272.252 128.03C271.674 128.03 271.169 127.521 271.241 126.865C271.241 126.282 271.746 125.773 272.396 125.845C304.218 127.302 336.041 128.686 367.863 130.142C379.336 130.652 390.81 131.162 402.283 131.672L460.372 134.294C471.268 134.803 482.092 135.313 492.988 135.75C493.421 135.75 493.782 136.041 493.926 136.478C496.235 142.815 503.667 166.047 507.492 178.719C507.492 178.792 507.564 178.937 507.564 179.01C507.492 179.593 506.987 180.103 506.409 180.103Z" fill="#444C54"/>
<path fill-rule="evenodd" clip-rule="evenodd" d="M61.741 311.484C61.6688 311.484 61.5967 311.484 61.5967 311.484C61.0192 311.412 60.5861 310.829 60.6583 310.247L71.1971 241.242C73.507 226.32 75.7447 211.326 78.0546 196.404L89.9649 118.519C90.0371 117.936 90.5424 117.572 91.0476 117.572L116.817 118.737C131.11 119.392 145.33 120.047 159.622 120.63C160.2 120.63 160.705 121.139 160.633 121.794C160.633 122.377 160.128 122.886 159.478 122.813C145.185 122.158 130.965 121.503 116.673 120.921L91.8417 119.829L80.0757 196.768C77.7658 211.69 75.4559 226.684 73.2182 241.606L62.6794 310.611C62.7516 311.12 62.3185 311.484 61.741 311.484Z" fill="#444C54"/>
<path fill-rule="evenodd" clip-rule="evenodd" d="M479.314 178.069C472.46 187.313 465.607 196.629 458.825 205.873C451.827 200.56 439.996 190.224 430.833 173.483C422.248 157.834 419.723 143.277 418.857 134.688C425.711 134.979 432.493 135.27 439.346 135.634C446.344 135.925 453.342 136.289 460.34 136.581C460.412 137.163 460.556 137.745 460.629 138.327C461.639 143.641 463.37 150.337 466.544 157.543C470.584 166.496 475.418 173.338 479.314 178.069Z" fill="#71BF45"/>
<path fill-rule="evenodd" clip-rule="evenodd" d="M346 164.495C349.679 193.456 336.767 220.963 312.818 230.35C288.87 239.737 260.882 228.239 244.292 204.299C235.564 207.719 226.836 211.139 218.107 214.559C234.482 257.201 282.811 278.667 325.081 262.149C367.351 245.631 388.631 196.877 372.256 154.235C363.456 157.655 354.728 161.075 346 164.495Z" fill="#71BF45"/>
<path fill-rule="evenodd" clip-rule="evenodd" d="M136.516 409.121C129.955 397.986 123.466 386.851 116.904 375.716C123.682 369.021 129.306 361.597 133.776 353.81C147.98 328.848 150.071 299.664 136.372 276.375C127.287 260.873 114.02 253.377 109.189 250.757C94.1199 242.534 80.0599 241.66 73.2822 241.66C73.7148 238.967 76.3105 221.646 76.7431 218.954C78.4736 207.891 80.0599 197.484 80.132 196.829C112.867 201.269 137.526 212.04 149.423 221.574C157.137 227.76 163.555 235.037 163.555 235.037C168.241 240.35 172.495 246.172 176.173 252.504C207.898 306.432 190.016 377.172 136.516 409.121Z" fill="#71BF45"/>
<path fill-rule="evenodd" clip-rule="evenodd" d="M548.545 405.519C547.029 410.103 544.864 415.634 541.544 421.528C539.74 424.802 536.492 429.969 531.657 435.645C530.502 437.028 529.419 438.119 528.698 438.92C515.707 441.176 502.789 443.431 489.798 445.614C468.435 449.326 447.073 453.037 425.71 456.675C425.205 456.457 424.772 456.166 424.267 455.875C423.545 455.511 422.896 455.074 422.246 454.711C421.597 454.347 420.947 453.983 420.225 453.546C413.081 449.107 397.708 438.192 387.46 417.817C385.367 413.596 374.181 390.528 379.305 361.93C380.026 358.146 380.965 354.362 382.192 350.578C391.646 353.707 401.028 356.763 410.482 359.893C410.194 363.313 410.194 366.806 410.41 370.153C411.854 396.859 426.432 420 449.382 427.568C475.219 436.082 504.16 422.256 520.398 396.059C529.708 399.261 539.162 402.39 548.545 405.519Z" fill="#71BF45"/>
<path fill-rule="evenodd" clip-rule="evenodd" d="M545.651 320.237C542.046 320.018 529.138 319.072 518.538 311.722C513.562 308.302 509.813 303.935 509.524 303.644C507.289 301.024 505.342 298.186 503.611 294.984C508.371 292.437 513.13 289.817 517.889 287.27C519.836 289.526 522.792 292.364 526.975 294.984C531.878 298.04 536.565 299.423 539.666 300.078C540.243 302.043 542.118 308.447 542.695 310.339C543.272 312.159 545.146 318.417 545.651 320.237Z" fill="#71BF45"/>
<path fill-rule="evenodd" clip-rule="evenodd" d="M115.996 121.093C114.333 123.273 112.019 125.961 108.837 128.576C107.174 129.956 104.498 131.99 100.955 133.879C98.2066 135.332 94.2292 137.148 89.0947 138.383C90.0348 132.281 90.9749 126.179 91.9151 120.004C99.8699 120.367 107.897 120.73 115.996 121.093Z" fill="#71BF45"/>
<path fill-rule="evenodd" clip-rule="evenodd" d="M40.7157 521.601C37.8356 523.201 34.7394 524.292 34.7394 524.292C32.7954 525.019 31.0673 525.528 29.6992 525.818C30.2752 522.038 30.9233 517.966 31.4993 514.185C32.0033 510.914 32.6513 506.915 33.1554 503.57C35.7475 501.607 41.8678 496.445 45.2519 487.357C49.2841 476.523 46.836 467.144 45.8999 464.163C46.548 463.8 47.124 463.509 47.772 463.145C51.8762 460.891 56.0524 458.637 60.1566 456.384C62.6767 461.109 64.3328 466.054 65.1248 471.143C68.3649 490.919 59.0765 511.641 40.7157 521.601Z" fill="#71BF45"/>
<path fill-rule="evenodd" clip-rule="evenodd" d="M23.9952 107.167C22.6244 107.167 21.2536 107.094 19.8828 106.876C6.75183 104.766 0.474965 93.1963 0.258521 92.6869C-0.318662 91.5954 0.114225 90.2857 1.1243 89.7036C2.20651 89.1215 3.50518 89.558 4.08236 90.5767C4.15451 90.6495 9.7099 100.764 20.6042 102.51C29.4784 103.893 39.5791 99.6723 50.5456 89.7763C42.8258 81.1902 39.2184 68.6747 41.8157 57.6146C42.2486 55.941 46.0725 41.0971 58.1933 37.0223C61.0792 36.0764 63.5322 36.1491 65.4802 36.4402C69.737 37.0223 75.2924 40.5878 77.4568 47.2821C79.982 55.1406 78.3947 68.8203 56.8225 89.8491C57.3997 90.2857 57.9769 90.795 58.554 91.1589C73.9937 102.001 94.9166 92.2503 98.9569 90.1402C104.079 87.5206 109.851 83.6641 115.551 79.0072C111.511 72.1674 109.13 61.6894 112.16 48.5191C114.829 37.0223 122.91 22.6878 132.722 18.6857C136.979 16.9394 141.236 17.3032 144.987 19.7772C147.368 21.3053 150.182 24.7252 149.749 32.0743C149.028 45.5357 138.566 64.8182 121.467 79.8804C121.756 80.2442 122.044 80.5353 122.405 80.8991C129.764 88.1755 142.39 89.558 159.85 85.0467C192.605 76.606 213.167 53.6853 220.526 44.226C221.248 43.28 222.618 43.1345 223.556 43.8621C224.494 44.5898 224.639 45.9723 223.917 46.9182C216.269 56.7414 194.914 80.5353 160.932 89.267C141.885 94.1422 127.888 92.3959 119.375 83.9552C118.942 83.5186 118.581 83.082 118.148 82.6454C112.881 86.9385 107.11 90.7223 100.905 93.9239C96.5038 96.1796 73.4887 106.876 56.0289 94.5788C55.1631 93.9967 54.3695 93.3418 53.5758 92.6869C43.1144 102.365 33.158 107.167 23.9952 107.167ZM62.9206 40.7467C61.7651 40.7467 60.6818 40.8923 59.5985 41.329C49.4875 44.7498 46.1654 58.2874 46.0209 58.8696C43.7821 68.3314 47.032 79.4672 53.7486 87.0366C74.9093 66.4391 75.126 54.2843 73.3927 48.8256C71.7316 43.5852 67.3983 41.2562 64.9428 40.8923C64.2206 40.8195 63.5706 40.7467 62.9206 40.7467ZM137.876 22.0751C136.722 22.0751 135.496 22.2939 134.27 22.8044C126.192 26.0865 118.763 39.0691 116.311 49.6448C114.508 57.5219 114.363 68.3164 118.763 76.3393C132.323 64.159 144.584 47.5297 145.377 31.9943C145.521 29.0769 145.161 25.2113 142.564 23.5338C141.05 22.5856 139.463 22.0751 137.876 22.0751Z" fill="#D5E0EA"/>
<path fill-rule="evenodd" clip-rule="evenodd" d="M258.256 189.071C253.066 193.656 246.722 196.566 239.874 198.095V198.313L243.334 220.798C244.055 225.237 243.839 229.822 242.469 234.188C239.73 242.847 233.026 249.833 224.52 252.598C216.446 255.218 207.436 253.835 200.155 249.251C192.874 244.739 188.117 237.026 186.819 228.512L183.575 207.482L180.115 185.069C183.864 181.431 186.315 176.482 186.675 170.879C186.819 168.114 186.531 165.349 185.738 162.875C185.882 144.901 186.026 126.927 186.17 108.953C197.56 103.423 209.598 97.9651 222.357 92.5802C231.224 88.869 239.874 85.3761 248.308 82.1743C276.349 108.662 283.197 166.877 258.256 189.071Z" fill="#FBC1B4"/>
<ellipse cx="255.952" cy="102.499" rx="12.2938" ry="4.37615" transform="rotate(-18.6506 255.952 102.499)" fill="#0E0F11"/>
<ellipse cx="208.609" cy="120.684" rx="12.2938" ry="4.37615" transform="rotate(-21.6237 208.609 120.684)" fill="#0E0F11"/>
<path fill-rule="evenodd" clip-rule="evenodd" d="M235.941 172.615C227.777 172.615 220.407 165.722 220.335 165.65C220.19 165.505 220.19 165.215 220.335 165.069C220.479 164.924 220.768 164.852 220.913 165.069C221.057 165.215 234.785 178.056 245.188 167.826C245.333 167.681 245.622 167.681 245.766 167.826C245.911 167.971 245.911 168.262 245.766 168.407C242.66 171.526 239.264 172.615 235.941 172.615Z" fill="#0E0F11"/>
<path fill-rule="evenodd" clip-rule="evenodd" d="M248.984 147.939L239.5 130.508L236.314 124.601L231.247 115.266C231.102 115.047 230.885 114.974 230.667 115.12C230.45 115.266 230.378 115.485 230.523 115.703L248.043 147.939L232.043 153.554C231.826 153.627 231.681 153.919 231.753 154.138C231.826 154.284 231.971 154.429 232.188 154.429C232.26 154.429 232.26 154.429 232.333 154.429L248.767 148.668C248.912 148.668 248.984 148.522 249.057 148.376C249.057 148.157 249.057 148.012 248.984 147.939Z" fill="#0E0F11"/>
<path fill-rule="evenodd" clip-rule="evenodd" d="M230.8 199.455C224.328 199.455 216.059 198.293 207.645 194.154C207.429 194.082 207.357 193.791 207.429 193.573C207.501 193.356 207.789 193.283 208.005 193.356C221.092 199.818 233.605 198.947 239.861 197.785C240.077 197.712 240.293 197.93 240.364 198.148C240.436 198.366 240.221 198.584 240.005 198.656C237.704 199.092 234.54 199.455 230.8 199.455Z" fill="#0E0F11"/>
<path fill-rule="evenodd" clip-rule="evenodd" d="M248.286 82.071C239.857 85.2737 231.213 88.7675 222.352 92.4797C209.602 97.866 197.571 103.325 186.189 108.857C186.045 126.836 185.901 144.814 185.757 162.793C183.164 154.568 175.816 148.381 166.739 147.798C165.443 147.726 164.218 147.726 162.993 147.871C162.561 146.488 162.201 145.105 161.841 143.722C161.769 143.286 161.625 142.922 161.553 142.485C161.553 142.412 161.553 142.412 161.48 142.339C161.336 141.539 161.12 140.811 160.976 140.01C160.904 139.573 160.832 139.209 160.76 138.773C160.688 138.336 160.616 137.972 160.544 137.535C160.328 136.225 160.112 134.915 159.968 133.605C159.896 132.877 159.824 132.149 159.752 131.421C159.68 130.984 159.68 130.548 159.68 130.111C159.68 129.747 159.608 129.383 159.608 129.092C159.608 128.874 159.608 128.728 159.608 128.51C159.608 128.146 159.608 127.782 159.535 127.418C159.463 126.108 159.463 124.87 159.535 123.633C159.535 123.269 159.535 122.905 159.535 122.468C159.535 121.74 159.608 121.012 159.608 120.357V120.066C159.608 119.848 159.608 119.702 159.68 119.484C159.68 119.12 159.752 118.756 159.752 118.392C159.752 118.101 159.824 117.883 159.824 117.591C159.824 117.519 159.824 117.446 159.824 117.446C160.616 110.385 163.353 97.7932 172.79 86.1471C186.55 70.7161 210.97 64.238 230.348 71.0801C235.679 72.9726 240.578 75.8841 245.044 79.5235C246.269 80.2513 247.277 81.1248 248.286 82.071Z" fill="#0E0F11"/>
<path fill-rule="evenodd" clip-rule="evenodd" d="M230.435 127.103C234.55 136.652 230.219 147.95 220.762 152.178C211.305 156.333 200.116 151.96 195.929 142.411C207.407 137.235 218.957 132.205 230.435 127.103Z" fill="#D5E0EA"/>
<path fill-rule="evenodd" clip-rule="evenodd" d="M260.339 135.906C252.817 138.756 244.573 136.417 239.51 130.644L236.328 124.724C248.044 120.265 259.688 115.807 271.404 111.349C275.02 121.142 270.03 132.252 260.339 135.906Z" fill="#D5E0EA"/>
<path fill-rule="evenodd" clip-rule="evenodd" d="M228.632 129.242C228.488 129.242 228.271 129.169 228.198 128.951C227.403 126.909 227.475 124.648 228.415 122.606C229.284 120.783 230.875 119.398 232.684 118.814C236.156 117.793 239.99 119.762 241.509 123.263C241.581 123.481 241.509 123.773 241.292 123.846C241.075 123.919 240.786 123.846 240.713 123.627C239.411 120.491 235.939 118.741 232.973 119.689C231.381 120.2 230.007 121.367 229.211 123.044C228.343 124.794 228.271 126.836 228.994 128.659C229.067 128.878 228.994 129.169 228.777 129.242C228.777 129.242 228.705 129.242 228.632 129.242Z" fill="#0E0F11"/>
<path fill-rule="evenodd" clip-rule="evenodd" d="M219.563 153.165C219.418 153.165 219.345 153.092 219.273 153.019C218.258 151.922 213.401 146.221 215.938 142.127C217.895 138.984 216.445 135.182 215.793 133.647C215.72 133.428 215.793 133.135 216.01 133.062C216.228 132.989 216.518 133.062 216.59 133.282C217.388 134.89 218.91 139.057 216.735 142.565C214.488 146.147 218.983 151.411 219.925 152.434C220.07 152.58 220.07 152.873 219.925 153.019C219.78 153.165 219.635 153.165 219.563 153.165Z" fill="white"/>
<path fill-rule="evenodd" clip-rule="evenodd" d="M258.538 136.828C258.398 136.828 258.257 136.755 258.187 136.682C256.711 134.713 253.618 129.754 256.008 126.254C258.398 122.753 256.43 118.086 256.008 117.211C255.938 116.992 256.008 116.7 256.219 116.627C256.43 116.555 256.711 116.627 256.781 116.846C257.203 117.794 259.382 122.899 256.711 126.764C254.672 129.754 257.554 134.348 258.89 136.171C259.03 136.39 259.03 136.609 258.819 136.755C258.749 136.828 258.609 136.828 258.538 136.828Z" fill="white"/>
<path fill-rule="evenodd" clip-rule="evenodd" d="M201.632 144.081L180.667 154.429C180.451 154.209 180.235 153.989 180.019 153.769L201.272 143.273C201.488 143.2 201.776 143.273 201.848 143.494C201.992 143.714 201.848 143.934 201.632 144.081Z" fill="#0E0F11"/>
<ellipse cx="222.927" cy="137.411" rx="3.5676" ry="3.59817" fill="#0E0F11"/>
<ellipse cx="263.327" cy="121.365" rx="3.5676" ry="3.59817" fill="#0E0F11"/>
<path fill-rule="evenodd" clip-rule="evenodd" d="M185.89 162.766C184.879 159.489 183.074 156.577 180.691 154.174C180.474 153.956 180.257 153.737 180.041 153.519C176.575 150.243 171.953 148.131 166.826 147.767C165.526 147.694 164.298 147.694 163.071 147.84C152.888 148.932 144.728 157.305 144.006 167.935C143.212 179.875 152.166 190.141 164.009 190.942C170.22 191.379 176.069 189.049 180.257 185.045C184.013 181.404 186.468 176.453 186.829 170.847C186.973 167.935 186.684 165.241 185.89 162.766Z" fill="#FBC1B4"/>
<path fill-rule="evenodd" clip-rule="evenodd" d="M177.822 178.839C177.75 178.839 177.605 178.839 177.533 178.766C176.593 178.109 175.003 176.578 174.424 174.098C173.484 170.306 175.653 167.316 176.593 166.149L155.556 154.846C155.339 154.7 155.267 154.481 155.411 154.262C155.556 154.043 155.773 153.97 155.99 154.116L177.533 165.712C177.677 165.785 177.75 165.931 177.75 166.003C177.75 166.149 177.75 166.295 177.605 166.368C177.461 166.514 174.28 169.723 175.292 173.88C175.798 176.067 177.244 177.453 178.111 178.036C178.328 178.182 178.328 178.474 178.184 178.62C178.111 178.766 177.967 178.839 177.822 178.839Z" fill="#0E0F11"/>
<path fill-rule="evenodd" clip-rule="evenodd" d="M558.816 229.683C556.941 232.885 553.192 234.268 549.802 233.249C545.475 249.552 540.572 263.526 535.884 275.098C535.524 276.044 535.091 276.99 534.73 277.936C534.658 278.082 534.586 278.228 534.514 278.373C533.577 280.556 532.711 282.594 531.846 284.632C531.702 284.996 531.485 285.433 531.341 285.797C530.981 286.597 530.62 287.325 530.332 288.053C530.115 288.562 529.827 289.145 529.61 289.654C529.322 290.309 529.034 290.964 528.745 291.619C528.457 292.201 528.24 292.711 527.952 293.293C525.716 298.169 523.553 302.682 521.245 307.049C520.38 308.65 519.515 310.251 518.649 311.852C518.216 312.58 517.784 313.308 517.351 314.036C516.918 314.763 516.486 315.491 516.053 316.219C515.693 316.801 515.332 317.311 515.044 317.893C514.467 318.766 513.962 319.567 513.385 320.44C512.808 321.314 512.231 322.114 511.582 322.988C510.284 324.734 508.986 326.554 507.544 328.301C506.895 329.101 506.246 329.829 505.597 330.63C505.164 331.139 504.731 331.721 504.227 332.231C495.429 342.347 481.583 358.286 458.218 366.583C428.291 377.209 401.032 368.84 386.105 364.327C372.115 360.033 361.225 354.356 354.158 350.135C353.942 364.254 354.014 378.811 354.375 393.949C354.447 397.661 354.591 401.373 354.735 405.084C354.807 406.977 354.879 408.869 354.952 410.761C355.673 429.83 356.899 448.171 358.485 465.638C358.557 466.584 358.629 467.53 358.701 468.477C358.413 468.549 358.197 468.549 357.908 468.622C353.581 469.35 349.255 470.078 344.928 470.806C340.312 471.533 335.769 472.334 331.154 473.135C326.971 473.862 322.789 474.517 318.606 475.245C308.583 476.919 298.559 478.666 288.535 480.34C282.261 481.432 275.915 482.523 269.641 483.615C252.767 486.526 235.892 489.51 219.09 492.494C215.628 493.076 212.167 493.731 208.633 494.387C207.119 494.678 205.604 494.969 204.018 495.187C197.095 496.424 190.1 497.662 183.177 498.972C176.543 500.209 169.836 501.373 163.202 502.611C159.308 503.339 155.413 504.066 151.447 504.794C146.832 505.668 142.217 506.468 137.601 507.341V467.312C76.8819 481.504 52.8681 470.223 42.1232 457.923C41.402 457.123 40.753 456.249 40.104 455.376C39.9598 455.23 39.8155 455.012 39.6713 454.794C39.455 454.503 39.2386 454.139 39.0223 453.848C38.6617 453.265 38.3011 452.683 37.9406 452.101C37.7242 451.664 37.4358 451.3 37.2194 450.864C36.8589 450.209 36.4983 449.554 36.1377 448.898C35.9935 448.535 35.7772 448.243 35.6329 447.88C35.6329 447.807 35.5608 447.807 35.5608 447.734C35.4166 447.37 35.2724 447.079 35.1282 446.715C34.9839 446.351 34.7676 445.987 34.6234 445.623C34.3349 444.896 34.0464 444.168 33.758 443.44C33.6138 443.003 33.4695 442.567 33.3253 442.13C32.8926 440.965 32.5321 439.728 32.2436 438.491C32.0994 438.054 32.0273 437.69 31.883 437.254C31.8109 436.89 31.7388 436.526 31.5946 436.162C31.5946 436.016 31.5225 435.944 31.5225 435.798C31.4504 435.434 31.3782 435.07 31.234 434.706C31.1619 434.27 31.0898 433.833 30.9456 433.396C30.8735 432.887 30.7292 432.45 30.6571 431.941C30.5129 431.286 30.4408 430.631 30.2965 429.975C30.0802 428.665 29.936 427.283 29.7918 425.9C29.7196 425.172 29.6475 424.517 29.5754 423.789C29.5033 423.352 29.5033 422.843 29.4312 422.333C29.3591 421.387 29.287 420.368 29.287 419.422C29.287 418.913 29.2148 418.476 29.2148 417.967C29.2148 417.457 29.2148 416.948 29.2148 416.438C29.2148 415.929 29.2148 415.347 29.2148 414.837C29.2148 414.182 29.2148 413.454 29.2148 412.799C29.2148 412.217 29.2148 411.635 29.287 411.052C29.287 410.834 29.287 410.616 29.287 410.397C29.287 410.034 29.287 409.742 29.3591 409.379C29.3591 408.942 29.3591 408.505 29.4312 407.996C29.4312 407.923 29.4312 407.85 29.4312 407.85C29.4312 407.268 29.5033 406.613 29.5754 405.958C29.5754 405.812 29.5754 405.667 29.5754 405.521C29.6475 404.939 29.6475 404.357 29.7196 403.702C29.8639 401.591 30.1523 399.408 30.4408 397.224C30.5129 396.715 30.585 396.132 30.6571 395.623C30.8013 394.604 30.9456 393.658 31.0898 392.639C31.0898 392.566 31.0898 392.421 31.1619 392.348C31.234 391.911 31.3061 391.402 31.3782 390.965C31.5225 390.092 31.6667 389.218 31.8109 388.345C31.883 388.054 31.9552 387.69 31.9552 387.399C32.0273 387.035 32.0994 386.598 32.1715 386.234C32.2436 385.725 32.3878 385.143 32.46 384.633C32.6763 383.541 32.8926 382.45 33.1811 381.431C33.5417 379.83 33.9022 378.301 34.2628 376.7C34.2628 376.627 34.2628 376.627 34.2628 376.554C34.407 375.972 34.5512 375.463 34.6955 374.953C34.9839 373.861 35.2724 372.77 35.5608 371.678C35.9214 370.441 36.282 369.204 36.6425 367.966C36.931 367.02 37.2194 366.001 37.5079 365.055C37.6521 364.546 37.7964 364.109 37.9406 363.599C38.1569 362.944 38.3011 362.362 38.5175 361.707C38.6617 361.125 38.8781 360.615 39.0944 360.033C39.2386 359.596 39.3828 359.087 39.5271 358.65C40.5367 355.739 41.5463 352.828 42.7001 349.917C43.1328 348.825 43.5654 347.66 43.9981 346.496C44.7192 344.822 45.3683 343.075 46.0894 341.401C46.3057 340.819 46.5942 340.237 46.8105 339.727C47.5317 337.981 48.3249 336.307 49.1182 334.633C49.4066 334.05 49.623 333.468 49.9114 332.959C50.9931 330.63 52.0748 328.373 53.2286 326.044C53.5171 325.462 53.8055 324.88 54.094 324.298C54.5267 323.497 54.9594 322.624 55.392 321.823C55.5363 321.459 55.7526 321.095 55.969 320.731C56.1853 320.222 56.4737 319.785 56.7622 319.276C57.0507 318.766 57.267 318.257 57.5555 317.82C58.2045 316.656 58.8535 315.418 59.5746 314.254C59.8631 313.745 60.1515 313.162 60.44 312.653C62.3149 309.378 64.262 306.175 66.2812 302.973C66.5696 302.536 66.8581 302.027 67.1465 301.59C67.9398 300.353 68.733 299.188 69.4542 297.951C69.8147 297.442 70.1032 296.932 70.4638 296.423C73.2762 292.201 76.2328 288.126 79.2616 284.05C80.3433 282.594 81.425 281.212 82.5788 279.756C83.0115 279.174 83.4442 278.664 83.8769 278.155C84.2374 277.718 84.5259 277.281 84.8865 276.917C85.1028 276.626 85.3192 276.408 85.5355 276.117C88.0595 273.06 90.5834 270.076 93.2516 267.092C93.6843 266.583 94.1891 266.073 94.6218 265.564C96.0641 263.962 97.5784 262.361 99.0928 260.76C99.5255 260.323 99.8861 259.887 100.319 259.523C100.824 259.013 101.256 258.504 101.761 258.067C107.242 252.536 113.011 247.296 119.068 242.347C119.573 241.91 120.15 241.473 120.655 241.037C121.304 240.527 121.953 240.018 122.602 239.508C123.035 239.144 123.539 238.78 124.044 238.416C124.405 238.125 124.765 237.834 125.126 237.616C125.342 237.47 125.558 237.252 125.775 237.106C126.496 236.597 127.217 236.015 127.938 235.505C128.371 235.214 128.804 234.85 129.236 234.559C129.813 234.122 130.39 233.758 130.967 233.322C130.967 233.322 130.967 233.322 131.039 233.322C131.472 233.031 131.904 232.739 132.337 232.448C132.481 232.376 132.626 232.23 132.77 232.157C133.347 231.793 133.924 231.357 134.573 230.993C135.15 230.556 135.799 230.192 136.376 229.828C136.808 229.537 137.241 229.246 137.674 228.955C138.034 228.664 138.467 228.445 138.899 228.154C139.621 227.718 140.342 227.281 141.063 226.844C141.496 226.553 142 226.262 142.433 225.971C146.832 223.351 151.375 220.876 155.99 218.547C156.351 218.402 156.712 218.183 157 218.038C157.649 217.747 158.226 217.456 158.875 217.164C162.913 215.272 171.351 211.487 183.105 207.848L186.35 228.882C187.648 237.397 192.48 245.112 199.691 249.625C206.975 254.137 216.061 255.593 224.066 252.973C232.503 250.207 239.209 243.22 242.022 234.559C243.392 230.265 243.608 225.68 242.887 221.167L239.426 198.678C251.324 198.533 264.089 199.479 277.285 202.172C361.514 218.838 389.133 289.436 436.079 280.193C436.945 280.047 437.882 279.829 438.747 279.61C439.036 279.538 439.324 279.465 439.613 279.392C439.901 279.319 440.19 279.246 440.55 279.101C440.839 279.028 441.127 278.955 441.416 278.81H441.488C441.488 278.81 441.488 278.81 441.56 278.81L441.993 278.664C442.137 278.591 442.281 278.591 442.425 278.519C442.714 278.446 443.002 278.3 443.291 278.228C443.651 278.082 444.012 277.936 444.444 277.791C444.733 277.718 444.949 277.572 445.238 277.427C445.526 277.281 445.887 277.136 446.175 276.99C447.69 276.335 449.204 275.535 450.79 274.661C450.863 274.661 450.935 274.588 450.935 274.588C451.223 274.443 451.512 274.225 451.872 274.079C452.521 273.715 453.17 273.278 453.891 272.842C454.252 272.623 454.54 272.405 454.829 272.187C455.189 271.968 455.478 271.75 455.838 271.532C456.487 271.095 457.136 270.586 457.785 270.076C458.146 269.858 458.434 269.567 458.795 269.275C460.093 268.184 461.463 267.019 462.761 265.782C463.05 265.491 463.338 265.2 463.627 264.981C463.987 264.617 464.348 264.254 464.78 263.89C465.069 263.671 465.285 263.38 465.502 263.089C465.718 262.871 465.934 262.652 466.151 262.434C466.511 262.07 466.872 261.633 467.232 261.27C469.107 259.232 470.982 256.976 472.857 254.501C473.146 254.137 473.434 253.7 473.723 253.336C474.083 252.827 474.516 252.318 474.876 251.808C475.237 251.371 475.525 250.862 475.886 250.352C475.886 250.28 475.958 250.207 476.03 250.207C476.319 249.77 476.607 249.334 476.895 248.897C476.968 248.824 477.04 248.678 477.112 248.606C477.4 248.169 477.689 247.805 477.905 247.368C478.194 246.932 478.482 246.495 478.77 246.058C478.843 245.986 478.915 245.84 478.915 245.767C479.275 245.258 479.564 244.676 479.924 244.166C480.573 243.074 481.294 241.983 481.943 240.818C482.304 240.163 482.737 239.508 483.097 238.78C483.386 238.271 483.674 237.761 483.963 237.252C484.251 236.815 484.467 236.306 484.756 235.869C485.189 235.068 485.621 234.341 485.982 233.54C486.27 232.958 486.559 232.376 486.847 231.793C486.919 231.648 486.991 231.502 487.064 231.357C487.352 230.774 487.64 230.192 487.929 229.61C488.938 227.572 489.948 225.461 490.958 223.278C491.318 222.55 491.607 221.822 491.967 221.095C492.616 219.566 493.265 218.038 493.986 216.509C494.491 215.272 495.068 214.035 495.573 212.725C496.655 209.959 497.808 207.121 498.89 204.137L495.717 202.317C492.039 200.134 490.741 195.33 492.905 191.618C494.347 189.144 496.943 187.688 499.683 187.688C500.981 187.688 502.352 188.052 503.577 188.707L504.154 189.071L508.625 191.691L508.986 191.909L553.696 217.965H553.768L556.148 219.348C559.61 221.167 560.908 225.971 558.816 229.683Z" fill="#51668F"/>
<path fill-rule="evenodd" clip-rule="evenodd" d="M132.675 232.106C132.675 235.096 130.249 237.576 127.324 237.576C126.682 237.576 126.111 237.43 125.54 237.212C125.754 237.066 125.968 236.847 126.182 236.701C126.896 236.19 127.609 235.607 128.323 235.096C128.751 234.805 129.179 234.44 129.607 234.148C130.178 233.711 130.749 233.346 131.32 232.908C131.32 232.908 131.32 232.908 131.391 232.908C131.819 232.617 132.247 232.325 132.675 232.033V232.106Z" fill="#D5E0EA"/>
<ellipse cx="313.322" cy="231.79" rx="5.44783" ry="5.4945" fill="#D5E0EA"/>
<ellipse cx="496.62" cy="231.79" rx="5.44783" ry="5.4945" fill="#D5E0EA"/>
<path fill-rule="evenodd" clip-rule="evenodd" d="M86.4892 278.444C86.4892 281.408 84.1515 283.866 81.1762 283.866C80.6095 283.866 80.0428 283.794 79.5469 283.577C80.6095 282.131 81.6721 280.758 82.8055 279.312C83.2306 278.734 83.6556 278.227 84.0807 277.721C84.4349 277.288 84.7182 276.854 85.0724 276.493C85.285 276.203 85.4975 275.986 85.71 275.697C86.2767 276.42 86.4892 277.36 86.4892 278.444Z" fill="#D5E0EA"/>
<ellipse cx="171.388" cy="278.372" rx="5.44783" ry="5.4945" fill="#D5E0EA"/>
<ellipse cx="264.338" cy="278.372" rx="5.44783" ry="5.4945" fill="#D5E0EA"/>
<ellipse cx="357.483" cy="278.372" rx="5.44783" ry="5.4945" fill="#D5E0EA"/>
<path fill-rule="evenodd" clip-rule="evenodd" d="M452.313 278.674C452.313 281.672 449.916 284.158 446.865 284.158C443.959 284.158 441.562 281.818 441.417 278.893L441.853 278.747C441.998 278.674 442.143 278.674 442.289 278.6C442.579 278.527 442.87 278.381 443.16 278.308C443.523 278.162 443.887 278.015 444.323 277.869C444.613 277.796 444.831 277.65 445.122 277.504C445.412 277.357 445.775 277.211 446.066 277.065C447.591 276.407 449.117 275.602 450.715 274.725C451.659 275.749 452.313 277.138 452.313 278.674Z" fill="#D5E0EA"/>
<path fill-rule="evenodd" clip-rule="evenodd" d="M536.007 275.017C535.531 275.98 535.134 276.943 534.657 277.837C534.737 276.805 535.213 275.911 535.928 275.154C535.928 275.085 535.928 275.085 536.007 275.017Z" fill="#D5E0EA"/>
<ellipse cx="124.431" cy="327.19" rx="5.44783" ry="5.4945" fill="#D5E0EA"/>
<ellipse cx="217.575" cy="327.19" rx="5.44783" ry="5.4945" fill="#D5E0EA"/>
<ellipse cx="310.525" cy="327.19" rx="5.44783" ry="5.4945" fill="#D5E0EA"/>
<ellipse cx="400.679" cy="327.19" rx="5.44783" ry="5.4945" fill="#D5E0EA"/>
<ellipse cx="493.726" cy="327.19" rx="5.44783" ry="5.4945" fill="#D5E0EA"/>
<ellipse cx="89.9127" cy="373.772" rx="5.44783" ry="5.4945" fill="#D5E0EA"/>
<ellipse cx="180.067" cy="373.772" rx="5.44783" ry="5.4945" fill="#D5E0EA"/>
<ellipse cx="273.017" cy="373.772" rx="5.44783" ry="5.4945" fill="#D5E0EA"/>
<ellipse cx="43.7261" cy="421.715" rx="5.44783" ry="5.4945" fill="#D5E0EA"/>
<ellipse cx="133.109" cy="421.715" rx="5.44783" ry="5.4945" fill="#D5E0EA"/>
<ellipse cx="226.253" cy="421.715" rx="5.44783" ry="5.4945" fill="#D5E0EA"/>
<ellipse cx="319.203" cy="421.715" rx="5.44783" ry="5.4945" fill="#D5E0EA"/>
<ellipse cx="86.9234" cy="468.296" rx="5.44783" ry="5.4945" fill="#D5E0EA"/>
<ellipse cx="177.173" cy="468.296" rx="5.44783" ry="5.4945" fill="#D5E0EA"/>
<ellipse cx="270.125" cy="468.296" rx="5.44783" ry="5.4945" fill="#D5E0EA"/>
<path fill-rule="evenodd" clip-rule="evenodd" d="M358.591 468.402C358.241 468.471 357.978 468.471 357.627 468.54C357.627 468.402 357.627 468.196 357.627 467.989C357.627 467.164 357.89 466.407 358.328 465.719C358.416 466.614 358.504 467.508 358.591 468.402Z" fill="#D5E0EA"/>
<path fill-rule="evenodd" clip-rule="evenodd" d="M216.295 254.303C210.749 254.303 204.988 252.7 200.091 249.567C192.817 245.05 187.92 237.326 186.552 228.51L183.311 207.453C183.239 207.235 183.455 207.016 183.671 206.943C183.887 206.943 184.103 207.089 184.175 207.308L187.416 228.364C188.712 236.962 193.537 244.394 200.595 248.838C207.941 253.429 216.871 254.667 224.577 252.117C232.859 249.421 239.484 242.645 242.221 233.975C243.517 229.967 243.805 225.377 243.085 220.787C243.013 220.568 243.229 220.35 243.445 220.277C243.661 220.204 243.877 220.423 243.949 220.641C244.669 225.377 244.381 230.04 243.013 234.193C240.132 243.155 233.363 250.077 224.793 252.919C221.984 253.866 219.175 254.303 216.295 254.303Z" fill="#D5E0EA"/>
<path fill-rule="evenodd" clip-rule="evenodd" d="M280.396 403.22C280.107 401.837 279.387 400.818 279.026 400.381C278.81 400.09 278.305 399.435 277.512 399.071C276.215 398.489 275.061 398.78 274.629 398.925C275.566 398.561 276.503 398.197 277.368 397.833C280.973 395.941 282.631 391.354 281.045 387.642C279.963 385.167 277.729 383.711 275.205 383.565L276.287 382.983C279.891 381.09 281.549 376.504 279.963 372.791C278.449 369.297 274.557 367.841 271.168 369.297C272.466 367.113 272.826 364.419 271.817 362.017C271.313 360.78 270.52 359.833 269.51 359.178C267.131 357.431 263.887 358.377 262.374 358.814C249.974 362.236 233.682 370.17 230.438 371.772C228.708 372.573 227.338 373.228 226.617 373.592C226.329 371.845 225.968 370.098 225.68 368.351C225.32 366.094 224.887 363.837 224.527 361.653C218.615 364.856 208.09 370.68 204.702 372.5C211.046 392.519 217.318 412.539 223.662 432.558C227.41 431.102 231.664 429.5 236.277 427.826C239.882 426.516 241.684 425.86 247.091 423.968C254.732 421.201 261.508 418.799 269.51 415.232C269.51 415.232 269.871 415.086 270.52 414.722C273.043 413.485 279.315 409.991 280.324 406.424C280.756 404.968 280.54 403.657 280.54 403.366C280.396 403.22 280.396 403.22 280.396 403.22Z" fill="#FBC1B4"/>
<path fill-rule="evenodd" clip-rule="evenodd" d="M241.922 382.767C241.778 382.767 241.634 382.694 241.562 382.474C241.49 382.255 241.562 381.962 241.778 381.889L270.92 368.791C271.136 368.718 271.423 368.791 271.495 369.01C271.567 369.23 271.495 369.522 271.279 369.596L242.066 382.694C241.994 382.767 241.922 382.767 241.922 382.767Z" fill="#0E0F11"/>
<path fill-rule="evenodd" clip-rule="evenodd" d="M246.141 395.604C245.997 395.604 245.781 395.531 245.709 395.313C245.637 395.095 245.709 394.805 245.925 394.732L275.643 382.891C275.86 382.819 276.148 382.891 276.22 383.109C276.292 383.327 276.22 383.618 276.004 383.69L246.286 395.531C246.214 395.604 246.141 395.604 246.141 395.604Z" fill="#0E0F11"/>
<path fill-rule="evenodd" clip-rule="evenodd" d="M249.901 409.121C249.757 409.121 249.541 409.048 249.468 408.828C249.396 408.607 249.468 408.314 249.685 408.24L275.643 397.965C275.859 397.892 276.148 397.965 276.22 398.185C276.292 398.406 276.22 398.699 276.003 398.772L250.045 409.048C250.045 409.121 249.973 409.121 249.901 409.121Z" fill="#0E0F11"/>
<path fill-rule="evenodd" clip-rule="evenodd" d="M565.288 149.047C561.325 147.882 557.146 150.212 555.993 154.215L551.094 171.321C547.203 158.291 543.312 145.262 539.349 132.16C531.783 133.397 527.172 134.634 523.281 137.619C521.263 139.147 517.661 142.423 511.032 162.732C508.726 169.865 506.132 178.6 503.898 188.645L508.366 191.266L553.399 217.543H553.471C554.984 212.157 556.498 206.697 558.011 201.311C558.011 201.238 558.083 201.165 558.083 201.092L559.019 197.89L570.26 158.364C571.557 154.434 569.251 150.212 565.288 149.047Z" fill="#FBC1B4"/>
<path fill-rule="evenodd" clip-rule="evenodd" d="M554.017 161.547C553.799 161.474 553.508 161.62 553.435 161.839L550.89 170.509L547.982 180.273C547.909 180.492 548.055 180.71 548.273 180.783C548.345 180.783 548.345 180.783 548.418 180.783C548.636 180.783 548.782 180.638 548.854 180.492L554.308 162.057C554.381 161.839 554.235 161.547 554.017 161.547Z" fill="#0E0F11"/>
<path fill-rule="evenodd" clip-rule="evenodd" d="M521.852 105.222C521.708 105.222 521.564 105.222 521.419 105.149L465.191 78.6297C464.614 78.3383 464.397 77.7554 464.686 77.1726C464.975 76.5897 465.552 76.3712 466.13 76.6626L522.358 103.182C522.935 103.474 523.152 104.056 522.863 104.639C522.646 105.004 522.285 105.222 521.852 105.222Z" fill="#51668F"/>
<path fill-rule="evenodd" clip-rule="evenodd" d="M653.699 87.8147C653.555 87.8147 653.483 87.8147 653.339 87.742C652.762 87.524 652.474 86.9427 652.618 86.3614L680.73 0.763671C680.947 0.182362 681.523 -0.108293 682.1 0.0370343C682.677 0.255025 682.965 0.836334 682.821 1.41764L654.78 87.0154C654.564 87.524 654.132 87.8147 653.699 87.8147Z" fill="#51668F"/>
<path fill-rule="evenodd" clip-rule="evenodd" d="M679.994 70.7963C679.778 70.7963 679.562 70.7234 679.346 70.5776C678.841 70.2132 678.769 69.4844 679.13 69.0471L712.068 26.1197C712.428 25.6096 713.149 25.5367 713.581 25.9011C714.014 26.2655 714.158 26.9943 713.798 27.4316L680.859 70.359C680.643 70.6505 680.283 70.7963 679.994 70.7963Z" fill="#51668F"/>
<path fill-rule="evenodd" clip-rule="evenodd" d="M707.252 84.2767C684.163 117.528 661.074 150.851 637.912 184.102L620.884 126.841C602.413 157.545 584.014 188.322 565.543 219.099C563.45 212.041 561.286 204.984 559.193 197.926L570.449 158.418C571.604 154.416 569.295 150.196 565.326 149.032C561.358 147.868 557.173 150.196 556.018 154.198L553.926 161.474C553.709 161.401 553.493 161.547 553.421 161.765L550.896 170.423C547.071 157.69 543.247 144.958 539.423 132.152C534.877 116.945 530.332 101.812 525.786 86.6777C555.73 94.0991 585.673 101.521 615.545 108.942L600.753 59.0293C636.253 67.3966 671.752 75.8366 707.252 84.2767Z" fill="#444C54"/>
<path fill-rule="evenodd" clip-rule="evenodd" d="M269.355 415.074C269.355 415.074 269.715 414.929 270.364 414.567C270.004 414.929 269.643 415.364 269.283 415.726C259.475 426.88 249.668 438.033 239.86 449.187C238.562 442.017 237.336 434.774 236.038 427.604C239.644 426.3 241.447 425.648 246.855 423.765C254.643 421.086 261.35 418.623 269.355 415.074Z" fill="#444C54"/>
<path fill-rule="evenodd" clip-rule="evenodd" d="M318.865 359.19C306.171 373.663 293.477 388.208 280.71 402.68C280.566 402.826 280.422 403.044 280.278 403.189C280.278 403.116 280.278 403.116 280.278 403.116C279.989 401.735 279.268 400.717 278.907 400.28C278.691 399.989 278.186 399.335 277.393 398.971C276.094 398.389 274.94 398.68 274.508 398.826C275.445 398.462 276.383 398.098 277.248 397.735C280.855 395.844 282.514 391.262 280.927 387.553C279.845 385.081 277.609 383.626 275.085 383.481L276.166 382.899C279.773 381.008 281.432 376.426 279.845 372.717C278.33 369.227 274.435 367.772 271.045 369.227C272.344 367.045 272.704 364.354 271.695 361.954C271.19 360.718 270.396 359.772 269.387 359.118C267.006 357.372 263.761 358.318 262.246 358.754C249.84 362.172 233.54 370.099 230.294 371.699C228.563 372.499 227.193 373.154 226.472 373.517C225.75 369.517 225.029 365.59 224.38 361.59C222.36 350.245 220.341 338.973 218.394 327.628C251.86 338.1 285.326 348.645 318.865 359.19Z" fill="#444C54"/>
</svg>
